<svg width="149" height="130" viewBox="0 0 149 130" fill="none" xmlns="http://www.w3.org/2000/svg">
<path d="M138.867 3.14058L125.414 0.115265L125.359 0.359325L138.812 3.38465L138.867 3.14058Z" fill="#706F6E"/>
<path d="M129.789 2.90235L129.168 2.76226C129.092 2.74558 129.042 2.66886 129.058 2.58881L129.155 2.15186C129.172 2.07514 129.248 2.02511 129.329 2.04178L129.949 2.18188C130.026 2.19855 130.076 2.27527 130.059 2.35532L129.962 2.79228C129.946 2.86899 129.869 2.91903 129.789 2.90235Z" fill="#585857"/>
<path d="M130.926 3.15595L130.306 3.01586C130.229 2.99918 130.179 2.92246 130.196 2.84241L130.293 2.40546C130.309 2.32874 130.386 2.27871 130.466 2.29539L131.086 2.43548C131.163 2.45215 131.213 2.52887 131.197 2.60892L131.1 3.04588C131.083 3.12593 131.003 3.17596 130.926 3.15595Z" fill="#585857"/>
<path d="M130.336 2.89582C130.326 2.89249 130.319 2.88248 130.322 2.87247L130.419 2.43552C130.422 2.42551 130.433 2.41884 130.443 2.42218L131.063 2.56227C131.073 2.56561 131.08 2.57561 131.076 2.58562L130.98 3.02257C130.976 3.03258 130.966 3.03925 130.956 3.03591L130.336 2.89582Z" fill="#5E5E5D"/>
<path d="M131.473 3.15255C131.463 3.14922 131.457 3.13921 131.46 3.1292L131.557 2.69225C131.56 2.68224 131.57 2.67557 131.58 2.67891L132.2 2.819C132.21 2.82234 132.217 2.83234 132.214 2.84235L132.117 3.2793C132.114 3.28931 132.104 3.29598 132.094 3.29264L131.473 3.15255Z" fill="#5E5E5D"/>
<path d="M123.471 1.6351L124.238 1.80855C124.325 1.82856 124.382 1.91528 124.362 2.00534L124.192 2.75917C124.172 2.84589 124.085 2.9026 123.995 2.88258L123.228 2.70914C123.141 2.68912 123.084 2.6024 123.104 2.51234L123.274 1.75851C123.294 1.67179 123.381 1.61509 123.471 1.6351Z" fill="#585857"/>
<path d="M124.782 1.9317L125.549 2.10514C125.636 2.12516 125.692 2.21188 125.672 2.30194L125.502 3.05577C125.482 3.14249 125.396 3.1992 125.306 3.17918L124.538 3.00574C124.452 2.98572 124.395 2.899 124.415 2.80894L124.585 2.05511C124.605 1.96505 124.692 1.91168 124.782 1.9317Z" fill="#585857"/>
<path d="M124.569 2.88234C124.549 2.87901 124.535 2.85566 124.539 2.83564L124.709 2.08182C124.712 2.0618 124.735 2.04846 124.755 2.0518L125.523 2.22524C125.543 2.22858 125.556 2.25193 125.553 2.27194L125.382 3.02577C125.379 3.04578 125.356 3.05912 125.336 3.05579L124.569 2.88234Z" fill="#5E5E5D"/>
<path d="M138.851 3.13924L125.403 0.113916L125.409 -0.1129L138.968 2.93577L138.851 3.13924Z" fill="#585857"/>
<path d="M132.064 3.41289L131.443 3.2728C131.367 3.25612 131.317 3.17941 131.333 3.09935L131.43 2.6624C131.447 2.58568 131.524 2.53565 131.604 2.55233L132.224 2.69242C132.301 2.7091 132.351 2.78581 132.334 2.86587L132.237 3.30282C132.217 3.38287 132.141 3.42957 132.064 3.41289Z" fill="#585857"/>
<path d="M133.201 3.66962L132.581 3.52953C132.504 3.51285 132.454 3.43614 132.471 3.35608L132.568 2.91913C132.584 2.84241 132.661 2.79238 132.741 2.80906L133.361 2.94915C133.438 2.96583 133.488 3.04254 133.472 3.1226L133.375 3.55955C133.355 3.63627 133.278 3.6863 133.201 3.66962Z" fill="#585857"/>
<path d="M132.607 3.40615C132.597 3.40282 132.591 3.39281 132.594 3.3828L132.691 2.94585C132.694 2.93584 132.704 2.92917 132.714 2.93251L133.334 3.0726C133.344 3.07594 133.351 3.08594 133.348 3.09595L133.251 3.5329C133.248 3.54291 133.238 3.54958 133.228 3.54624L132.607 3.40615Z" fill="#5E5E5D"/>
<path d="M134.338 3.92322L133.718 3.78313C133.641 3.76645 133.591 3.68974 133.608 3.60968L133.705 3.17273C133.721 3.09601 133.798 3.04598 133.878 3.06266L134.499 3.20275C134.575 3.21943 134.625 3.29614 134.609 3.3762L134.512 3.81315C134.492 3.8932 134.415 3.94324 134.338 3.92322Z" fill="#585857"/>
<path d="M133.745 3.66309C133.735 3.65976 133.728 3.64975 133.731 3.63975L133.828 3.20279C133.831 3.19279 133.842 3.18612 133.852 3.18945L134.472 3.32954C134.482 3.33288 134.489 3.34288 134.485 3.35289L134.389 3.78985C134.385 3.79985 134.375 3.80652 134.365 3.80319L133.745 3.66309Z" fill="#5E5E5D"/>
<path d="M134.882 3.91982C134.872 3.91649 134.865 3.90648 134.868 3.89648L134.965 3.45952C134.969 3.44951 134.979 3.44284 134.989 3.44618L135.609 3.58627C135.619 3.58961 135.626 3.59961 135.622 3.60962L135.526 4.04657C135.522 4.05658 135.512 4.06325 135.502 4.05992L134.882 3.91982Z" fill="#5E5E5D"/>
<path d="M126.093 2.22549L126.861 2.39894C126.947 2.41895 127.004 2.50568 126.984 2.59573L126.814 3.34956C126.794 3.43629 126.707 3.49299 126.617 3.47298L125.85 3.29953C125.763 3.27952 125.706 3.19279 125.726 3.10273L125.897 2.34891C125.917 2.26218 126.007 2.20548 126.093 2.22549Z" fill="#585857"/>
<path d="M125.88 3.17588C125.86 3.17254 125.846 3.14919 125.85 3.12918L126.02 2.37535C126.023 2.35534 126.046 2.34199 126.066 2.34533L126.834 2.51878C126.854 2.52211 126.867 2.54546 126.864 2.56547L126.693 3.3193C126.69 3.33932 126.667 3.35266 126.647 3.34932L125.88 3.17588Z" fill="#5E5E5D"/>
<path d="M127.404 2.51903L128.171 2.69247C128.258 2.71249 128.315 2.79921 128.295 2.88927L128.124 3.6431C128.104 3.72982 128.018 3.78653 127.928 3.76651L127.16 3.59306C127.074 3.57305 127.017 3.48633 127.037 3.39627L127.207 2.64244C127.227 2.55572 127.317 2.49901 127.404 2.51903Z" fill="#585857"/>
<path d="M127.191 3.47275C127.171 3.46941 127.157 3.44606 127.161 3.42605L127.331 2.67222C127.334 2.65221 127.357 2.63887 127.377 2.6422L128.145 2.81565C128.165 2.81899 128.178 2.84234 128.175 2.86235L128.005 3.61618C128.001 3.63619 127.978 3.64953 127.958 3.6462L127.191 3.47275Z" fill="#5E5E5D"/>
<path d="M128.715 2.81584L129.482 2.98928C129.568 3.0093 129.625 3.09602 129.605 3.18608L129.435 3.93991C129.415 4.02663 129.328 4.08334 129.238 4.06332L128.471 3.88988C128.384 3.86986 128.328 3.78314 128.348 3.69308L128.518 2.93925C128.541 2.84919 128.628 2.79582 128.715 2.81584Z" fill="#585857"/>
<path d="M128.501 3.76627C128.481 3.76293 128.468 3.73958 128.471 3.71957L128.641 2.96574C128.645 2.94573 128.668 2.93239 128.688 2.93572L129.455 3.10917C129.475 3.1125 129.489 3.13585 129.485 3.15587L129.315 3.9097C129.312 3.92971 129.288 3.94305 129.268 3.93972L128.501 3.76627Z" fill="#5E5E5D"/>
<path d="M122.981 3.80641C122.961 3.80308 122.948 3.77973 122.951 3.75972L123.121 3.00589C123.124 2.98587 123.148 2.97253 123.168 2.97587L123.935 3.14931C123.955 3.15265 123.968 3.176 123.965 3.19601L123.795 3.94984C123.791 3.96985 123.768 3.9832 123.748 3.97986L122.981 3.80641Z" fill="#5E5E5D"/>
<path d="M141.59 3.75305L122.691 -0.496409C122.581 -0.523093 122.504 -0.626496 122.514 -0.739904L124.492 -11.5537C124.519 -11.8505 124.799 -12.054 125.089 -11.9873L144.338 -7.65778C144.629 -7.59107 144.795 -7.28754 144.692 -7.00735L141.853 3.60962C141.813 3.71636 141.703 3.77973 141.59 3.75305Z" fill="#E3E1E1"/>
<path d="M36.5028 -16C26.8335 -16 19 -8.16648 19 1.50276C19 11.1665 26.8335 19.0055 36.5028 19.0055C46.1665 19.0055 54.0055 11.172 54.0055 1.50276C54 -8.16648 46.1665 -16 36.5028 -16ZM36.5028 16.0452C28.4708 16.0452 21.9603 9.53473 21.9603 1.50276C21.9603 -6.52922 28.4708 -13.0397 36.5028 -13.0397C44.5347 -13.0397 51.0452 -6.52922 51.0452 1.50276C51.0452 9.53473 44.5347 16.0452 36.5028 16.0452Z" fill="#808AFF"/>
<path d="M49.9209 7.10971C53.0195 -0.300218 49.5244 -8.81905 42.1145 -11.9176C34.7046 -15.0162 26.1857 -11.5212 23.0872 -4.11124C19.9886 3.29868 23.4836 11.8175 30.8936 14.9161C38.3035 18.0147 46.8223 14.5196 49.9209 7.10971Z" fill="#AEB4FC"/>
<path d="M36.469 14.7383C37.4888 14.7383 37.4943 13.1507 36.469 13.1507C35.4491 13.1507 35.4436 14.7383 36.469 14.7383Z" fill="#808AFF"/>
<path d="M42.7544 5.75301C42.6607 5.75301 42.567 5.73096 42.4843 5.67583L36.2274 1.95477C36.0675 1.86106 35.9683 1.68465 35.9683 1.49722V-8.50278C35.9683 -8.79495 36.2053 -9.032 36.4975 -9.032C36.7897 -9.032 37.0267 -8.79495 37.0267 -8.50278V1.19953L43.0245 4.76624C43.2781 4.91508 43.3608 5.24033 43.2064 5.49391C43.1127 5.65929 42.9363 5.75301 42.7544 5.75301Z" fill="#808AFF"/>
<path d="M138.995 14.8971L120.266 10.6877C120.082 10.6476 119.966 10.4642 120.009 10.2807L122.367 -0.219492C122.407 -0.402946 122.591 -0.519689 122.774 -0.476327L141.503 3.73644C141.687 3.77647 141.803 3.95992 141.76 4.14337L139.398 14.6436C139.358 14.8237 139.178 14.9405 138.995 14.8971Z" fill="#ECECEC"/>
<path d="M120.319 10.4408C120.269 10.4308 120.239 10.3808 120.253 10.3341L122.614 -0.166142C122.624 -0.216175 122.674 -0.246195 122.721 -0.232853L141.45 3.97992C141.5 3.98992 141.53 4.03995 141.517 4.08665L139.155 14.5869C139.145 14.6369 139.095 14.6669 139.048 14.6536L120.319 10.4408Z" fill="#F5F4F5"/>
<path d="M135.476 4.17995L134.856 4.03986C134.779 4.02318 134.729 3.94647 134.745 3.86641L134.842 3.42946C134.859 3.35274 134.936 3.30271 135.016 3.31939L135.636 3.45948C135.713 3.47616 135.763 3.55287 135.746 3.63293L135.649 4.06988C135.629 4.14993 135.553 4.19663 135.476 4.17995Z" fill="#585857"/>
<path d="M130.026 3.10942L130.793 3.28287C130.879 3.30288 130.936 3.3896 130.916 3.47966L130.746 4.23349C130.726 4.32021 130.639 4.37692 130.549 4.35691L129.782 4.18346C129.695 4.16344 129.639 4.07672 129.659 3.98666L129.829 3.23283C129.852 3.14611 129.939 3.08941 130.026 3.10942Z" fill="#585857"/>
<path d="M129.812 4.06002C129.792 4.05668 129.779 4.03333 129.782 4.01332L129.952 3.25949C129.955 3.23948 129.979 3.22613 129.999 3.22947L130.766 3.40292C130.786 3.40625 130.799 3.4296 130.796 3.44961L130.626 4.20344C130.622 4.22346 130.599 4.2368 130.579 4.23346L129.812 4.06002Z" fill="#5E5E5D"/>
<path d="M131.337 3.40602L132.104 3.57946C132.191 3.59948 132.247 3.6862 132.227 3.77626L132.057 4.53009C132.037 4.61681 131.95 4.67352 131.86 4.6535L131.093 4.48006C131.006 4.46004 130.95 4.37332 130.97 4.28326L131.14 3.52943C131.163 3.43937 131.25 3.386 131.337 3.40602Z" fill="#585857"/>
<path d="M131.123 4.35666C131.103 4.35333 131.09 4.32998 131.093 4.30996L131.263 3.55613C131.266 3.53612 131.29 3.52278 131.31 3.52612L132.077 3.69956C132.097 3.7029 132.11 3.72625 132.107 3.74626L131.937 4.50009C131.933 4.5201 131.91 4.53344 131.89 4.53011L131.123 4.35666Z" fill="#5E5E5D"/>
<path d="M132.651 3.69981L133.418 3.87326C133.505 3.89327 133.561 3.98 133.541 4.07005L133.371 4.82388C133.351 4.91061 133.265 4.96731 133.174 4.9473L132.407 4.77385C132.321 4.75384 132.264 4.66711 132.284 4.57705L132.454 3.82323C132.474 3.7365 132.561 3.6798 132.651 3.69981Z" fill="#585857"/>
<path d="M132.434 4.65041C132.414 4.64707 132.401 4.62372 132.404 4.60371L132.574 3.84988C132.577 3.82987 132.601 3.81653 132.621 3.81986L133.388 3.99331C133.408 3.99664 133.421 4.01999 133.418 4.04001L133.248 4.79383C133.245 4.81385 133.221 4.82719 133.201 4.82385L132.434 4.65041Z" fill="#5E5E5D"/>
<path d="M133.961 3.99312L134.729 4.16656C134.815 4.18658 134.872 4.2733 134.852 4.36336L134.682 5.11719C134.662 5.20391 134.575 5.26061 134.485 5.2406L133.718 5.06715C133.631 5.04714 133.574 4.96042 133.595 4.87036L133.765 4.11653C133.785 4.02981 133.871 3.9731 133.961 3.99312Z" fill="#585857"/>
<path d="M133.748 4.94705C133.728 4.94372 133.715 4.92037 133.718 4.90036L133.888 4.14653C133.892 4.12651 133.915 4.11317 133.935 4.11651L134.702 4.28996C134.722 4.29329 134.735 4.31664 134.732 4.33665L134.562 5.09048C134.559 5.1105 134.535 5.12384 134.515 5.1205L133.748 4.94705Z" fill="#5E5E5D"/>
<path d="M135.272 4.29016L136.04 4.4636C136.126 4.48362 136.183 4.57034 136.163 4.6604L135.993 5.41423C135.973 5.50095 135.886 5.55766 135.796 5.53764L135.029 5.3642C134.942 5.34418 134.886 5.25746 134.906 5.1674L135.076 4.41357C135.096 4.32351 135.182 4.27014 135.272 4.29016Z" fill="#585857"/>
<path d="M135.059 5.24082C135.039 5.23748 135.025 5.21413 135.029 5.19412L135.199 4.44029C135.202 4.42028 135.226 4.40693 135.246 4.41027L136.013 4.58372C136.033 4.58705 136.046 4.6104 136.043 4.63041L135.873 5.38424C135.869 5.40426 135.846 5.4176 135.826 5.41426L135.059 5.24082Z" fill="#5E5E5D"/>
<path d="M123.194 2.85582L123.961 3.02926C124.048 3.04928 124.105 3.136 124.085 3.22606L123.915 3.97989C123.895 4.06661 123.808 4.12332 123.718 4.1033L122.951 3.92986C122.864 3.90984 122.807 3.82312 122.827 3.73306L123.001 2.97923C123.021 2.89251 123.107 2.8358 123.194 2.85582Z" fill="#585857"/>
<path d="M124.509 3.15263L125.276 3.32608C125.363 3.34609 125.419 3.43281 125.399 3.52287L125.229 4.2767C125.209 4.36342 125.123 4.42013 125.033 4.40011L124.265 4.22667C124.179 4.20666 124.122 4.11993 124.142 4.02987L124.312 3.27604C124.332 3.18598 124.419 3.13262 124.509 3.15263Z" fill="#585857"/>
<path d="M124.292 4.10329C124.272 4.09995 124.259 4.0766 124.262 4.05659L124.432 3.30276C124.435 3.28275 124.459 3.26941 124.479 3.27274L125.246 3.44619C125.266 3.44953 125.279 3.47287 125.276 3.49289L125.106 4.24672C125.103 4.26673 125.079 4.28007 125.059 4.27674L124.292 4.10329Z" fill="#5E5E5D"/>
<path d="M125.819 3.44621L126.587 3.61966C126.673 3.63967 126.73 3.72639 126.71 3.81645L126.54 4.57028C126.52 4.65701 126.433 4.71371 126.343 4.6937L125.576 4.52025C125.489 4.50024 125.433 4.41351 125.453 4.32345L125.623 3.56962C125.643 3.4829 125.729 3.4262 125.819 3.44621Z" fill="#585857"/>
<path d="M125.606 4.39681C125.586 4.39347 125.573 4.37012 125.576 4.35011L125.746 3.59628C125.75 3.57627 125.773 3.56293 125.793 3.56626L126.56 3.73971C126.58 3.74304 126.593 3.76639 126.59 3.78641L126.42 4.54023C126.417 4.56025 126.393 4.57359 126.373 4.57025L125.606 4.39681Z" fill="#5E5E5D"/>
<path d="M127.13 3.73974L127.897 3.91319C127.984 3.9332 128.041 4.01993 128.021 4.10999L127.851 4.86382C127.83 4.95054 127.744 5.00724 127.654 4.98723L126.887 4.81378C126.8 4.79377 126.743 4.70705 126.763 4.61699L126.933 3.86316C126.953 3.77644 127.04 3.71973 127.13 3.73974Z" fill="#585857"/>
<path d="M126.917 4.69034C126.897 4.687 126.883 4.66366 126.887 4.64364L127.057 3.88981C127.06 3.8698 127.084 3.85646 127.104 3.85979L127.871 4.03324C127.891 4.03658 127.904 4.05993 127.901 4.07994L127.731 4.83377C127.727 4.85378 127.704 4.86712 127.684 4.86379L126.917 4.69034Z" fill="#5E5E5D"/>
<path d="M128.442 4.03656L129.209 4.21C129.295 4.23001 129.352 4.31674 129.332 4.4068L129.162 5.16063C129.142 5.24735 129.055 5.30405 128.965 5.28404L128.198 5.11059C128.111 5.09058 128.055 5.00386 128.075 4.9138L128.245 4.15997C128.265 4.06991 128.355 4.01654 128.442 4.03656Z" fill="#585857"/>
<path d="M128.228 4.98722C128.208 4.98388 128.194 4.96053 128.198 4.94052L128.368 4.18669C128.371 4.16668 128.395 4.15333 128.415 4.15667L129.182 4.33012C129.202 4.33345 129.215 4.3568 129.212 4.37681L129.042 5.13064C129.038 5.15066 129.015 5.164 128.995 5.16066L128.228 4.98722Z" fill="#5E5E5D"/>
<path d="M129.752 4.32991L130.519 4.50336C130.606 4.52337 130.663 4.61009 130.643 4.70015L130.473 5.45398C130.453 5.5407 130.366 5.59741 130.276 5.57739L129.509 5.40395C129.422 5.38393 129.365 5.29721 129.385 5.20715L129.555 4.45332C129.575 4.3666 129.665 4.30989 129.752 4.32991Z" fill="#585857"/>
<path d="M129.539 5.28073C129.519 5.2774 129.506 5.25405 129.509 5.23404L129.679 4.48021C129.682 4.46019 129.706 4.44685 129.726 4.45019L130.493 4.62363C130.513 4.62697 130.526 4.65032 130.523 4.67033L130.353 5.42416C130.349 5.44417 130.326 5.45752 130.306 5.45418L129.539 5.28073Z" fill="#5E5E5D"/>
<path d="M131.063 4.62695L131.83 4.8004C131.917 4.82041 131.973 4.90713 131.953 4.99719L131.783 5.75102C131.763 5.83774 131.676 5.89445 131.586 5.87444L130.819 5.70099C130.733 5.68097 130.676 5.59425 130.696 5.50419L130.866 4.75036C130.889 4.6603 130.976 4.60694 131.063 4.62695Z" fill="#585857"/>
<path d="M130.849 5.57761C130.829 5.57427 130.816 5.55092 130.819 5.53091L130.99 4.77708C130.993 4.75707 131.016 4.74373 131.036 4.74706L131.803 4.92051C131.823 4.92385 131.837 4.94719 131.833 4.96721L131.663 5.72104C131.66 5.74105 131.637 5.75439 131.617 5.75106L130.849 5.57761Z" fill="#5E5E5D"/>
<path d="M132.374 4.92032L133.141 5.09376C133.228 5.11378 133.284 5.2005 133.264 5.29056L133.094 6.04439C133.074 6.13111 132.988 6.18782 132.897 6.1678L132.13 5.99436C132.044 5.97434 131.987 5.88762 132.007 5.79756L132.177 5.04373C132.2 4.95701 132.287 4.9003 132.374 4.92032Z" fill="#585857"/>
<path d="M132.16 5.87113C132.14 5.86779 132.127 5.84444 132.13 5.82443L132.3 5.0706C132.304 5.05059 132.327 5.03724 132.347 5.04058L133.114 5.21403C133.134 5.21736 133.147 5.24071 133.144 5.26072L132.974 6.01455C132.971 6.03457 132.947 6.04791 132.927 6.04457L132.16 5.87113Z" fill="#5E5E5D"/>
<path d="M133.685 5.21406L134.452 5.38751C134.539 5.40752 134.595 5.49425 134.575 5.58431L134.405 6.33813C134.385 6.42486 134.299 6.48156 134.209 6.46155L133.441 6.2881C133.355 6.26809 133.298 6.18137 133.318 6.09131L133.488 5.33748C133.511 5.25075 133.598 5.19405 133.685 5.21406Z" fill="#585857"/>
<path d="M133.471 6.16466C133.451 6.16132 133.438 6.13797 133.441 6.11796L133.611 5.36413C133.615 5.34412 133.638 5.33078 133.658 5.33411L134.425 5.50756C134.445 5.5109 134.458 5.53425 134.455 5.55426L134.285 6.30809C134.282 6.3281 134.258 6.34144 134.238 6.33811L133.471 6.16466Z" fill="#5E5E5D"/>
<path d="M134.995 5.51088L135.763 5.68432C135.849 5.70434 135.906 5.79106 135.886 5.88112L135.716 6.63495C135.696 6.72167 135.609 6.77837 135.519 6.75836L134.752 6.58491C134.665 6.5649 134.609 6.47818 134.629 6.38812L134.799 5.63429C134.822 5.54423 134.909 5.49086 134.995 5.51088Z" fill="#585857"/>
<path d="M134.782 6.46152C134.762 6.45818 134.749 6.43483 134.752 6.41482L134.922 5.66099C134.926 5.64098 134.949 5.62764 134.969 5.63097L135.736 5.80442C135.756 5.80776 135.769 5.8311 135.766 5.85112L135.596 6.60495C135.593 6.62496 135.569 6.6383 135.549 6.63497L134.782 6.46152Z" fill="#5E5E5D"/>
<path d="M122.921 4.07654L123.688 4.24998C123.775 4.27 123.832 4.35672 123.812 4.44678L123.642 5.20061C123.622 5.28733 123.535 5.34403 123.445 5.32402L122.678 5.15057C122.591 5.13056 122.534 5.04384 122.554 4.95378L122.724 4.19995C122.748 4.11323 122.835 4.05652 122.921 4.07654Z" fill="#585857"/>
<path d="M122.708 5.02713C122.687 5.0238 122.674 5.00045 122.677 4.98043L122.848 4.22661C122.851 4.20659 122.874 4.19325 122.894 4.19659L123.661 4.37003C123.681 4.37337 123.695 4.39672 123.691 4.41673L123.521 5.17056C123.518 5.19057 123.495 5.20391 123.475 5.20058L122.708 5.02713Z" fill="#5E5E5D"/>
<path d="M124.232 4.36997L124.999 4.54342C125.086 4.56343 125.142 4.65015 125.122 4.74021L124.952 5.49404C124.932 5.58077 124.846 5.63747 124.755 5.61746L123.988 5.44401C123.902 5.424 123.845 5.33727 123.865 5.24721L124.035 4.49339C124.058 4.40666 124.145 4.35329 124.232 4.36997Z" fill="#585857"/>
<path d="M124.019 5.32422C123.999 5.32088 123.985 5.29754 123.989 5.27752L124.159 4.52369C124.162 4.50368 124.185 4.49034 124.205 4.49367L124.972 4.66712C124.993 4.67046 125.006 4.69381 125.003 4.71382L124.832 5.46765C124.829 5.48766 124.806 5.501 124.786 5.49767L124.019 5.32422Z" fill="#5E5E5D"/>
<path d="M125.542 4.66693L126.31 4.84038C126.396 4.86039 126.453 4.94711 126.433 5.03717L126.263 5.791C126.243 5.87772 126.156 5.93443 126.066 5.91441L125.299 5.74097C125.212 5.72095 125.155 5.63423 125.176 5.54417L125.346 4.79034C125.369 4.70362 125.456 4.64692 125.542 4.66693Z" fill="#585857"/>
<path d="M125.329 5.61752C125.309 5.61419 125.296 5.59084 125.299 5.57083L125.469 4.817C125.473 4.79698 125.496 4.78364 125.516 4.78698L126.283 4.96043C126.303 4.96376 126.316 4.98711 126.313 5.00712L126.143 5.76095C126.14 5.78097 126.116 5.79431 126.096 5.79097L125.329 5.61752Z" fill="#5E5E5D"/>
<path d="M126.857 4.96046L127.624 5.13391C127.711 5.15392 127.768 5.24065 127.748 5.33071L127.578 6.08453C127.558 6.17126 127.471 6.22796 127.381 6.20795L126.614 6.0345C126.527 6.01449 126.47 5.92776 126.49 5.83771L126.66 5.08388C126.68 4.99715 126.767 4.94045 126.857 4.96046Z" fill="#585857"/>
<path d="M126.64 5.91106C126.62 5.90772 126.607 5.88437 126.61 5.86436L126.78 5.11053C126.784 5.09052 126.807 5.07718 126.827 5.08051L127.594 5.25396C127.614 5.2573 127.628 5.28064 127.624 5.30066L127.454 6.05449C127.451 6.0745 127.427 6.08784 127.407 6.08451L126.64 5.91106Z" fill="#5E5E5D"/>
<path d="M128.168 5.25749L128.935 5.43093C129.022 5.45095 129.078 5.53767 129.058 5.62773L128.888 6.38156C128.868 6.46828 128.781 6.52499 128.691 6.50497L127.924 6.33153C127.837 6.31151 127.781 6.22479 127.801 6.13473L127.971 5.3809C127.991 5.29084 128.078 5.23747 128.168 5.25749Z" fill="#585857"/>
<path d="M127.954 6.20792C127.934 6.20458 127.921 6.18123 127.924 6.16122L128.094 5.40739C128.098 5.38738 128.121 5.37404 128.141 5.37737L128.908 5.55082C128.928 5.55416 128.942 5.5775 128.938 5.59752L128.768 6.35135C128.765 6.37136 128.742 6.3847 128.722 6.38137L127.954 6.20792Z" fill="#5E5E5D"/>
<path d="M129.479 5.55086L130.246 5.7243C130.333 5.74432 130.389 5.83104 130.369 5.9211L130.199 6.67493C130.179 6.76165 130.092 6.81836 130.002 6.79834L129.235 6.62489C129.148 6.60488 129.092 6.51816 129.112 6.4281L129.282 5.67427C129.302 5.58755 129.389 5.53084 129.479 5.55086Z" fill="#585857"/>
<path d="M129.265 6.50145C129.245 6.49812 129.232 6.47477 129.235 6.45475L129.405 5.70093C129.408 5.68091 129.432 5.66757 129.452 5.67091L130.219 5.84435C130.239 5.84769 130.252 5.87104 130.249 5.89105L130.079 6.64488C130.075 6.66489 130.052 6.67823 130.032 6.6749L129.265 6.50145Z" fill="#5E5E5D"/>
<path d="M130.79 5.84429L131.557 6.01774C131.644 6.03775 131.7 6.12447 131.68 6.21453L131.51 6.96836C131.49 7.05509 131.403 7.11179 131.313 7.09178L130.546 6.91833C130.46 6.89832 130.403 6.81159 130.423 6.72153L130.593 5.9677C130.613 5.88098 130.7 5.82761 130.79 5.84429Z" fill="#585857"/>
<path d="M130.576 6.79833C130.556 6.79499 130.543 6.77164 130.546 6.75163L130.716 5.9978C130.719 5.97779 130.743 5.96445 130.763 5.96778L131.53 6.14123C131.55 6.14456 131.563 6.16791 131.56 6.18793L131.39 6.94175C131.387 6.96177 131.363 6.97511 131.343 6.97177L130.576 6.79833Z" fill="#5E5E5D"/>
<path d="M132.1 6.14119L132.868 6.31463C132.954 6.33465 133.011 6.42137 132.991 6.51143L132.821 7.26526C132.801 7.35198 132.714 7.40869 132.624 7.38867L131.857 7.21522C131.77 7.19521 131.713 7.10849 131.733 7.01843L131.904 6.2646C131.924 6.17454 132.014 6.12117 132.1 6.14119Z" fill="#585857"/>
<path d="M131.887 7.09184C131.867 7.08851 131.854 7.06516 131.857 7.04515L132.027 6.29132C132.03 6.27131 132.054 6.25796 132.074 6.2613L132.841 6.43475C132.861 6.43808 132.874 6.46143 132.871 6.48144L132.701 7.23527C132.698 7.25528 132.674 7.26863 132.654 7.26529L131.887 7.09184Z" fill="#5E5E5D"/>
<path d="M133.411 6.43478L134.178 6.60823C134.265 6.62824 134.322 6.71497 134.302 6.80503L134.131 7.55885C134.111 7.64558 134.025 7.70228 133.935 7.68227L133.167 7.50882C133.081 7.48881 133.024 7.40208 133.044 7.31202L133.214 6.5582C133.234 6.47147 133.324 6.41477 133.411 6.43478Z" fill="#585857"/>
<path d="M133.198 7.38538C133.178 7.38204 133.164 7.35869 133.168 7.33868L133.338 6.58485C133.341 6.56484 133.364 6.5515 133.384 6.55483L134.152 6.72828C134.172 6.73162 134.185 6.75496 134.182 6.77498L134.008 7.5288C134.005 7.54882 133.982 7.56216 133.962 7.55882L133.198 7.38538Z" fill="#5E5E5D"/>
<path d="M134.722 6.73159L135.489 6.90504C135.576 6.92505 135.633 7.01178 135.613 7.10184L135.442 7.85566C135.422 7.94239 135.336 7.99909 135.246 7.97908L134.479 7.80563C134.392 7.78562 134.335 7.6989 134.355 7.60884L134.525 6.85501C134.549 6.76495 134.635 6.71158 134.722 6.73159Z" fill="#585857"/>
<path d="M134.508 7.68224C134.488 7.6789 134.475 7.65889 134.478 7.63554L134.648 6.88171C134.652 6.8617 134.675 6.84836 134.695 6.85169L135.462 7.02514C135.482 7.02847 135.496 7.05182 135.492 7.07184L135.322 7.82566C135.319 7.84568 135.295 7.85902 135.275 7.85568L134.508 7.68224Z" fill="#5E5E5D"/>
<path d="M122.647 5.29748L123.414 5.47093C123.501 5.49094 123.558 5.57767 123.538 5.66773L123.368 6.42155C123.348 6.50828 123.261 6.56498 123.171 6.54497L122.404 6.37152C122.317 6.35151 122.26 6.26479 122.28 6.17473L122.451 5.4209C122.471 5.33417 122.561 5.27747 122.647 5.29748Z" fill="#585857"/>
<path d="M122.434 6.24808C122.414 6.24474 122.401 6.22139 122.404 6.20138L122.574 5.44755C122.577 5.42754 122.601 5.4142 122.621 5.41753L123.388 5.59098C123.408 5.59432 123.421 5.61766 123.418 5.63768L123.248 6.39151C123.245 6.41152 123.221 6.42486 123.201 6.42153L122.434 6.24808Z" fill="#5E5E5D"/>
<path d="M123.958 5.591L124.726 5.76445C124.812 5.78446 124.869 5.87118 124.849 5.96124L124.679 6.71507C124.659 6.8018 124.572 6.8585 124.482 6.83849L123.715 6.66504C123.628 6.64503 123.571 6.5583 123.591 6.46824L123.762 5.71442C123.782 5.62769 123.872 5.57099 123.958 5.591Z" fill="#585857"/>
<path d="M123.745 6.5416C123.725 6.53826 123.712 6.51491 123.715 6.4949L123.885 5.74107C123.889 5.72106 123.912 5.70772 123.932 5.71105L124.699 5.8845C124.719 5.88783 124.732 5.91118 124.729 5.9312L124.559 6.68503C124.556 6.70504 124.532 6.71838 124.512 6.71505L123.745 6.5416Z" fill="#5E5E5D"/>
<path d="M125.269 5.88781L126.037 6.06126C126.123 6.08127 126.18 6.168 126.16 6.25806L125.99 7.01188C125.97 7.09861 125.883 7.15531 125.793 7.1353L125.026 6.96185C124.939 6.94184 124.882 6.85511 124.902 6.76506L125.076 6.01123C125.096 5.92117 125.183 5.8678 125.269 5.88781Z" fill="#585857"/>
<path d="M125.056 6.83824C125.036 6.83491 125.022 6.81156 125.026 6.79155L125.196 6.03772C125.199 6.0177 125.222 6.00436 125.242 6.0077L126.01 6.18114C126.03 6.18448 126.043 6.20783 126.04 6.22784L125.87 6.98167C125.866 7.00168 125.843 7.01503 125.823 7.01169L125.056 6.83824Z" fill="#5E5E5D"/>
<path d="M126.58 6.18139L127.347 6.35484C127.434 6.37485 127.491 6.46158 127.471 6.55164L127.3 7.30547C127.28 7.39219 127.194 7.44889 127.104 7.42888L126.337 7.25543C126.25 7.23542 126.193 7.1487 126.213 7.05864L126.383 6.30481C126.407 6.21809 126.493 6.16138 126.58 6.18139Z" fill="#585857"/>
<path d="M126.367 7.13199C126.347 7.12866 126.333 7.10531 126.337 7.08529L126.507 6.33146C126.51 6.31145 126.534 6.29811 126.554 6.30144L127.321 6.47489C127.341 6.47823 127.354 6.50158 127.351 6.52159L127.181 7.27542C127.177 7.29543 127.154 7.30877 127.134 7.30544L126.367 7.13199Z" fill="#5E5E5D"/>
<path d="M132.59 7.53224L127.884 6.47487C127.797 6.45486 127.714 6.50823 127.694 6.59495L127.51 7.40549C127.497 7.46552 127.534 7.52556 127.594 7.53891L132.344 8.60627C132.43 8.62629 132.52 8.56958 132.54 8.48286L132.71 7.72903C132.734 7.64231 132.68 7.55225 132.59 7.53224Z" fill="#585857"/>
<path d="M127.641 7.41876L127.821 6.62157C127.824 6.60489 127.844 6.59155 127.861 6.59822L132.567 7.65558C132.587 7.65892 132.6 7.68227 132.597 7.70228L132.427 8.45611C132.424 8.47612 132.4 8.48946 132.38 8.48613L127.641 7.41876Z" fill="#5E5E5D"/>
<path d="M133.138 7.65571L133.905 7.82916C133.992 7.84917 134.049 7.9359 134.029 8.02596L133.858 8.77979C133.838 8.86651 133.752 8.92321 133.662 8.9032L132.894 8.72975C132.808 8.70974 132.751 8.62302 132.771 8.53296L132.941 7.77913C132.961 7.6924 133.048 7.6357 133.138 7.65571Z" fill="#585857"/>
<path d="M132.924 8.60631C132.904 8.60297 132.891 8.57963 132.894 8.55961L133.064 7.80578C133.068 7.78577 133.091 7.77243 133.111 7.77576L133.878 7.94921C133.898 7.95255 133.912 7.9759 133.908 7.99591L133.738 8.74974C133.735 8.76975 133.711 8.78309 133.691 8.77976L132.924 8.60631Z" fill="#5E5E5D"/>
<path d="M134.449 7.95253L135.216 8.12597C135.302 8.14599 135.359 8.23271 135.339 8.32277L135.169 9.0766C135.149 9.16332 135.062 9.22003 134.972 9.20001L134.205 9.02656C134.118 9.00655 134.062 8.91983 134.082 8.82977L134.252 8.07594C134.272 7.98588 134.362 7.93251 134.449 7.95253Z" fill="#585857"/>
<path d="M134.235 8.90318C134.215 8.89985 134.202 8.8765 134.205 8.85649L134.375 8.10266C134.379 8.08265 134.402 8.0693 134.422 8.07264L135.189 8.24609C135.209 8.24942 135.223 8.27277 135.219 8.29278L135.049 9.04661C135.046 9.06662 135.022 9.07997 135.002 9.07663L134.235 8.90318Z" fill="#5E5E5D"/>
<path d="M135.759 8.24611L136.526 8.41955C136.613 8.43957 136.67 8.52629 136.65 8.61635L136.48 9.37018C136.46 9.4569 136.373 9.51361 136.283 9.49359L135.516 9.32014C135.429 9.30013 135.372 9.21341 135.392 9.12335L135.562 8.36952C135.582 8.2828 135.672 8.22609 135.759 8.24611Z" fill="#585857"/>
<path d="M135.546 9.1967C135.526 9.19337 135.513 9.17002 135.516 9.15L135.686 8.39618C135.689 8.37616 135.713 8.36282 135.733 8.36616L136.5 8.5396C136.52 8.54294 136.533 8.56629 136.53 8.5863L136.36 9.34013C136.356 9.36014 136.336 9.37349 136.313 9.37015L135.546 9.1967Z" fill="#5E5E5D"/>
<path d="M132.354 9.66023L128.504 8.79632C128.331 8.7563 128.158 8.86637 128.121 9.03982L127.657 11.0978C127.617 11.2713 127.727 11.4447 127.901 11.4814L131.75 12.3453C131.923 12.3853 132.097 12.2753 132.134 12.1018L132.597 10.0438C132.637 9.87036 132.527 9.70025 132.354 9.66023Z" fill="#EDEDED"/>
<path d="M132.384 9.53675L128.534 8.67285C128.294 8.61948 128.054 8.76958 128.001 9.00974L127.537 11.0678C127.484 11.3079 127.634 11.5481 127.874 11.6014L131.723 12.4653C131.963 12.5187 132.204 12.3686 132.257 12.1285L132.721 10.0704C132.774 9.83028 132.624 9.59345 132.384 9.53675ZM132.137 12.1018C132.097 12.2752 131.927 12.3853 131.753 12.3453L127.904 11.4814C127.731 11.4413 127.621 11.2712 127.661 11.0978L128.124 9.03976C128.164 8.86631 128.334 8.75624 128.508 8.79626L132.357 9.66016C132.53 9.70019 132.64 9.8703 132.6 10.0437L132.137 12.1018Z" fill="#9D9B9B"/>
<path d="M127.888 10.0838L127.661 11.0978C127.621 11.2712 127.731 11.4447 127.904 11.4813L131.754 12.3452C131.927 12.3853 132.1 12.2752 132.137 12.1017L132.364 11.0877L127.888 10.0838Z" fill="#DFDFDE"/>
<path d="M130.109 10.581L127.888 10.0806L127.661 11.0946C127.621 11.2681 127.731 11.4415 127.904 11.4782L129.812 11.9085L130.109 10.581Z" fill="#D9D9DA"/>
<path d="M135.386 25H132V42H135.386V25Z" fill="#9BA3FF"/>
<path d="M70.5 130C89.5538 130 105 127.314 105 124C105 120.686 89.5538 118 70.5 118C51.4462 118 36 120.686 36 124C36 127.314 51.4462 130 70.5 130Z" fill="#808AFF"/>
<path d="M64.6817 46.1561C64.6817 46.1561 63.3302 61.0966 68.9285 60.8716C74.9339 60.6269 73.3185 46.1561 73.3185 46.1561C72.5337 43.8237 72.221 42.4405 72.5727 39.9939H65.2809C65.6327 42.4405 65.4633 43.8237 64.6817 46.1561Z" fill="#FDBCA0"/>
<path d="M65.4274 42.884C66.2546 43.1319 67.0883 43.3603 67.9514 43.432C68.7688 43.5005 69.609 43.4484 70.4232 43.3603C71.1006 43.2852 71.8236 43.1645 72.501 42.9395C72.3935 42.0522 72.4098 41.1388 72.5759 39.9905H65.2841C65.4437 41.1159 65.4925 42.0163 65.4274 42.884Z" fill="#F0A38B"/>
<path d="M68.9283 42.0328C71.0094 42.0328 73.0122 41.2107 74.4778 39.7297C76.2234 37.9681 77.5912 36.0043 77.9918 33.698C78.5063 30.736 77.5065 27.7773 75.3245 25.3959H62.5288C60.3468 27.774 59.347 30.736 59.8616 33.698C60.2621 36.0043 61.6332 37.9681 63.3756 39.7297C64.8444 41.2074 66.8473 42.0328 68.9283 42.0328Z" fill="#FDBCA0"/>
<path d="M69.5635 47.8982C69.2997 48.1885 69.0522 48.5049 68.8177 48.8213C68.5344 48.6256 68.3097 48.3875 68.0622 48.1428C68.0394 48.12 67.9938 48.1428 68.0035 48.1754C68.1436 48.5604 68.4367 48.8735 68.7363 49.141C68.8014 49.1965 68.8926 49.203 68.9578 49.141C69.2737 48.8311 69.5831 48.469 69.8273 48.0972C69.9315 47.9438 69.6905 47.7579 69.5635 47.8982Z" fill="#DF8370"/>
<path d="M76.6046 47.3273C74.6603 47.4936 72.7421 47.8101 70.85 48.2929C70.736 48.3222 70.7848 48.4951 70.8988 48.469C72.7812 48.0515 74.6831 47.7676 76.6046 47.6372C76.8065 47.6241 76.8033 47.3109 76.6046 47.3273Z" fill="#DF8370"/>
<path d="M61.2491 47.3273C63.1934 47.4936 65.1116 47.8101 67.0037 48.2929C67.1177 48.3222 67.0689 48.4951 66.9549 48.469C65.0725 48.0515 63.1706 47.7676 61.2491 47.6372C61.0504 47.6241 61.0504 47.3109 61.2491 47.3273Z" fill="#DF8370"/>
<path d="M61.5844 20.4702C58.865 22.0295 56.9501 24.4858 56.9175 27.7871C56.8849 31.5092 61.4118 37.4365 61.3499 37.2897C59.8453 33.6687 59.4512 28.6842 63.2062 26.1887C63.5808 25.9407 64.0497 25.7972 64.3852 25.5069C64.3754 23.5398 63.2909 21.6347 61.5844 20.4702Z" fill="#3F4553"/>
<path d="M76.0049 20.4702C78.7243 22.0295 80.6392 24.4858 80.6718 27.7871C80.7044 31.5092 78.48 34.8203 76.2654 37.6322C76.8289 36.4056 78.1348 28.6809 74.3798 26.1887C74.0053 25.9407 73.5363 25.7972 73.2009 25.5069C73.2139 23.5398 74.3016 21.6347 76.0049 20.4702Z" fill="#424495"/>
<path d="M115.05 18.4999C112.973 17.4658 110.546 17.244 108.286 17.7039C107.192 17.9258 106.156 18.3139 105.169 18.8391C104.515 19.1849 103.85 19.6808 103.088 19.7395C102.163 19.808 101.353 19.2045 100.665 18.6695C98.5289 17.0058 96.3567 15.5477 93.608 15.1464C92.2793 14.9507 90.7942 15.0942 89.7651 15.9098C88.7099 14.5136 87.1369 13.5186 85.4043 13.1533C83.1116 12.6705 80.9328 13.3588 79.1319 14.7419C78.1158 14.2428 76.3376 13.5251 76.1129 13.4632C69.3389 11.5972 60.0898 16.3306 61.2882 24.313C62.3174 31.1733 70.99 34.344 76.9987 32.9348C78.2949 35.3912 81.4018 35.9621 83.7955 34.6833C83.9779 34.8236 84.1603 34.9638 84.3459 35.1009C88.166 37.9063 92.6115 39.7298 97.4119 38.9012C99.2357 38.5848 100.942 37.9259 102.512 36.9798C104.004 38.102 105.967 38.4576 107.775 37.5899C109.12 36.9472 110.022 35.7598 110.344 34.4158C110.367 34.4158 110.39 34.4158 110.413 34.4158C114.405 34.3669 118.639 32.3802 119.659 28.1884C120.587 24.3782 118.522 20.2256 115.05 18.4999Z" fill="#4E5567"/>
<path d="M96.8972 17.2571C98.2097 18.3303 98.988 19.8015 98.1706 21.4228C97.5062 22.744 96.311 23.7063 95.4415 24.8774C94.4221 26.2475 94.2462 28.0058 95.9169 29.0073C97.5616 29.9924 99.6231 28.7659 100.994 27.8362C102.688 26.6846 104.505 23.354 105.964 21.9252C112.445 15.5803 118.88 22.3623 118.906 22.3851C118.066 20.7345 116.724 19.335 115.05 18.4999C112.972 17.4658 110.546 17.244 108.286 17.704C107.192 17.9258 106.156 18.314 105.169 18.8392C104.515 19.185 103.85 19.6808 103.088 19.7395C102.163 19.8081 101.352 19.2046 100.665 18.6696C98.5288 17.0059 96.3566 15.5477 93.6079 15.1465C92.3085 14.9573 90.8592 15.0943 89.8334 15.8641C92.0707 14.9932 95.1028 15.7858 96.8972 17.2571Z" fill="#3F4553"/>
<path d="M114.158 33.3394C112.572 33.5254 111.087 33.4373 109.628 32.7881C108.999 34.4224 107.713 36.0731 105.895 36.3308C104.674 36.5037 103.231 36.122 102.981 34.8269C94.3959 41.8275 84.7722 34.0179 83.8441 32.5532C81.167 34.3017 77.7931 32.1683 76.7932 29.4379C74.7545 30.2306 72.4032 29.9859 70.4231 29.1345C66.7332 27.5524 64.688 23.1909 65.9777 19.3416C67.0524 16.1415 69.915 13.9526 73.0871 13.062C66.9026 13.0261 60.2621 17.4757 61.288 24.3131C62.3171 31.1734 70.9865 34.3442 76.9984 32.9349C78.2946 35.3913 81.4015 35.9622 83.7952 34.6834C83.9776 34.8237 84.16 34.964 84.3456 35.101C88.1657 37.9064 92.6112 39.7299 97.4116 38.9013C99.2354 38.5849 100.942 37.926 102.512 36.98C104.003 38.1021 105.967 38.4577 107.774 37.59C109.12 36.9473 110.022 35.7599 110.344 34.4159C110.367 34.4159 110.39 34.4159 110.412 34.4159C112.318 34.3931 114.275 33.9266 115.916 32.9936C115.34 33.1665 114.741 33.2709 114.158 33.3394Z" fill="#3F4553"/>
<path d="M66.642 35.4467C65.5022 35.6359 63.6491 35.6979 62.5972 34.5692C62.3887 34.3441 62.1054 34.5985 62.3659 34.8236C62.4083 34.8595 62.4506 34.8921 62.4929 34.9247C62.3692 34.9606 62.2389 34.9769 62.1021 34.9672C62.0989 34.9672 62.0989 34.9704 62.1021 34.9737C62.2682 35.0291 62.4376 35.0454 62.6037 35.0128C62.6069 35.0161 62.6102 35.0193 62.6135 35.0193C62.4702 35.114 62.2975 35.1531 62.1282 35.2086C62.1249 35.2086 62.1249 35.2118 62.1282 35.2151C62.3366 35.2346 62.5548 35.2086 62.7274 35.0976C62.747 35.1107 62.7665 35.1172 62.7861 35.1303C62.6558 35.2314 62.5092 35.3064 62.3431 35.3456C62.3269 35.3488 62.3301 35.3749 62.3464 35.3749C62.5581 35.3847 62.76 35.3325 62.9294 35.2151C62.9652 35.2346 63.0043 35.251 63.0401 35.2705C62.9196 35.3586 62.7958 35.4369 62.6558 35.5021C62.6428 35.5087 62.6493 35.5315 62.6623 35.5315C62.8479 35.538 63.0108 35.4434 63.1573 35.3325C63.2029 35.3553 63.2485 35.3717 63.2974 35.3912C63.2355 35.4532 63.1638 35.5119 63.0954 35.5706C63.0857 35.5804 63.0954 35.5935 63.1085 35.5935C63.2257 35.5641 63.3332 35.5152 63.4244 35.4467C64.4698 35.8773 65.6943 35.8903 66.743 35.5119C66.8537 35.4663 66.769 35.4271 66.642 35.4467Z" fill="#3F4553"/>
<path d="M71.3219 35.4467C72.4618 35.6359 74.3149 35.6979 75.3668 34.5692C75.5752 34.3441 75.8585 34.5985 75.598 34.8236C75.5557 34.8595 75.5133 34.8921 75.471 34.9247C75.598 34.9606 75.725 34.9769 75.8618 34.9672C75.8651 34.9672 75.8651 34.9704 75.8618 34.9737C75.6957 35.0291 75.5264 35.0454 75.3603 35.0128C75.357 35.0161 75.3538 35.0193 75.3505 35.0193C75.4938 35.114 75.6664 35.1531 75.8357 35.2086C75.839 35.2086 75.839 35.2118 75.8357 35.2151C75.6273 35.2346 75.4091 35.2086 75.2365 35.0976C75.217 35.1107 75.1974 35.1172 75.1779 35.1303C75.3082 35.2314 75.4547 35.3064 75.6208 35.3456C75.6371 35.3488 75.6338 35.3749 75.6175 35.3749C75.4059 35.3847 75.2039 35.3325 75.0346 35.2151C74.9988 35.2346 74.9597 35.251 74.9239 35.2705C75.0444 35.3586 75.1681 35.4369 75.3082 35.5021C75.3212 35.5087 75.3147 35.5315 75.3016 35.5315C75.116 35.538 74.9532 35.4434 74.8066 35.3325C74.761 35.3553 74.7154 35.3717 74.6698 35.3912C74.7317 35.4532 74.8034 35.5119 74.8718 35.5706C74.8815 35.5804 74.8718 35.5935 74.8587 35.5935C74.7415 35.5641 74.634 35.5152 74.5428 35.4467C73.4974 35.8773 72.2729 35.8903 71.221 35.5119C71.1135 35.4663 71.1949 35.4271 71.3219 35.4467Z" fill="#3F4553"/>
<path d="M69.7001 37.8248C69.166 38.1021 68.6352 38.213 68.0848 37.8803C68.0457 37.8575 68.0001 37.9129 68.0359 37.9455C68.5082 38.3664 69.3484 38.474 69.8206 37.9814C69.8988 37.8966 69.8011 37.7726 69.7001 37.8248Z" fill="#3F4553"/>
<path d="M70.9213 39.7493C70.2536 39.9483 69.5958 40.0233 68.9444 39.994C68.2931 40.0233 67.6352 39.9483 66.9676 39.7493C66.9513 39.7428 66.9383 39.7721 66.9546 39.7787C67.5961 40.0527 68.2703 40.1995 68.9444 40.2158C69.6186 40.1995 70.2927 40.0527 70.9343 39.7787C70.9506 39.7721 70.9375 39.7461 70.9213 39.7493Z" fill="#3F4553"/>
<path d="M65.883 37.0451C65.8277 37.019 65.7691 36.9962 65.7104 36.9799C64.9647 36.7874 64.0821 36.4221 63.3037 36.5558C62.7533 36.6504 62.6263 37.3192 62.939 37.7139C63.2744 38.138 63.9323 38.2587 64.4403 38.2978C64.9516 38.337 65.7528 38.3924 66.1338 37.9912C66.479 37.6291 66.2445 37.2213 65.883 37.0451Z" fill="#FBAD8B"/>
<path d="M71.9794 37.0451C72.0348 37.019 72.0934 36.9962 72.1521 36.9799C72.8978 36.7874 73.7804 36.4221 74.5588 36.5558C75.1092 36.6504 75.2362 37.3192 74.9235 37.7139C74.5881 38.138 73.9302 38.2587 73.4222 38.2978C72.9109 38.337 72.1097 38.3924 71.7287 37.9912C71.3835 37.6291 71.6212 37.2213 71.9794 37.0451Z" fill="#FBAD8B"/>
<path d="M59.0931 32.1616C58.3213 32.0475 57.494 32.3671 57.6341 33.2838C57.7448 34.0145 58.5297 34.742 59.7282 34.5234C59.4025 33.7666 59.1778 32.9706 59.0931 32.1616Z" fill="#F9CDB9"/>
<path d="M58.3472 32.8794C58.5589 32.7032 58.8879 32.625 59.1712 32.6706C59.1549 32.5826 59.1451 32.4912 59.1321 32.4031C58.7446 32.3672 58.2886 32.5271 58.0672 32.8076C57.7219 33.248 57.9825 33.7373 58.3635 34.0375C58.4189 34.0831 58.497 34.0114 58.4449 33.9559C58.1681 33.6623 57.976 33.1893 58.3472 32.8794Z" fill="#F8C4AB"/>
<path d="M59.3244 33.3686C59.1225 33.1859 58.8587 33.0848 58.5558 33.0979C58.4874 33.1011 58.4614 33.2153 58.5395 33.2251C58.8163 33.2642 59.0541 33.4078 59.2006 33.6296C59.0313 33.7209 58.9075 33.9199 59.0801 34.083C59.2169 34.2135 59.4188 34.2429 59.611 34.2233C59.5035 33.9427 59.4025 33.6589 59.3244 33.3686Z" fill="#F8C4AB"/>
<path d="M59.0248 34.3114C59.0216 34.3081 59.0151 34.3114 59.0183 34.3146C59.1421 34.6213 59.318 35.339 58.8946 35.4857C58.6112 35.5836 58.5852 35.2183 58.6275 35.0258C58.6666 34.8496 58.7643 34.667 58.8457 34.5104C58.8457 34.5104 58.6503 34.468 58.4712 34.3766C58.2269 34.5854 58.139 34.8953 58.1814 35.2215C58.2204 35.5184 58.4093 35.8446 58.7448 35.8544C59.0444 35.8642 59.2593 35.6064 59.3049 35.3324C59.357 34.9769 59.2137 34.6017 59.0248 34.3114Z" fill="#FDCA27"/>
<path d="M121.345 90.4917C119.515 88.3094 115.555 88.1332 112.956 87.8625C105.143 87.0469 97.1316 87.2492 89.3155 87.882C85.4237 88.1985 81.5514 88.6715 77.6955 89.2945C74.9044 89.748 71.7878 90.0644 69 90.9582C66.2122 90.0644 63.0955 89.7447 60.3045 89.2945C56.4518 88.6682 52.5763 88.1952 48.6845 87.882C40.8684 87.2492 32.8536 87.0469 25.0439 87.8625C22.4483 88.1332 18.4849 88.3094 16.6546 90.4917C14.8862 92.5991 17.0682 95.1533 18.7487 96.494C21.0707 98.3469 24.0181 99.2603 26.8319 100.06C30.3654 101.058 33.9804 101.736 37.6149 102.252C53.8823 104.548 62.7145 102.855 71.2178 102.751C71.5435 103.165 71.8496 103.596 72.1297 104.043C80.7503 104.098 91.8231 103.41 100.382 102.252C104.02 101.759 107.631 101.061 111.165 100.06C113.982 99.2636 116.926 98.3502 119.248 96.494C120.929 95.1533 123.111 92.5991 121.345 90.4917Z" fill="#93BFA8"/>
<path d="M109.803 92.0022C110.074 91.6564 111.712 91.2291 112.357 90.942C109.318 91.1867 106.267 91.552 103.235 91.8652C97.467 92.4589 91.6928 93.9889 86.228 95.9037C83.6129 96.8204 81.0042 97.7827 78.4054 98.7483C76.3471 99.5116 74.3117 100.347 72.3804 101.387C72.6768 101.296 72.9732 101.205 73.2695 101.117C76.3504 100.21 88.9051 93.4082 112.152 92.5698C111.614 92.4524 109.699 92.136 109.803 92.0022Z" fill="#66A986"/>
<path d="M28.5384 91.5225C28.2681 91.1768 26.6299 90.7494 25.9851 90.4623C29.0236 90.707 32.0752 91.0724 35.1072 91.3855C40.8749 91.9792 46.649 93.5092 52.1138 95.424C54.729 96.3407 57.3376 97.303 59.9365 98.2686C61.9948 99.0319 64.0302 99.8671 65.9614 100.908C65.6651 100.816 65.3687 100.725 65.0724 100.637C61.9915 99.73 49.4368 92.9285 26.1903 92.0901C26.7244 91.9727 28.6393 91.6563 28.5384 91.5225Z" fill="#66A986"/>
<path d="M76.8585 98.7353C75.5493 98.2101 74.1652 98.197 72.8918 98.7418C70.7163 99.678 68.0491 98.2427 65.7889 98.5004C63.7079 98.7385 62.441 101.11 64.0335 102.624C64.4178 102.989 68.2803 104.392 74.3997 101.534C75.0706 101.221 75.7252 101.042 76.484 101.051C76.6599 101.055 76.826 101.221 77.0116 101.201C77.4089 101.153 77.7346 101.081 77.9561 100.696C78.4771 99.7889 77.6076 99.0354 76.8585 98.7353Z" fill="#FDB597"/>
<path d="M61.5844 103.547C62.6884 102.669 64.0139 102.258 65.385 102.418C67.7363 102.692 69.8825 100.552 72.1231 100.151C74.1846 99.7824 76.0768 101.691 74.9825 103.602C74.7187 104.062 71.4164 106.512 64.7369 105.527C64.0041 105.419 63.3267 105.436 62.6037 105.661C62.4376 105.713 62.3236 105.922 62.138 105.954C61.7439 106.023 61.4117 106.046 61.0893 105.742C60.3338 105.021 60.9526 104.049 61.5844 103.547Z" fill="#FDBCA0"/>
<path d="M105.967 49.9565C105.214 50.3447 104.423 50.7818 103.684 51.1896C104.075 50.8699 106.244 48.6582 107.087 48.1134C107.178 48.0547 106.963 47.1576 104.745 48.9322C104.084 49.4607 103.303 49.9956 102.681 50.573C103.472 49.0692 104.133 47.5458 105.169 46.1692C105.211 46.1137 105.198 46.0517 105.162 46.0093C104.951 45.843 104.42 46.0322 104.182 46.2866C103.759 46.7368 102.15 48.4788 101.368 50.3153C101.381 49.6857 101.326 48.6647 100.88 48.4559C100.6 48.3222 100.134 48.4983 99.8343 48.5212C99.2448 48.5636 98.473 48.6484 97.9226 48.4135C97.8412 48.3809 97.636 48.3548 97.7109 48.6256C97.9617 49.5128 99.1992 49.6238 99.9678 49.8195C100.228 50.4523 99.4956 51.4897 99.0332 51.8029C98.2809 52.315 97.1833 51.8126 97.3722 50.8079C97.5383 49.9239 98.0659 49.5226 97.6002 48.6549C97.4471 48.3678 96.7893 48.1069 96.9358 48.5701C97.3136 49.7542 96.2291 50.7492 96.0891 51.8942C95.9784 52.8011 96.4571 53.6068 96.9391 54.3343C96.9098 54.4093 96.887 54.4843 96.8609 54.5561C96.2063 55.6913 95.6983 56.8885 95.3303 58.1412C96.1705 58.4185 98.6391 58.2423 98.6293 58.2227C98.6391 58.2423 98.9257 56.4873 99.5835 55.7468C100.303 54.9345 101.209 54.3082 102.075 53.6688C103.895 52.3215 105.745 51.0134 107.621 49.7412C107.729 49.6727 107.641 49.092 105.967 49.9565Z" fill="#FDBCA0"/>
<path d="M32.2314 49.9565C32.9837 50.3447 33.7751 50.7818 34.5144 51.1896C34.1236 50.8699 31.9546 48.6582 31.1111 48.1134C31.0199 48.0547 31.2349 47.1576 33.4527 48.9322C34.1138 49.4607 34.8954 49.9956 35.5175 50.573C34.7261 49.0692 34.065 47.5458 33.0293 46.1692C32.987 46.1137 33 46.0517 33.0358 46.0093C33.2475 45.843 33.7784 46.0322 34.0161 46.2866C34.4395 46.7368 36.0483 48.4788 36.8299 50.3153C36.8169 49.6857 36.8723 48.6647 37.3184 48.4559C37.5985 48.3222 38.0642 48.4983 38.3638 48.5212C38.9533 48.5636 39.7251 48.6484 40.2755 48.4135C40.357 48.3809 40.5621 48.3548 40.4872 48.6256C40.2365 49.5128 38.9989 49.6238 38.2303 49.8195C37.9698 50.4523 38.7025 51.4897 39.165 51.8029C39.9173 52.315 41.0148 51.8126 40.8259 50.8079C40.6598 49.9239 40.1322 49.5226 40.598 48.6549C40.751 48.3678 41.4089 48.1069 41.2623 48.5701C40.8845 49.7542 41.969 50.7492 42.1091 51.8942C42.2198 52.8011 41.7411 53.6068 41.2591 54.3343C41.2884 54.4093 41.3112 54.4843 41.3372 54.5561C41.9918 55.6913 42.4999 56.8885 42.8679 58.1412C42.0277 58.4185 39.5591 58.2423 39.5688 58.2227C39.5591 58.2423 39.2725 56.4873 38.6146 55.7468C37.8949 54.9345 36.9895 54.3082 36.1232 53.6688C34.3027 52.3215 32.4529 51.0134 30.577 49.7412C30.4695 49.6727 30.5575 49.092 32.2314 49.9565Z" fill="#FDBCA0"/>
<path d="M94.4514 56.9864C93.2301 60.1409 89.0876 71.7867 87.3583 76.7256C86.3291 74.0833 83.5479 62.6104 81.2063 49.2911C80.4768 45.1514 75.8164 45.7419 73.3218 46.1562C73.1426 48.9355 70.4493 56.6407 69.0033 56.657C67.5574 56.6407 64.6914 49.4803 64.6849 46.1562C62.1935 45.7419 57.5299 45.1514 56.8004 49.2911C54.4555 62.6104 51.6776 74.0865 50.6484 76.7256C48.9158 71.7867 44.7765 60.1409 43.5553 56.9864C41.9888 57.7269 40.2562 58.1347 38.5269 58.2358C39.8654 61.8013 44.2848 87.0502 50.7982 87.0502C53.6218 87.0502 55.4098 84.0458 58.2887 72.9154C58.432 74.7748 58.4809 78.3469 58.4092 82.1016C58.3571 84.8059 56.491 87.931 53.9931 87.3275C53.4883 87.2068 52.8304 87.5885 53.4557 88.267C53.6251 88.4529 53.8433 88.5899 54.068 88.6943C58.0575 90.5864 58.2138 93.4146 60.5684 95.062C61.9916 96.057 63.7437 96.3701 65.4144 96.7094C67.2252 97.0747 69.0913 97.3488 70.9346 97.0715C73.9992 96.6115 76.3798 94.5596 78.9168 92.9547C80.3335 92.0576 81.773 91.3399 83.4372 91.0953C87.7198 90.4657 87.4364 87.4384 86.5408 87.5004C83.5414 87.7059 79.591 83.8762 79.5682 79.6615C79.5519 76.8561 79.6072 74.3671 79.718 72.9154C82.5969 84.0458 84.3849 87.0502 87.2085 87.0502C93.7219 87.0502 98.1413 61.8013 99.4798 58.2358C97.7505 58.1347 96.0179 57.7237 94.4514 56.9864Z" fill="#F2EDE4"/>
<path d="M77.2203 68.0124C77.1877 68.0352 77.1616 68.0581 77.1356 68.0809C76.6047 68.5996 76.1911 69.2226 75.67 69.7511C75.149 70.2763 74.4748 70.7167 73.7355 70.7134C71.9606 70.7036 71.0715 68.5702 70.0033 67.4839C68.3619 65.8202 66.7694 69.6108 65.5481 70.3546C64.2943 71.1179 63.4443 70.658 62.5194 69.7544C61.9527 69.1998 61.4707 68.5767 60.9464 67.983C60.8096 67.8264 60.4969 67.9928 60.5816 68.1951C61.1939 69.6695 62.578 72.1161 64.405 72.1553C65.5253 72.1781 66.4437 71.5355 67.1797 70.746C67.5412 70.3579 68.5378 68.2734 69.1859 68.5474C69.3064 68.5996 69.3911 68.7072 69.4725 68.8116C69.7949 69.2357 70.0945 69.6826 70.4397 70.0871C70.6189 70.2959 71.1367 70.6417 71.1367 70.9287C71.8694 71.6758 72.8758 72.2629 73.9147 72.1357C74.9764 72.0052 75.8166 71.1734 76.4321 70.2959C76.8685 69.6728 77.2365 69.0008 77.5264 68.2962C77.5687 68.1951 77.6045 68.0678 77.5296 67.9863C77.4482 67.9015 77.3245 67.9406 77.2203 68.0124Z" fill="#D9C9AC"/>
<path d="M136.99 84.9552L148.135 81.2196L142.548 64.8198L131.403 68.5555C130.966 68.7012 130.729 69.1707 130.88 69.6038L135.933 84.4331C136.08 84.8662 136.553 85.101 136.99 84.9552Z" fill="#3F4553"/>
<path d="M136.998 84.6315L148.421 80.8027L143.038 65.006L131.615 68.8348C131.333 68.9279 131.182 69.2314 131.276 69.5147L136.312 84.2956C136.41 84.5748 136.716 84.7246 136.998 84.6315Z" fill="#DDDDE3"/>
<path d="M137.239 84.5507L148.662 80.7219L143.279 64.9252L131.856 68.754C131.574 68.8471 131.423 69.1506 131.517 69.4339L136.553 84.2147C136.651 84.494 136.957 84.6478 137.239 84.5507Z" fill="#E2E5FF"/>
<path d="M137.855 84.6638L149 80.9281L143.413 64.5324L132.268 68.2681C131.831 68.4138 131.594 68.8833 131.745 69.3164L136.798 84.1458C136.945 84.5788 137.418 84.8095 137.855 84.6638Z" fill="#4E5567"/>
<path d="M119.338 69.0902L126.84 60.2699L125.323 59.0017L117.822 67.8221L119.338 69.0902Z" fill="#3F4553"/>
<path d="M117.821 67.8191L119.335 69.0859L117.147 70.2799C117.074 70.3203 116.976 70.2353 117 70.1584L117.821 67.8191Z" fill="#F2EDE4"/>
<path d="M117.151 70.2838L117.743 69.96L117.229 69.5269L117.009 70.1583C116.98 70.2352 117.078 70.3202 117.151 70.2838Z" fill="#3F4553"/>
<path d="M118.836 68.6701L126.337 59.8497L125.822 59.4192L118.321 68.2395L118.836 68.6701Z" fill="#4E5567"/>
<path d="M14.8077 65.6373C13.9108 61.8458 10.1193 59.5074 6.34827 60.4079C2.57212 61.3085 0.243236 65.1154 1.14014 68.9018C1.77204 71.5626 3.83084 73.5069 6.3075 74.1158C6.45019 74.4945 6.71519 76.7919 7.18912 77.5287C7.40315 77.8613 7.67324 77.9176 8.08602 77.8306C8.41726 79.0126 9.80338 80.0974 10.9449 79.9899C11.745 79.9132 12.3259 79.3606 12.5858 78.6186C12.7896 78.0404 12.9527 77.3752 13.0546 76.7305C13.605 76.7152 13.87 76.6589 13.8445 76.1421C13.7987 75.2467 12.8304 72.7804 12.7947 72.4017C14.5529 70.7285 15.409 68.1804 14.8077 65.6373Z" fill="#FDFFFC"/>
<path d="M11.1538 65.3816C11.0468 64.9978 10.6697 64.742 10.2722 64.8392C9.90019 64.9262 9.61991 65.3407 9.73202 65.7244C9.79827 65.9598 9.97153 66.1491 10.1805 66.2361C10.0276 67.2288 9.83394 68.2061 9.7524 69.209C9.67596 70.1402 9.59952 71.051 9.39568 71.9567C8.28984 70.2937 7.1891 68.6359 5.97115 67.0548C6.30749 66.7324 6.05269 66.011 5.48703 66.144C4.81945 66.3026 5.06406 67.3465 5.73674 67.1878C5.74183 67.1878 5.74693 67.1827 5.75203 67.1776C7.01584 68.9736 8.25417 70.7952 9.28357 72.7396C9.39568 72.9493 9.70144 72.9033 9.77279 72.6884C10.1091 71.6855 10.2059 70.6621 10.2773 69.6132C10.3588 68.4824 10.578 67.372 10.6697 66.2463C11.0111 66.1338 11.2557 65.7449 11.1538 65.3816Z" fill="#AEB4FC"/>
<path d="M11.9691 53.347C11.6022 53.6693 11.378 54.181 11.1487 54.6108C10.9092 55.0611 10.6951 55.5216 10.4913 55.9872C10.3282 56.3659 10.955 56.5654 11.113 56.1766C11.3016 55.7007 11.5054 55.2402 11.7398 54.7848C11.9386 54.3908 12.229 54.007 12.3462 53.5823C12.4125 53.3521 12.1373 53.1935 11.9691 53.347Z" fill="#808AFF"/>
</svg>
