<svg width="110" height="110" viewBox="0 0 110 110" fill="none" xmlns="http://www.w3.org/2000/svg">
<g opacity="0.3">
<path d="M55 55.0126V109.524C24.8979 109.524 0.476318 85.1147 0.476318 55.0126C0.476318 47.5955 1.95228 40.5258 4.64374 34.0887V55.0126H55Z" fill="#BABCC6"/>
<path d="M109.524 55.0127C109.524 85.1149 85.1146 109.524 55 109.524V55.0127H109.524Z" fill="#BABCC6"/>
<path d="M109.524 55.0126H55V0.488892C85.1146 0.488892 109.524 24.898 109.524 55.0126Z" fill="#BABCC6"/>
<path d="M55.0003 0.488892V55.0126H4.64404V34.0887C12.8424 14.3555 32.3152 0.488892 55.0003 0.488892Z" fill="#BABCC6"/>
</g>
<path d="M55.0004 55.0114V98.9614C30.7304 98.9614 11.0404 79.2814 11.0404 55.0114C11.0404 49.0314 12.2304 43.3314 14.4004 38.1414V55.0114H55.0004Z" fill="#3F414E"/>
<path d="M98.9605 55.0114C98.9605 79.2814 79.2805 98.9614 55.0005 98.9614V55.0114H98.9605Z" fill="#3F414E"/>
<path d="M98.9605 55.0114H55.0005V11.0514C79.2805 11.0514 98.9605 30.7314 98.9605 55.0114Z" fill="#3F414E"/>
<path d="M55.0004 11.0514V55.0114H14.4004V38.1414C21.0104 22.2314 36.7104 11.0514 55.0004 11.0514Z" fill="#3F414E"/>
<rect x="45.0106" y="42.5484" width="6.81957" height="24.9159" rx="3.40979" fill="#FBFBFB"/>
<rect x="58.1709" y="42.5484" width="6.81957" height="24.9159" rx="3.40979" fill="#FBFBFB"/>
</svg>
