<svg width="408" height="504" viewBox="0 0 408 504" fill="none" xmlns="http://www.w3.org/2000/svg">
<g clip-path="url(#clip0_1_3662)">
<path d="M3 -1V381.053C3 381.053 35.2351 449.788 118.112 441.811C200.989 433.835 218.177 390.876 318.243 470.049C318.243 470.049 353.543 503.185 418 501.967V-1H3Z" fill="#FAF8F5"/>
<path d="M405.149 504C352.355 504 321.072 479.662 320.738 479.381C258.185 430.238 219.838 439.61 166.778 452.6C152.705 456.045 138.138 459.609 121.529 462.6C40.3493 477.232 0.400556 434.67 0 434.23L0.988037 433.335C1.37524 433.762 40.8967 475.777 121.275 461.291C137.858 458.301 152.385 454.75 166.444 451.305C219.878 438.235 258.478 428.796 321.553 478.34C321.94 478.647 359.899 508.152 422.853 501.757L422.987 503.079C416.805 503.72 410.85 504 405.149 504Z" fill="#F9F0E3"/>
</g>
<defs>
<clipPath id="clip0_1_3662">
<rect width="423" height="504" fill="white"/>
</clipPath>
</defs>
</svg>
