<svg width="40" height="41" viewBox="0 0 40 41" fill="none" xmlns="http://www.w3.org/2000/svg">
<path d="M15.1203 1.49209L10.7939 8.98561L18.2874 13.312M5.53527 18.5553C5.0179 21.8004 5.62429 25.1248 7.25406 27.9783C8.88382 30.8317 11.4392 33.043 14.4972 34.246C17.5551 35.449 20.9322 35.5716 24.0693 34.5935C27.2064 33.6154 29.9154 31.5952 31.7478 28.8674C33.5801 26.1397 34.426 22.8679 34.1453 19.5939C33.8645 16.3198 32.4741 13.2398 30.2041 10.8638C27.9341 8.48781 24.9208 6.95828 21.663 6.52847C18.4051 6.09867 15.0982 6.79435 12.2897 8.50036" stroke="#A0A3B1" stroke-width="2" stroke-linecap="round" stroke-linejoin="round"/>
<path d="M12.7686 19.5803V18.5003C13.3926 18.5083 13.9206 18.4043 14.3526 18.1883C14.8326 17.9403 15.1206 17.5803 15.2166 17.1083H16.3326V25.5083H14.8326V19.5803H12.7686ZM19.3765 21.7043L20.2765 17.1083H24.6205V18.3323H21.2965L20.8645 20.4683L20.8885 20.4923C21.2725 20.0683 21.7885 19.8563 22.4365 19.8563C23.2525 19.8563 23.9005 20.1243 24.3805 20.6603C24.8365 21.1723 25.0645 21.8403 25.0645 22.6643C25.0645 23.4403 24.8405 24.1083 24.3925 24.6683C23.8565 25.3403 23.1125 25.6763 22.1605 25.6763C21.3205 25.6763 20.6365 25.4603 20.1085 25.0283C19.5485 24.5723 19.2525 23.9363 19.2205 23.1203H20.5885C20.6285 23.5683 20.7845 23.9163 21.0565 24.1643C21.3285 24.4123 21.6885 24.5363 22.1365 24.5363C23.1765 24.5363 23.6965 23.9203 23.6965 22.6883C23.6965 22.1923 23.5685 21.7843 23.3125 21.4643C23.0245 21.1123 22.6205 20.9363 22.1005 20.9363C21.3885 20.9363 20.9365 21.1923 20.7445 21.7043H19.3765Z" fill="#A0A3B1"/>
</svg>
