<svg width="40" height="41" viewBox="0 0 40 41" fill="none" xmlns="http://www.w3.org/2000/svg">
<path d="M24.88 1.49209L29.2063 8.98561L21.7128 13.312M34.465 18.5553C34.9823 21.8004 34.376 25.1248 32.7462 27.9783C31.1164 30.8317 28.561 33.043 25.5031 34.246C22.4452 35.449 19.0681 35.5716 15.9309 34.5935C12.7938 33.6154 10.0848 31.5952 8.25246 28.8674C6.42009 26.1397 5.57425 22.8679 5.85497 19.5939C6.1357 16.3198 7.52615 13.2398 9.79612 10.8638C12.0661 8.48781 15.0794 6.95828 18.3373 6.52847C21.5951 6.09867 24.9021 6.79435 27.7106 8.50036" stroke="#A0A3B1" stroke-width="2" stroke-linecap="round" stroke-linejoin="round"/>
<path d="M12.5903 19.5803V18.5003C13.2143 18.5083 13.7423 18.4043 14.1743 18.1883C14.6543 17.9403 14.9423 17.5803 15.0383 17.1083H16.1543V25.5083H14.6543V19.5803H12.5903ZM19.1983 21.7043L20.0983 17.1083H24.4423V18.3323H21.1183L20.6863 20.4683L20.7103 20.4923C21.0943 20.0683 21.6103 19.8563 22.2583 19.8563C23.0743 19.8563 23.7223 20.1243 24.2023 20.6603C24.6583 21.1723 24.8863 21.8403 24.8863 22.6643C24.8863 23.4403 24.6623 24.1083 24.2143 24.6683C23.6783 25.3403 22.9343 25.6763 21.9823 25.6763C21.1423 25.6763 20.4583 25.4603 19.9303 25.0283C19.3703 24.5723 19.0743 23.9363 19.0423 23.1203H20.4103C20.4503 23.5683 20.6063 23.9163 20.8783 24.1643C21.1503 24.4123 21.5103 24.5363 21.9583 24.5363C22.9983 24.5363 23.5183 23.9203 23.5183 22.6883C23.5183 22.1923 23.3903 21.7843 23.1343 21.4643C22.8463 21.1123 22.4423 20.9363 21.9223 20.9363C21.2103 20.9363 20.7583 21.1923 20.5663 21.7043H19.1983Z" fill="#A0A3B1"/>
</svg>
