<svg width="121" height="104" viewBox="0 0 121 104" fill="none" xmlns="http://www.w3.org/2000/svg">
<path d="M41.5685 8.32767C40.6329 8.79014 39.7097 9.31158 38.9754 10.0534C38.2629 10.7735 37.761 11.6674 37.2746 12.5551C36.4133 14.1318 35.552 15.9693 36.1685 17.6547C36.5744 18.7628 37.572 19.576 38.6749 19.995C39.7778 20.4109 40.9768 20.4792 42.1541 20.4637C45.7231 20.4171 49.2797 19.6349 52.542 18.1855C53.5241 17.7478 54.4907 17.245 55.3055 16.5435C56.1327 15.8327 56.7895 14.9326 57.2883 13.9611C58.1589 12.2664 58.509 10.0565 57.341 8.54804C56.5076 7.47101 55.1135 7.02095 53.7813 6.75092C49.4935 5.88184 45.5 6.38156 41.5685 8.32767Z" fill="#808AFF"/>
<path d="M90.8533 66.5956C90.9958 66.4683 91.1662 66.3721 91.3397 66.2914C91.8788 66.0338 92.5046 65.8755 93.0716 66.0617C93.1242 66.0773 93.1738 66.099 93.2141 66.1393C93.2513 66.1766 93.2698 66.2293 93.2791 66.279C93.3132 66.4745 93.2079 66.6639 93.0933 66.8222C92.7432 67.2971 92.2289 67.6354 91.6681 67.7968C91.3459 67.8899 90.1965 68.1258 90.3328 67.5174C90.4041 67.1791 90.5931 66.8253 90.8533 66.5956Z" fill="#565D70"/>
<path d="M92.8885 78.8434C92.8358 78.8434 92.7894 78.8031 92.7832 78.7472C92.7801 78.7099 92.5353 74.9729 94.3013 71.8908C94.3291 71.8411 94.3942 71.8256 94.4438 71.8536C94.4933 71.8815 94.5119 71.9467 94.4809 71.9963C92.746 75.0195 92.9876 78.6975 92.9907 78.7348C92.9938 78.7906 92.9505 78.8434 92.8947 78.8465C92.8947 78.8434 92.8916 78.8434 92.8885 78.8434Z" fill="#D9C9AC"/>
<path d="M95.2275 74.7306C95.1841 74.7306 95.1407 74.7026 95.1283 74.6592C95.1097 74.6033 95.1407 74.5444 95.1965 74.5288C95.2337 74.5164 98.8399 73.3742 99.8932 72.0985C99.9304 72.0551 99.9955 72.0489 100.039 72.0861C100.082 72.1234 100.088 72.1885 100.051 72.232C98.9576 73.5542 95.4072 74.6809 95.2554 74.7275C95.2492 74.7275 95.2399 74.7306 95.2275 74.7306Z" fill="#D9C9AC"/>
<path d="M91.5099 82.5861C91.2466 82.5861 91.0948 82.5427 91.0731 82.5364C91.0173 82.5178 90.9894 82.4619 91.0049 82.4061C91.0235 82.3502 91.0793 82.3192 91.135 82.3378C91.1505 82.3409 92.6934 82.7785 94.9178 80.5096C94.9581 80.4693 95.0232 80.4662 95.0634 80.5096C95.1037 80.55 95.1037 80.6152 95.0634 80.6555C93.4245 82.3285 92.145 82.5861 91.5099 82.5861Z" fill="#D9C9AC"/>
<path d="M89.3202 98.7603C89.3109 98.7603 89.3016 98.7603 89.2955 98.7572C89.2397 98.7417 89.2056 98.6858 89.2211 98.63C89.2738 98.4251 90.544 93.5738 92.8955 92.4533C92.9481 92.4285 93.0101 92.4502 93.0349 92.503C93.0597 92.5558 93.038 92.6178 92.9853 92.6427C90.7237 93.7228 89.438 98.6331 89.4256 98.6827C89.4101 98.7293 89.3667 98.7603 89.3202 98.7603Z" fill="#D9C9AC"/>
<path d="M94.4971 98.016C94.3267 98.016 94.1687 97.9881 94.0262 97.9291C93.4375 97.6932 93.3074 97.0693 93.3012 97.0414C93.2888 96.9855 93.326 96.9296 93.3818 96.9203C93.4406 96.9079 93.4933 96.9451 93.5057 97.001C93.5057 97.0072 93.6203 97.5442 94.1067 97.7366C94.6117 97.9353 95.3615 97.7025 96.2785 97.0538C96.325 97.0196 96.39 97.0321 96.4241 97.0786C96.4582 97.1252 96.4458 97.1904 96.3993 97.2245C95.6496 97.7491 95.0145 98.016 94.4971 98.016Z" fill="#D9C9AC"/>
<path d="M108.029 68.416C107.478 68.416 106.926 68.208 106.517 67.8356C106.05 67.4103 105.774 66.7771 105.783 66.1409C105.786 65.8957 105.833 65.6753 105.913 65.4797C106.108 65.0142 106.548 64.6572 107.063 64.5486C107.524 64.4524 108.026 64.5517 108.441 64.8217C108.683 64.9769 108.751 65.2997 108.593 65.5418C108.435 65.7839 108.113 65.8522 107.874 65.6939C107.692 65.576 107.465 65.5263 107.276 65.5666C107.094 65.6039 106.936 65.728 106.871 65.8832C106.84 65.9546 106.824 66.0477 106.821 66.1564C106.815 66.4947 106.964 66.833 107.214 67.0627C107.465 67.2924 107.819 67.4041 108.153 67.3669C108.265 67.3545 108.351 67.3265 108.407 67.2862C108.544 67.19 108.568 66.9013 108.46 66.684C108.333 66.4264 108.435 66.1129 108.692 65.9857C108.949 65.8553 109.262 65.9608 109.389 66.2185C109.681 66.8051 109.65 67.6742 109.014 68.1304C108.813 68.2763 108.562 68.3663 108.271 68.3973C108.19 68.4129 108.11 68.416 108.029 68.416Z" fill="#E9F2DE"/>
<path d="M107.416 70.7652C107.363 70.7652 107.311 70.7559 107.258 70.7403C106.985 70.6534 106.834 70.3586 106.92 70.0854C107.394 68.5987 106.335 67.6303 106.322 67.621C106.109 67.4286 106.09 67.0996 106.279 66.8854C106.468 66.6712 106.796 66.6526 107.013 66.8419C107.078 66.9009 108.584 68.2759 107.909 70.402C107.841 70.6224 107.636 70.7652 107.416 70.7652Z" fill="#E9F2DE"/>
<path d="M108.763 71.0566C108.695 71.0566 108.624 71.0442 108.559 71.0132C108.295 70.8983 108.175 70.5942 108.286 70.3272C108.608 69.5823 108.134 68.5146 107.924 68.1639C107.775 67.9186 107.852 67.599 108.097 67.45C108.342 67.301 108.661 67.3786 108.81 67.6238C108.853 67.6921 109.841 69.3433 109.24 70.74C109.154 70.9387 108.965 71.0566 108.763 71.0566Z" fill="#E9F2DE"/>
<path d="M56.1853 104C65.1632 104 72.4411 103.109 72.4411 102.011C72.4411 100.912 65.1632 100.021 56.1853 100.021C47.2075 100.021 39.9296 100.912 39.9296 102.011C39.9296 103.109 47.2075 104 56.1853 104Z" fill="#808AFF"/>
<path d="M27.0012 99.5948C19.5905 99.5948 12.3905 95.327 12.3161 95.2836C12.2666 95.2556 12.2511 95.1904 12.279 95.1408C12.3099 95.0911 12.3719 95.0756 12.4215 95.1035C12.502 95.1501 20.4425 99.8555 28.1908 99.3465C28.2466 99.3465 28.2962 99.3868 28.3024 99.4427C28.3055 99.4986 28.2621 99.5482 28.2063 99.5544C27.8067 99.5824 27.4039 99.5948 27.0012 99.5948Z" fill="#D9C9AC"/>
<path d="M37.6806 96.4265C36.7698 96.4265 36.3484 96.023 36.3237 95.9982C36.2834 95.9578 36.2834 95.8927 36.3237 95.8492C36.3639 95.8089 36.429 95.8089 36.4693 95.8492C36.4786 95.8585 37.3522 96.6779 39.3598 95.8275C39.4125 95.8027 39.4744 95.8306 39.4961 95.8834C39.5178 95.9361 39.493 95.9982 39.4404 96.0199C38.7247 96.3241 38.1392 96.4265 37.6806 96.4265Z" fill="#D9C9AC"/>
<path d="M32.2654 98.6917C32.2097 98.6917 32.1632 98.6451 32.1601 98.5893C32.1601 98.5303 32.1446 97.1584 33.1019 96.0503C33.1391 96.0069 33.2042 96.0038 33.2475 96.041C33.2909 96.0783 33.2971 96.1435 33.2568 96.1869C32.3522 97.2329 32.3646 98.5706 32.3646 98.5862C32.3708 98.6451 32.3243 98.6917 32.2654 98.6917Z" fill="#D9C9AC"/>
<path d="M41.048 19.7711C42.2284 19.7711 42.2284 17.9336 41.048 17.9336C39.8676 17.9336 39.8645 19.7711 41.048 19.7711Z" fill="#8E97FD"/>
<path d="M94.3946 37.1993C94.9833 37.1993 94.9864 36.2806 94.3946 36.2806C93.8029 36.2806 93.8029 37.1993 94.3946 37.1993Z" fill="#8E97FD"/>
<path d="M115.254 59.901C115.843 59.901 115.846 58.9823 115.254 58.9823C114.663 58.9823 114.663 59.901 115.254 59.901Z" fill="white"/>
<path d="M34.8955 22.7475C35.4842 22.7475 35.4873 21.8288 34.8955 21.8288C34.3069 21.8288 34.3038 22.7475 34.8955 22.7475Z" fill="#59D6B8"/>
<path d="M64.7422 6.89371C65.3308 6.89371 65.3339 5.97498 64.7422 5.97498C64.1505 5.97498 64.1505 6.89371 64.7422 6.89371Z" fill="#59D6B8"/>
<path d="M104.026 54.8599C104.615 54.8599 104.618 53.9412 104.026 53.9412C103.435 53.9412 103.435 54.8599 104.026 54.8599Z" fill="#59D6B8"/>
<path d="M111.679 46.3464C112.268 46.3464 112.271 45.4276 111.679 45.4276C111.09 45.4276 111.087 46.3464 111.679 46.3464Z" fill="#59D6B8"/>
<path d="M83.4648 17.0273C84.0534 17.0273 84.0565 16.1085 83.4648 16.1085C82.8762 16.1085 82.8762 17.0273 83.4648 17.0273Z" fill="#8E97FD"/>
<path d="M99.9741 84.5603C100.563 84.5603 100.566 83.6416 99.9741 83.6416C99.3855 83.6416 99.3855 84.5603 99.9741 84.5603Z" fill="white"/>
<path d="M105.737 82.5619C106.4 82.5619 106.4 81.5284 105.737 81.5284C105.074 81.5315 105.074 82.5619 105.737 82.5619Z" fill="#8E6DAA"/>
<path d="M113.925 56.2378C115.105 56.2378 115.105 54.4003 113.925 54.4003C112.745 54.4003 112.745 56.2378 113.925 56.2378Z" fill="#8E6DAA"/>
<path d="M75.4279 16.5681C76.6083 16.5681 76.6083 14.7306 75.4279 14.7306C74.2475 14.7306 74.2444 16.5681 75.4279 16.5681Z" fill="#8E97FD"/>
<path d="M68.9126 9.49754C63.4382 12.8093 58.8499 17.5551 53.0503 20.2523C46.6651 23.2196 39.3845 23.4462 32.6089 25.355C20.7432 28.6979 10.538 37.5159 5.4974 48.7828C0.456782 60.0497 0.673649 73.5514 6.07675 84.6476C7.65988 87.9005 9.70463 90.995 12.496 93.2949C18.4816 98.23 26.927 98.8073 34.6382 98.019C42.3494 97.2306 50.0451 95.3062 57.7563 96.0884C63.147 96.6377 68.3518 98.4969 73.758 98.8694C79.1363 99.2388 84.5208 98.1152 89.6389 96.4174C99.2337 93.2328 108.355 87.7918 114.309 79.6101C120.264 71.4284 122.606 60.2546 118.792 50.8779C115.294 42.2741 107.335 36.2557 102.995 28.043C100.938 24.1508 99.7387 19.8426 97.5793 16.0063C91.9718 6.03987 78.2812 3.82994 68.9126 9.49754Z" fill="#808AFF"/>
<path d="M96.6096 97.9296C96.5538 97.9296 96.498 97.9048 96.4639 97.8551C96.402 97.7744 96.4206 97.6596 96.5011 97.5975C102.905 92.7586 107.902 86.2716 110.948 78.841C111.471 77.5653 111.759 75.6689 111.161 74.5143C110.904 74.0177 110.501 73.7042 109.969 73.5862C109.259 73.4248 108.522 73.7135 107.884 73.999C106.548 74.5888 105.253 75.3026 104.036 76.1189C103.441 76.5162 102.852 76.9477 102.291 77.3946C102.223 77.4474 102.127 77.5436 102.013 77.6554C101.449 78.2047 100.99 78.6175 100.631 78.481C100.541 78.4468 100.491 78.3475 100.519 78.2575C100.609 77.9533 100.718 77.6678 100.82 77.3915C101.055 76.7645 101.275 76.1686 101.288 75.4454C101.297 74.8712 101.17 74.4677 100.91 74.2473C100.674 74.0487 100.312 73.9804 99.8347 74.0394C98.772 74.1728 97.7837 74.7781 97.1238 75.6968C97.0774 75.762 96.9906 75.7899 96.9163 75.762C96.8388 75.7341 96.7892 75.6627 96.7923 75.5789C96.814 75.0978 96.9132 74.6043 97.0092 74.1294C97.0588 73.8842 97.1084 73.639 97.1455 73.3969C98.0409 67.7231 98.487 61.9344 98.4653 56.1923C98.4591 54.1841 98.0905 49.4353 94.8312 48.6593C92.8175 48.1813 90.8037 49.6308 89.5862 51.1455C86.6275 54.8359 85.9304 59.9324 85.3696 64.0295C85.3572 64.1226 85.2767 64.1878 85.1837 64.1878C85.0908 64.1847 85.0133 64.1133 85.0041 64.0202C84.9018 62.9028 84.276 61.8289 83.2877 61.0778C82.2994 60.3266 81.0973 60.0131 79.9944 60.2149C78.8915 60.4197 77.8846 61.1429 77.2278 62.1982C76.7848 62.909 76.5493 63.6974 76.5369 64.464C76.6732 64.8396 76.7259 65.2338 76.6794 65.6311C76.6701 65.718 76.5989 65.7863 76.5121 65.7925C76.4161 65.7987 76.3448 65.7428 76.3201 65.659C76.2178 65.2928 76.1682 64.9141 76.1682 64.5292C76.001 64.1133 75.7097 63.7253 75.307 63.4056C74.3837 62.6669 73.0732 62.4124 72.0478 62.7725C69.9844 63.4988 68.9094 65.7708 68.5903 67.6548C68.5903 67.6548 68.5903 67.6548 68.5903 67.6579C68.5748 67.7572 68.4818 67.8224 68.3796 67.81C68.2805 67.7945 68.2123 67.6982 68.2278 67.5989C68.3982 66.5374 67.9149 65.5162 66.8956 64.7899C65.5201 63.8091 63.6178 63.6353 62.2701 64.3647C59.6058 65.8111 58.6887 69.1664 58.3882 71.727C58.3789 71.8201 58.2984 71.8884 58.2054 71.8884C58.2054 71.8884 58.2023 71.8884 58.1992 71.8884C58.1032 71.8853 58.0288 71.8108 58.0226 71.7177L57.4371 62.4466C57.2884 60.0721 56.6006 56.0185 53.6822 55.5622C50.9094 55.1277 49.0381 58.4209 48.5331 59.4389C46.9624 62.5955 46.1538 66.1153 46.1848 69.6412C46.1972 69.7933 46.2003 69.9454 46.1941 70.0975C46.1879 70.1968 46.1011 70.2682 46.0082 70.2713C45.909 70.2713 45.8285 70.1906 45.8254 70.0944C45.8223 69.9485 45.8192 69.8057 45.8161 69.6599C45.7324 68.7256 45.2306 67.8007 44.4188 67.124C43.4863 66.345 42.3059 66.0284 41.2619 66.2767C40.2178 66.525 39.3039 67.3351 38.8144 68.4494C38.328 69.5636 38.3497 70.7866 38.8763 71.7239C38.9197 71.7984 38.9042 71.8946 38.8392 71.9505C38.7741 72.0064 38.6781 72.0126 38.6099 71.9629C37.5101 71.1714 37.1197 69.7778 36.7417 68.4276C36.3235 66.9378 35.9269 65.5287 34.6381 65.0538C33.309 64.5634 31.825 65.5597 31.2116 66.7671C30.5424 68.0831 30.5641 69.6599 30.5827 71.0504C30.5827 71.1435 30.5176 71.2211 30.4247 71.2335C30.3349 71.249 30.2481 71.1901 30.2202 71.1032C28.6247 65.5504 25.2199 60.5563 20.6409 57.0459C18.6829 55.5436 15.9318 54.6621 14.519 56.2668C13.887 56.9869 13.7259 58.036 13.6453 59.0603C13.1744 65.1407 14.454 71.4756 17.2484 76.8949C17.2918 76.9756 17.267 77.0749 17.1927 77.1277C17.1183 77.1805 17.0161 77.1711 16.9541 77.1029C16.1517 76.24 15.2409 75.2654 14.0822 74.806C13.0474 74.3963 11.5665 74.4925 10.8632 75.4796C10.5039 75.9855 10.4016 76.6373 10.3583 77.1494C10.2157 78.7386 10.4698 80.3557 11.0956 81.8238C11.1328 81.9138 11.0956 82.0162 11.0089 82.0597C10.9221 82.1031 10.8168 82.0721 10.7672 81.9883C9.86256 80.4085 8.71006 78.6672 7.0185 77.6988C5.50352 76.8328 3.16755 76.6714 1.81987 78.0744C-0.61524 80.6133 2.23812 84.8594 3.5796 86.5665C6.60645 90.4214 10.0392 94.7947 14.8505 96.9178C14.9435 96.9581 14.9837 97.0667 14.9435 97.1599C14.9032 97.253 14.7947 97.2964 14.7018 97.253C9.80679 95.0927 6.34621 90.6822 3.29147 86.793C1.89113 85.0083 -1.08305 80.5667 1.55343 77.8167C3.03123 76.2772 5.56239 76.4417 7.19819 77.376C8.47461 78.1054 9.45051 79.2445 10.2436 80.4333C9.97719 79.3532 9.88734 78.2265 9.98958 77.1153C10.0392 76.5597 10.1507 75.8458 10.5627 75.2654C11.3837 74.1139 13.0226 73.9897 14.2154 74.4646C15.0612 74.7998 15.7706 75.3802 16.3965 75.9979C13.9056 70.7121 12.8274 64.8738 13.2798 59.0292C13.3634 57.9398 13.54 56.8224 14.2433 56.0216C15.8109 54.2369 18.7727 55.1494 20.8639 56.751C25.1889 60.0659 28.476 64.6782 30.214 69.843C30.2388 68.7473 30.3689 67.6113 30.8832 66.5964C31.5679 65.2524 33.244 64.1475 34.762 64.7061C36.2306 65.2462 36.6674 66.8105 37.0949 68.3252C37.3738 69.3153 37.6588 70.3303 38.2257 71.0721C37.9965 70.1999 38.0801 69.2129 38.4798 68.2973C39.0127 67.0775 40.0226 66.1867 41.1782 65.9135C42.3338 65.6404 43.635 65.9849 44.6543 66.8354C45.1748 67.2699 45.5775 67.7976 45.844 68.3687C45.9927 65.2152 46.7982 62.102 48.2047 59.2713C48.7407 58.1974 50.7204 54.7273 53.738 55.196C56.9073 55.6895 57.6447 59.9324 57.8027 62.4186L58.286 70.0634C58.7755 67.7541 59.835 65.2617 62.0936 64.0357C63.559 63.2411 65.6192 63.4274 67.1063 64.4827C67.8343 65.001 68.3176 65.659 68.519 66.3853C69.0519 64.7186 70.1424 63.0456 71.9238 62.4217C73.0794 62.0151 74.4984 62.2883 75.5331 63.1139C75.8089 63.3342 76.0412 63.5826 76.2209 63.8495C76.3201 63.2132 76.5524 62.58 76.9149 61.9965C77.6244 60.8512 78.7242 60.069 79.9263 59.8455C81.1283 59.6221 82.4357 59.9604 83.5077 60.7767C84.276 61.3602 84.843 62.1269 85.1435 62.9649C85.698 59.0168 86.5159 54.3735 89.3011 50.9065C89.9238 50.1274 92.1731 47.6381 94.9149 48.2931C96.3679 48.6376 98.8123 50.1243 98.8309 56.183C98.8495 61.9437 98.4034 67.751 97.5049 73.4434C97.4646 73.6886 97.4151 73.9401 97.3655 74.1915C97.3128 74.4553 97.2571 74.7253 97.2168 74.9923C97.9108 74.2598 98.8185 73.7818 99.7851 73.6607C100.371 73.5862 100.826 73.6855 101.142 73.9525C101.495 74.2504 101.663 74.7377 101.65 75.4392C101.638 76.2276 101.405 76.8484 101.158 77.5064C101.089 77.6864 101.021 77.8695 100.956 78.0588C101.213 77.9037 101.598 77.5281 101.749 77.3791C101.873 77.2581 101.982 77.1525 102.053 77.0936C102.623 76.6373 103.218 76.2028 103.822 75.7993C105.058 74.9705 106.372 74.2473 107.726 73.6483C108.469 73.3193 109.262 73.0399 110.04 73.2138C110.684 73.3596 111.168 73.7352 111.477 74.3311C112.134 75.5944 111.852 77.5715 111.279 78.9652C108.209 86.4609 103.171 93.0007 96.7118 97.8768C96.687 97.9172 96.6467 97.9296 96.6096 97.9296Z" fill="#8E97FD"/>
<path d="M81.7133 98.354C81.6451 98.3571 81.5801 98.3105 81.5646 98.2392C80.7498 94.7908 80.1921 91.2524 79.9071 87.7203C79.8296 86.7612 79.7553 85.6283 79.7956 84.4861C79.9133 81.106 81.0038 77.729 82.9525 74.7152C84.7556 71.9248 87.3147 69.4542 90.3477 67.5639C90.4159 67.5205 90.5088 67.5422 90.5522 67.6105C90.5956 67.6788 90.5739 67.7719 90.5057 67.8153C87.5067 69.6807 84.9818 72.1204 83.2035 74.8735C81.2857 77.8407 80.2107 81.168 80.0961 84.4923C80.0558 85.6189 80.1301 86.7425 80.2076 87.6923C80.4926 91.209 81.0472 94.7349 81.8558 98.1678C81.8744 98.2485 81.8248 98.3261 81.7474 98.3447C81.7319 98.3509 81.7226 98.354 81.7133 98.354Z" fill="#565D70"/>
<path d="M88.3004 70.0319C88.9758 69.9667 89.6574 70.0101 90.3328 70.0629C90.7634 70.0971 91.1941 70.1374 91.6247 70.1809C91.7114 70.1902 91.8168 70.2181 91.8323 70.3019C91.8509 70.395 91.7393 70.4571 91.6526 70.4974C91.0515 70.7675 90.6829 71.3851 90.1345 71.7514C89.7379 72.0152 89.2639 72.1363 88.7899 72.2015C88.3934 72.2542 87.9906 72.2697 87.591 72.248C87.2657 72.2294 86.928 72.1797 86.6615 71.9935C86.392 71.8042 86.2278 71.4752 86.2216 71.1461C86.2154 70.7364 86.5345 70.4912 86.8846 70.3578C87.3369 70.1809 87.8233 70.0753 88.3004 70.0319Z" fill="#565D70"/>
<path d="M84.1147 75.6964C84.7901 75.6312 85.4716 75.6746 86.147 75.7274C86.5777 75.7615 87.0083 75.8019 87.4389 75.8454C87.5257 75.8547 87.631 75.8795 87.6465 75.9664C87.6651 76.0595 87.5536 76.1216 87.4668 76.1619C86.8658 76.432 86.4971 77.0496 85.9487 77.4159C85.5522 77.6797 85.0782 77.8008 84.6042 77.866C84.2076 77.9187 83.8049 77.9342 83.4052 77.9125C83.0799 77.8939 82.7422 77.8442 82.4758 77.658C82.2062 77.4687 82.0421 77.1397 82.0359 76.8107C82.0297 76.4009 82.3488 76.1557 82.6988 76.0223C83.1512 75.8485 83.6345 75.7429 84.1147 75.6964Z" fill="#565D70"/>
<path d="M81.881 81.0009C82.5007 80.7278 83.1637 80.554 83.8205 80.3926C84.2418 80.2901 84.6631 80.1908 85.0845 80.0977C85.1681 80.0791 85.2766 80.0729 85.3199 80.1473C85.3664 80.2312 85.2828 80.3243 85.2115 80.3863C84.7251 80.8333 84.5702 81.5348 84.1643 82.0531C83.87 82.4287 83.458 82.6925 83.0304 82.9004C82.6711 83.0743 82.2931 83.217 81.9058 83.3195C81.5929 83.4033 81.2552 83.4622 80.9423 83.3691C80.6263 83.2729 80.3691 83.0153 80.2576 82.7018C80.1213 82.3169 80.3475 81.9817 80.6387 81.7458C81.0136 81.4448 81.4411 81.1933 81.881 81.0009Z" fill="#565D70"/>
<path d="M81.6115 87.5125C82.2032 87.1773 82.8414 86.9414 83.4827 86.7148C83.8917 86.5721 84.3006 86.4324 84.7127 86.2989C84.7932 86.271 84.9017 86.2524 84.9512 86.3238C85.0039 86.4014 84.9295 86.5038 84.8676 86.5752C84.4277 87.0656 84.3409 87.7826 83.9877 88.3381C83.7337 88.7416 83.3464 89.0458 82.9406 89.2941C82.5998 89.5052 82.2373 89.6821 81.8624 89.8218C81.5588 89.9366 81.2304 90.0297 80.9113 89.9645C80.5891 89.8994 80.3041 89.6697 80.1647 89.3686C79.9912 88.9962 80.1832 88.6423 80.4497 88.3785C80.7936 88.0402 81.1932 87.7484 81.6115 87.5125Z" fill="#565D70"/>
<path d="M84.961 70.8104C84.961 70.4225 84.9486 70.0314 84.8804 69.6496C84.8278 69.3454 84.741 69.0444 84.6512 68.7495C84.363 67.7873 84.0315 66.791 83.3221 66.0802C83.3004 66.0585 83.2756 66.0336 83.2446 66.0243C83.1672 65.9964 83.0835 66.0585 83.0526 66.1361C83.0216 66.2105 83.0278 66.2975 83.0247 66.3782C83.0185 66.5582 82.9627 66.732 82.9069 66.9027C82.7613 67.3559 82.6157 67.8121 82.4701 68.2653C82.2501 68.9481 82.0302 69.6403 81.9806 70.3573C81.931 71.0743 82.0674 71.8285 82.5042 72.3965C82.6498 72.5858 82.8264 72.7534 83.0154 72.8993C83.1951 73.039 83.3933 73.1663 83.6133 73.2159C83.9107 73.2842 84.236 73.2004 84.4653 72.9986C84.7286 72.769 84.8216 72.3934 84.8587 72.0582C84.9114 71.6423 84.9579 71.2295 84.961 70.8104Z" fill="#565D70"/>
<path d="M81.3233 75.1438C81.1622 74.7899 80.9887 74.4392 80.7688 74.1195C80.5922 73.865 80.3908 73.6291 80.1863 73.3963C79.5264 72.639 78.8108 71.8723 77.8721 71.5216C77.8411 71.5092 77.8101 71.4999 77.7791 71.503C77.6986 71.5092 77.6459 71.6023 77.649 71.683C77.6521 71.7637 77.6924 71.8413 77.7234 71.9158C77.7915 72.0834 77.8132 72.2634 77.8349 72.4403C77.8906 72.9152 77.9464 73.387 78.0022 73.8619C78.0858 74.5758 78.1726 75.2959 78.4235 75.9663C78.6745 76.6398 79.1144 77.2668 79.7464 77.6051C79.9571 77.7169 80.1863 77.7945 80.4218 77.8503C80.6417 77.9031 80.8741 77.9372 81.0972 77.8907C81.3946 77.8286 81.6579 77.6175 81.7849 77.3382C81.9306 77.0185 81.8562 76.6398 81.754 76.3201C81.6239 75.9197 81.4937 75.5224 81.3233 75.1438Z" fill="#565D70"/>
<path d="M78.2005 81.4381C77.8504 81.2705 77.491 81.1184 77.1162 81.016C76.8188 80.9353 76.512 80.8856 76.2053 80.839C75.2139 80.6869 74.173 80.5628 73.2281 80.9011C73.1971 80.9135 73.1661 80.9228 73.1444 80.9477C73.0855 81.0066 73.1072 81.1091 73.1599 81.1711C73.2157 81.2332 73.2931 81.2612 73.3675 81.3015C73.5255 81.3853 73.6587 81.5095 73.7888 81.6305C74.1358 81.9564 74.4828 82.2823 74.8329 82.6082C75.3565 83.0986 75.8862 83.5953 76.512 83.946C77.1379 84.2967 77.8752 84.4954 78.5754 84.3433C78.8108 84.2936 79.0339 84.2036 79.2477 84.095C79.4521 83.9925 79.6473 83.8684 79.7898 83.6884C79.9788 83.4494 80.0408 83.1173 79.9602 82.8224C79.8642 82.4841 79.5668 82.242 79.2818 82.0619C78.9317 81.8416 78.5785 81.6181 78.2005 81.4381Z" fill="#565D70"/>
<path d="M78.4234 87.9253C78.0733 87.7577 77.7139 87.6056 77.339 87.5032C77.0416 87.4225 76.7349 87.3728 76.4282 87.3263C75.4368 87.1742 74.3958 87.05 73.4509 87.3883C73.4199 87.4008 73.3889 87.4101 73.3672 87.4349C73.3084 87.4939 73.3301 87.5963 73.3827 87.6584C73.4385 87.7205 73.516 87.7484 73.5903 87.7887C73.7483 87.8725 73.8815 87.9967 74.0117 88.1177C74.3586 88.4437 74.7056 88.7696 75.0557 89.0955C75.5793 89.5859 76.1091 90.0825 76.7349 90.4332C77.3607 90.7839 78.0981 90.9826 78.7982 90.8305C79.0337 90.7808 79.2567 90.6908 79.4705 90.5822C79.675 90.4798 79.8702 90.3556 80.0127 90.1756C80.2017 89.9366 80.2636 89.6045 80.1831 89.3096C80.087 88.9713 79.7896 88.7292 79.5046 88.5492C79.1514 88.3257 78.7982 88.1053 78.4234 87.9253Z" fill="#565D70"/>
<path d="M76.6922 83.7098C77.0051 82.2728 77.9965 80.5719 79.4403 80.845C80.4564 81.0374 81.0079 82.1393 81.3084 83.1325C81.9683 85.299 82.1759 87.6052 81.9156 89.8554C81.9652 86.8944 82.7769 83.9519 84.2547 81.3882C84.7256 80.5688 85.3886 79.7121 86.3273 79.6283C87.3156 79.5383 88.1862 80.4074 88.4558 81.3633C88.7253 82.3224 88.5425 83.3405 88.3566 84.3182C88.9174 78.6289 90.1628 72.3188 94.844 69.0504C95.789 68.3893 96.8888 67.8772 98.0413 67.8772C99.1938 67.8772 100.396 68.4917 100.839 69.5595C101.081 70.1399 101.084 70.7886 101.04 71.4155C100.672 76.6672 97.3597 81.2175 93.8712 85.1593C94.7046 84.79 95.569 84.4144 96.4798 84.402C97.3907 84.3896 98.3728 84.8365 98.7074 85.687C99.1194 86.7361 98.41 87.9093 97.527 88.6108C96.6471 89.3123 95.569 89.7685 94.8038 90.5973C96.4086 90.2217 98.5246 90.0603 99.2836 91.5284C99.6182 92.1802 99.547 92.9624 99.3952 93.6794C98.4812 97.9347 94.7604 101.433 90.4633 102.078C80.7074 103.537 74.886 91.9909 76.6922 83.7098Z" fill="#F2EDE4"/>
<path d="M84.6108 100.241C84.6015 100.241 84.5922 100.241 84.5829 100.238C84.5272 100.222 84.4962 100.163 84.5117 100.111C84.5798 99.8748 91.3492 76.4812 99.1131 69.6745C99.1564 69.6372 99.2215 69.6403 99.2587 69.6838C99.2959 69.7273 99.2928 69.7924 99.2494 69.8297C91.532 76.5991 84.7781 99.9307 84.713 100.167C84.6976 100.213 84.6542 100.241 84.6108 100.241Z" fill="#D9C9AC"/>
<path d="M85.2769 98.053C85.2521 98.053 85.2305 98.0468 85.2119 98.0282C77.9716 92.1154 78.774 83.6047 78.7802 83.5209C78.7864 83.465 78.8391 83.4215 78.8948 83.4277C78.9506 83.434 78.994 83.4836 78.9878 83.5426C78.9785 83.6264 78.1916 92.0285 85.342 97.8668C85.3854 97.904 85.3947 97.9692 85.3575 98.0127C85.3358 98.0406 85.3048 98.053 85.2769 98.053Z" fill="#D9C9AC"/>
<path d="M87.1605 92.4228C87.1203 92.4228 87.08 92.398 87.0645 92.3607C85.1313 87.7701 86.3179 81.1621 86.3302 81.0969C86.3395 81.041 86.3922 81.0007 86.4511 81.0131C86.5068 81.0224 86.544 81.0783 86.5347 81.1341C86.5223 81.1993 85.3481 87.7453 87.2566 92.28C87.2783 92.3328 87.2535 92.3949 87.2008 92.4166C87.1884 92.4197 87.176 92.4228 87.1605 92.4228Z" fill="#D9C9AC"/>
<path d="M85.6823 99.1764C85.2145 99.1764 84.9418 99.1516 84.9264 99.1516C84.8706 99.1454 84.8272 99.0957 84.8334 99.0367C84.8396 98.9809 84.8892 98.9343 84.948 98.9436C85.0317 98.9529 93.3594 99.6792 97.5697 92.6801C97.6007 92.6304 97.6627 92.6149 97.7122 92.6459C97.7618 92.677 97.7773 92.739 97.7463 92.7887C94.2207 98.6487 87.8634 99.1764 85.6823 99.1764Z" fill="#D9C9AC"/>
<path d="M88.3008 89.3251C88.245 89.3251 88.1986 89.2816 88.1955 89.2258C88.1924 89.1699 88.2388 89.1202 88.2946 89.1171C88.3442 89.114 93.2856 88.9216 96.706 85.9605C96.7493 85.9233 96.8144 85.9264 96.8516 85.9698C96.8887 86.0133 96.8857 86.0785 96.8423 86.1157C93.3662 89.1264 88.3535 89.322 88.3039 89.3251C88.3008 89.3251 88.3008 89.3251 88.3008 89.3251Z" fill="#D9C9AC"/>
<path d="M85.9893 88.0958C85.571 88.0958 84.5673 87.8754 83.9228 85.9231C83.9043 85.8672 83.9352 85.8082 83.9879 85.7927C84.0437 85.7741 84.1025 85.8051 84.118 85.8579C84.8709 88.133 86.0822 87.8878 86.1318 87.8754C86.1876 87.8599 86.2433 87.8971 86.2557 87.953C86.2681 88.0089 86.234 88.0647 86.1783 88.0772C86.169 88.0803 86.1008 88.0958 85.9893 88.0958Z" fill="#D9C9AC"/>
<path d="M80.8217 92.587C80.8186 92.587 80.8186 92.587 80.8155 92.587C80.7443 92.5807 79.0279 92.4473 77.9529 90.2218C77.9281 90.1691 77.9498 90.107 78.0024 90.0822C78.052 90.0573 78.1171 90.0791 78.1418 90.1318C79.1642 92.2486 80.8124 92.3759 80.8279 92.379C80.8837 92.3821 80.9301 92.4318 80.924 92.4907C80.924 92.5435 80.8775 92.587 80.8217 92.587Z" fill="#D9C9AC"/>
<path d="M82.6186 95.3616C82.5969 95.3616 82.5752 95.3554 82.5566 95.3399C82.5102 95.3058 82.504 95.2406 82.538 95.194C82.5473 95.1816 83.5202 93.8594 82.7115 90.3893C82.6991 90.3334 82.7332 90.2775 82.789 90.2651C82.8448 90.2527 82.9005 90.2869 82.9129 90.3427C83.7463 93.9245 82.7425 95.2685 82.6991 95.3213C82.6775 95.3492 82.6496 95.3616 82.6186 95.3616Z" fill="#D9C9AC"/>
<rect x="54.2255" y="30.009" width="5.86056" height="14.6514" rx="2.93028" fill="#FDFFFC"/>
<rect x="44.4579" y="34.8858" width="5.86056" height="14.6514" rx="2.93028" transform="rotate(-41.7192 44.4579 34.8858)" fill="#FDFFFC"/>
<rect x="65.2736" y="30.9854" width="5.86056" height="14.6514" rx="2.93028" transform="rotate(43.4252 65.2736 30.9854)" fill="#FDFFFC"/>
<path d="M24.4698 67.9902C21.9263 67.9902 19.4137 66.671 16.991 64.0607C16.7958 63.8496 16.8082 63.5206 17.0189 63.3251C17.2295 63.1296 17.5579 63.142 17.7531 63.353C20.1201 65.9044 22.5397 67.1087 24.9376 66.9317C28.7049 66.6524 31.2175 63.0489 31.2423 63.0116C31.4065 62.7757 31.7287 62.7136 31.9641 62.8781C32.1996 63.0395 32.2616 63.3654 32.0974 63.6013C31.9827 63.7658 29.2719 67.6549 25.012 67.9715C24.8323 67.9808 24.6495 67.9902 24.4698 67.9902Z" fill="#E9F2DE"/>
<path d="M15.6469 65.1129C15.5663 65.1129 15.4858 65.1098 15.4052 65.1005C15.114 65.0664 14.8631 64.9764 14.6617 64.8336C14.0266 64.3773 13.9925 63.5083 14.2868 62.9216C14.4138 62.664 14.7267 62.5585 14.9839 62.6888C15.241 62.8161 15.3433 63.1296 15.2162 63.3872C15.1078 63.6045 15.1326 63.89 15.2689 63.9893C15.3247 64.0297 15.4114 64.0545 15.523 64.0701C15.8607 64.1073 16.2107 63.9956 16.4617 63.7659C16.7126 63.5362 16.8582 63.1979 16.8551 62.8596C16.852 62.7509 16.8366 62.6578 16.8056 62.5864C16.7405 62.4343 16.5825 62.3102 16.3997 62.2698C16.2107 62.2295 15.9846 62.276 15.8018 62.3971C15.5601 62.5523 15.2379 62.484 15.083 62.245C14.9281 62.0029 14.9963 61.6801 15.2348 61.5249C15.65 61.2549 16.1519 61.1524 16.6135 61.2518C17.1247 61.3604 17.5646 61.7173 17.7629 62.1829C17.8465 62.3785 17.8899 62.6019 17.893 62.844C17.9023 63.4772 17.6297 64.1104 17.1619 64.5387C16.7498 64.905 16.1983 65.1129 15.6469 65.1129Z" fill="#E9F2DE"/>
<path d="M16.2602 67.459C16.0402 67.459 15.8358 67.3193 15.7645 67.0958C15.0891 64.9728 16.5948 63.5947 16.6599 63.5357C16.8736 63.3433 17.202 63.365 17.3941 63.5792C17.5831 63.7934 17.5676 64.1193 17.3538 64.3117C17.3074 64.3551 16.2881 65.3111 16.7528 66.7792C16.8395 67.0524 16.6877 67.3472 16.4151 67.4341C16.3655 67.4528 16.3129 67.459 16.2602 67.459Z" fill="#E9F2DE"/>
<path d="M14.912 67.7509C14.7106 67.7509 14.5185 67.6329 14.4348 67.4374C13.8338 66.0407 14.8221 64.3894 14.8655 64.3211C15.0142 64.0759 15.3333 63.9983 15.5811 64.1473C15.8259 64.2963 15.9034 64.616 15.7546 64.8612C15.544 65.2088 15.07 66.2765 15.3922 67.0246C15.5068 67.2884 15.386 67.5957 15.1195 67.7074C15.0514 67.7385 14.9801 67.7509 14.912 67.7509Z" fill="#E9F2DE"/>
<path d="M86.7302 48.6715C75.3633 31.8022 57.6142 44.5683 57.6142 44.5683C57.6142 44.5683 41.0672 30.272 28.2503 46.0674C15.4335 61.8597 36.5811 86.647 55.6872 87.9661C74.8366 88.351 98.0972 65.544 86.7302 48.6715Z" fill="#93BFA8"/>
<path d="M86.7297 48.6718C80.456 39.3602 72.2398 39.0778 66.1366 40.6949C70.8643 42.6038 84.3968 49.3267 82.3707 63.2008C80.8588 73.5645 69.6096 82.3049 61.2385 87.4666C78.9534 84.0586 97.0123 63.9364 86.7297 48.6718Z" fill="#80B996"/>
<path d="M57.6138 44.5716C57.6138 44.5716 48.5859 36.7748 38.7029 39.0623C48.7005 41.2909 54.3422 46.3874 54.3422 46.3874C55.7611 45.4966 57.6138 44.5716 57.6138 44.5716Z" fill="#80B996"/>
<path d="M33.885 43.2804C31.9456 44.5157 30.3872 46.468 29.9938 48.737C29.9411 49.0349 29.9101 49.3484 30.0093 49.634C30.1704 50.0995 30.6568 50.3944 31.1463 50.4565C31.6358 50.5186 32.1253 50.3913 32.5931 50.2361C34.8981 49.4695 36.9738 48.0169 39.3625 47.5792C40.611 47.3495 41.9122 47.4054 43.1174 47.0081C44.3225 46.6139 45.4657 45.5617 45.3852 44.2954C45.2458 42.1103 42.2375 41.5361 40.5119 41.3374C38.337 41.0891 35.6881 42.132 33.885 43.2804Z" fill="#66A986"/>
<path d="M60.353 45.2325C60.2879 45.4497 60.2445 45.6856 60.3096 45.9029C60.4428 46.3405 60.954 46.533 61.4032 46.6106C62.5154 46.803 63.6803 46.6788 64.7244 46.2598C65.3812 45.996 66.0039 45.6049 66.4438 45.0493C67.1843 44.112 67.3609 41.9672 65.8273 41.691C64.65 41.4768 62.816 42.4452 61.9175 43.1094C61.208 43.6371 60.6132 44.3665 60.353 45.2325Z" fill="#66A986"/>
<path d="M57.047 45.7854C56.8735 46.0833 56.858 46.4899 57.0749 46.7569C57.2607 46.9866 57.5736 47.0735 57.8649 47.1293C58.1623 47.1852 58.4845 47.2193 58.7509 47.0735C58.8934 46.9959 59.005 46.8748 59.101 46.7444C59.3613 46.403 59.5471 45.9312 59.3489 45.5495C59.2249 45.3136 58.9771 45.1615 58.7168 45.0994C58.0786 44.9411 57.3909 45.2018 57.047 45.7854Z" fill="#66A986"/>
<path d="M46.4948 55.4132C46.5754 55.8353 46.5939 56.2295 46.5816 56.6486C46.5599 57.0614 46.4979 57.4835 46.3399 57.8963C46.1881 58.3091 45.9186 58.7157 45.5282 58.9951C45.144 59.2806 44.6762 59.411 44.2332 59.4389C44.007 59.4544 43.7716 59.4327 43.5361 59.3768C43.3007 59.3148 43.0683 59.203 42.8731 59.0478C42.4735 58.7343 42.2566 58.2936 42.142 57.8777C41.9158 57.0334 41.9499 56.2264 42.0862 55.4132C42.1172 55.2301 42.2907 55.1059 42.4735 55.137C42.647 55.168 42.7678 55.3263 42.7523 55.5001L42.7492 55.5219C42.7151 55.8695 42.7027 56.2513 42.7244 56.6082C42.7461 56.9682 42.7926 57.3252 42.8979 57.6449C43.0032 57.9615 43.155 58.2408 43.375 58.4022C43.4834 58.4829 43.6043 58.5419 43.7406 58.576C43.88 58.604 44.0287 58.6195 44.1898 58.6071C44.512 58.5885 44.8187 58.5015 45.0542 58.3308C45.2989 58.1632 45.4755 57.9025 45.6057 57.6014C45.7358 57.2973 45.8039 56.9496 45.838 56.5958C45.8752 56.2451 45.869 55.8664 45.838 55.525L45.8349 55.5063C45.8163 55.3201 45.9526 55.1556 46.1385 55.1401C46.3089 55.1246 46.4638 55.2456 46.4948 55.4132Z" fill="#3F4553"/>
<path d="M61.7622 55.5251C61.7312 55.8665 61.725 56.2452 61.7622 56.5959C61.7932 56.9497 61.8644 57.2974 61.9945 57.6016C62.1247 57.9057 62.3012 58.1634 62.546 58.331C62.7846 58.5048 63.0882 58.5917 63.4104 58.6072C63.5684 58.6196 63.7202 58.6041 63.8596 58.5762C63.9959 58.542 64.1167 58.483 64.2252 58.4023C64.442 58.2409 64.5969 57.9616 64.7023 57.645C64.8076 57.3284 64.8541 56.9684 64.8758 56.6083C64.9006 56.2514 64.8851 55.8696 64.851 55.522L64.8479 55.5003C64.8293 55.314 64.9656 55.1495 65.1515 55.134C65.3281 55.1185 65.4861 55.2426 65.514 55.4133C65.6503 56.2266 65.6844 57.0305 65.4582 57.8778C65.3436 58.2937 65.1236 58.7345 64.7271 59.0479C64.5319 59.2031 64.2995 59.3149 64.0641 59.377C63.8286 59.4328 63.5901 59.4546 63.367 59.439C62.9271 59.4142 62.4593 59.2807 62.072 58.9952C61.6847 58.7158 61.4121 58.3092 61.2603 57.8964C61.1023 57.4836 61.0403 57.0615 61.0186 56.6487C61.0062 56.2297 61.0248 55.8355 61.1054 55.4133C61.1395 55.2302 61.3161 55.1092 61.4988 55.1433C61.6692 55.1743 61.787 55.3326 61.7715 55.5034L61.7622 55.5251Z" fill="#3F4553"/>
<path d="M53.6331 61.4254C53.063 61.4254 52.5549 61.3509 52.1305 61.2516C50.7952 60.935 49.9742 60.3111 49.937 60.2832C49.7914 60.1684 49.7635 59.9573 49.8751 59.8114C49.9897 59.6655 50.2004 59.6376 50.346 59.7494C50.4668 59.8425 53.3574 61.9934 57.0751 59.7276C57.2331 59.6314 57.4407 59.6811 57.5367 59.8394C57.6327 59.9977 57.5832 60.2056 57.4252 60.3018C56.0186 61.1585 54.7112 61.4254 53.6331 61.4254Z" fill="#3F4553"/>
<path d="M96.4829 71.3363C95.7424 71.3363 95.0113 71.2649 94.2832 71.1253C87.9569 69.8993 84.4715 63.8188 84.3259 63.5612C84.1834 63.3098 84.2732 62.9932 84.5242 62.8535C84.7751 62.7139 85.0911 62.8008 85.2305 63.0522C85.2646 63.1112 88.6354 68.9774 94.4877 70.1072C98.1527 70.8149 102.032 69.5423 106.028 66.3329C106.251 66.1529 106.58 66.1902 106.759 66.4136C106.939 66.6371 106.902 66.9661 106.679 67.1462C103.206 69.9303 99.7854 71.3363 96.4829 71.3363Z" fill="#E9F2DE"/>
<path d="M49.7327 90.6723C49.3516 90.6723 48.9736 90.6661 48.5957 90.6568C48.3075 90.6475 48.0814 90.4085 48.0907 90.123C48.1 89.8343 48.3354 89.617 48.6235 89.617C53.0848 89.7381 57.828 89.1297 62.342 87.8571C63.0173 87.6678 63.8012 87.4164 64.5044 86.9974C64.8142 86.8112 64.8979 86.6839 64.9134 86.6094C64.9444 86.4542 64.7182 86.2121 64.4146 86.0662C63.7082 85.731 62.8562 85.7217 62.2769 85.7403C60.2445 85.8117 58.2556 86.4108 56.5206 87.4785C56.2759 87.6275 55.9568 87.553 55.805 87.3078C55.6562 87.0626 55.7306 86.7429 55.9753 86.5908C57.8621 85.4299 60.0277 84.7781 62.2397 84.7005C62.9244 84.6757 63.9437 84.6943 64.8545 85.1258C65.4463 85.4051 66.0845 86.0135 65.9296 86.8049C65.8211 87.3636 65.3657 87.6926 65.0342 87.8913C64.2225 88.3755 63.3179 88.6641 62.6208 88.8597C58.3888 90.0516 53.9554 90.6723 49.7327 90.6723Z" fill="#E9F2DE"/>
<path d="M61.3255 90.688C57.0997 90.688 52.7778 90.0735 48.4622 88.8599C47.7651 88.6643 46.8604 88.3757 46.0487 87.8915C45.7172 87.6928 45.2618 87.3638 45.1534 86.8051C45.0016 86.0137 45.6367 85.4053 46.2284 85.126C47.1393 84.6945 48.1586 84.6759 48.8432 84.7007C51.0553 84.7783 53.2209 85.4301 55.1076 86.591C55.3524 86.74 55.4298 87.0628 55.278 87.308C55.1293 87.5532 54.8071 87.6308 54.5623 87.4787C52.8274 86.414 50.8384 85.8119 48.8061 85.7405C48.2298 85.7219 47.3778 85.7312 46.6715 86.0664C46.3648 86.2123 46.1417 86.4544 46.1727 86.6065C46.1882 86.681 46.2687 86.8113 46.5785 86.9945C47.2818 87.4135 48.0656 87.6649 48.741 87.8542C53.3541 89.1516 57.9703 89.7538 62.4594 89.6296C62.7506 89.6327 62.9861 89.85 62.9923 90.1356C62.9985 90.4242 62.7723 90.6632 62.4873 90.6694C62.1031 90.6818 61.7128 90.688 61.3255 90.688Z" fill="#E9F2DE"/>
<path d="M61.4434 91.4204C61.3442 91.6531 61.2575 91.8952 61.2544 92.1467C61.2482 92.3981 61.338 92.665 61.5332 92.8202C61.8028 93.0375 62.2179 92.994 62.4998 92.7892C62.7818 92.5843 62.946 92.2584 63.0451 91.9263C63.2186 91.3552 63.2248 90.7344 63.0668 90.1602C63.0141 89.9708 62.9088 89.7194 62.6826 89.6884C62.472 89.6574 62.3666 89.8498 62.2644 90.0019C61.9546 90.4582 61.6602 90.9144 61.4434 91.4204Z" fill="#E9F2DE"/>
<path d="M49.6705 91.4204C49.7696 91.6531 49.8563 91.8952 49.8594 92.1467C49.8656 92.3981 49.7758 92.665 49.5806 92.8202C49.3111 93.0375 48.8959 92.994 48.614 92.7892C48.3321 92.5843 48.1679 92.2584 48.0687 91.9263C47.8952 91.3552 47.889 90.7344 48.047 90.1602C48.0997 89.9708 48.205 89.7194 48.4312 89.6884C48.6419 89.6574 48.7472 89.8498 48.8495 90.0019C49.1593 90.4582 49.4536 90.9144 49.6705 91.4204Z" fill="#E9F2DE"/>
<path d="M35.0408 99.9149C35.1089 99.918 35.174 99.8714 35.1895 99.8C36.0043 96.3517 36.5619 92.8133 36.847 89.2811C36.9244 88.3221 36.9988 87.1891 36.9585 86.0469C36.8408 82.6669 35.7502 79.2899 33.8015 76.2761C31.9984 73.4857 29.4394 71.015 26.4063 69.1248C26.3382 69.0814 26.2452 69.1031 26.2019 69.1714C26.1585 69.2397 26.1802 69.3328 26.2483 69.3762C29.2473 71.2416 31.7723 73.6812 33.5506 76.4343C35.4683 79.4016 36.5434 82.7289 36.658 86.0531C36.6983 87.1798 36.6239 88.3034 36.5465 89.2532C36.2614 92.7698 35.7069 96.2958 34.8983 99.7286C34.8797 99.8093 34.9292 99.8869 35.0067 99.9056C35.0222 99.9118 35.0315 99.9149 35.0408 99.9149Z" fill="#565D70"/>
<path d="M25.9016 68.1565C25.7591 68.0293 25.5887 67.933 25.4152 67.8523C24.8761 67.5947 24.2503 67.4364 23.6833 67.6227C23.6307 67.6382 23.5811 67.6599 23.5408 67.7003C23.5036 67.7375 23.485 67.7903 23.4757 67.8399C23.4417 68.0355 23.547 68.2248 23.6616 68.3831C24.0117 68.858 24.526 69.1963 25.0868 69.3577C25.409 69.4508 26.5584 69.6867 26.422 69.0784C26.3539 68.74 26.1618 68.3862 25.9016 68.1565Z" fill="#565D70"/>
<path d="M28.4541 71.5928C27.7787 71.5276 27.0971 71.571 26.4217 71.6238C25.9911 71.6579 25.5604 71.6983 25.1298 71.7417C25.043 71.7511 24.9377 71.779 24.9222 71.8628C24.9036 71.9559 25.0152 72.018 25.1019 72.0583C25.7029 72.3284 26.0716 72.946 26.62 73.3123C27.0165 73.5761 27.4905 73.6972 27.9646 73.7623C28.3611 73.8151 28.7639 73.8306 29.1635 73.8089C29.4888 73.7903 29.8265 73.7406 30.093 73.5544C30.3625 73.365 30.5267 73.036 30.5329 72.707C30.5391 72.2973 30.22 72.0521 29.8699 71.9187C29.4176 71.7417 28.9343 71.6393 28.4541 71.5928Z" fill="#565D70"/>
<path d="M32.6427 77.2573C31.9673 77.1921 31.2857 77.2355 30.6103 77.2883C30.1797 77.3224 29.749 77.3628 29.3184 77.4062C29.2316 77.4156 29.1263 77.4435 29.1108 77.5273C29.0922 77.6204 29.2038 77.6825 29.2905 77.7228C29.8915 77.9929 30.2602 78.6105 30.8086 78.9768C31.2051 79.2406 31.6792 79.3616 32.1532 79.4268C32.5497 79.4796 32.9525 79.4951 33.3521 79.4734C33.6774 79.4548 34.0151 79.4051 34.2816 79.2189C34.5511 79.0295 34.7153 78.7005 34.7215 78.3715C34.7277 77.9618 34.4086 77.7166 34.0585 77.5832C33.6031 77.4093 33.1198 77.3038 32.6427 77.2573Z" fill="#565D70"/>
<path d="M34.8731 82.5618C34.2535 82.2887 33.5905 82.1148 32.9337 81.9534C32.5124 81.851 32.091 81.7548 31.6697 81.6586C31.5861 81.64 31.4776 81.6337 31.4342 81.7082C31.3878 81.792 31.4714 81.8852 31.5427 81.9472C32.0291 82.3942 32.184 83.0957 32.5898 83.614C32.8842 83.9896 33.2962 84.2534 33.7238 84.4613C34.0831 84.6352 34.4611 84.7779 34.8484 84.8803C35.1613 84.9642 35.499 85.0231 35.8119 84.93C36.1279 84.8338 36.385 84.5762 36.4966 84.2627C36.6329 83.8778 36.4067 83.5426 36.1155 83.3067C35.7406 83.0056 35.3131 82.7542 34.8731 82.5618Z" fill="#565D70"/>
<path d="M35.1431 89.0734C34.5513 88.7382 33.9131 88.5023 33.2718 88.2757C32.8629 88.1329 32.4539 87.9933 32.0419 87.8598C31.9613 87.8319 31.8529 87.8133 31.8033 87.8846C31.7506 87.9622 31.825 88.0647 31.8869 88.1361C32.3269 88.6265 32.4136 89.3434 32.7668 89.899C33.0209 90.3025 33.4081 90.6067 33.814 90.855C34.1548 91.0661 34.5172 91.243 34.8921 91.3827C35.1957 91.4975 35.5241 91.5906 35.8432 91.5254C36.1654 91.4602 36.4505 91.2306 36.5899 90.9295C36.7634 90.557 36.5713 90.2032 36.3049 89.9394C35.961 89.6011 35.5613 89.3093 35.1431 89.0734Z" fill="#565D70"/>
<path d="M31.794 72.3742C31.794 71.9862 31.8064 71.5951 31.8746 71.2134C31.9272 70.9092 32.014 70.6081 32.1038 70.3133C32.3919 69.3511 32.7234 68.3547 33.4329 67.644C33.4546 67.6222 33.4794 67.5974 33.5104 67.5881C33.5878 67.5602 33.6715 67.6222 33.7024 67.6998C33.7334 67.7743 33.7272 67.8612 33.7303 67.9419C33.7365 68.1219 33.7923 68.2958 33.848 68.4665C33.9937 68.9196 34.1393 69.3759 34.2849 69.8291C34.5048 70.5119 34.7248 71.2041 34.7744 71.921C34.824 72.638 34.6876 73.3923 34.2508 73.9603C34.1052 74.1496 33.9286 74.3172 33.7396 74.4631C33.5599 74.6028 33.3616 74.73 33.1417 74.7797C32.8443 74.848 32.519 74.7642 32.2897 74.5624C32.0264 74.3327 31.9334 73.9572 31.8962 73.6219C31.8436 73.206 31.7971 72.7901 31.794 72.3742Z" fill="#565D70"/>
<path d="M35.4311 76.7052C35.5922 76.3513 35.7657 76.0006 35.9856 75.6809C36.1622 75.4264 36.3636 75.1905 36.5681 74.9577C37.228 74.2004 37.9436 73.4337 38.8824 73.083C38.9133 73.0706 38.9443 73.0612 38.9753 73.0643C39.0558 73.0706 39.1085 73.1637 39.1054 73.2444C39.1023 73.3251 39.062 73.4027 39.0311 73.4772C38.9629 73.6448 38.9412 73.8248 38.9195 74.0017C38.8638 74.4766 38.808 74.9484 38.7522 75.4233C38.6686 76.1372 38.5818 76.8572 38.3309 77.5277C38.0799 78.2012 37.64 78.8282 37.008 79.1665C36.7973 79.2782 36.5681 79.3558 36.3326 79.4117C36.1126 79.4645 35.8803 79.4986 35.6572 79.4521C35.3598 79.39 35.0965 79.1789 34.9694 78.8996C34.8238 78.5799 34.8982 78.2012 35.0004 77.8815C35.1336 77.4811 35.2607 77.0838 35.4311 76.7052Z" fill="#565D70"/>
<path d="M38.5544 83.0019C38.9045 82.8342 39.2639 82.6822 39.6388 82.5797C39.9362 82.499 40.2429 82.4494 40.5496 82.4028C41.541 82.2507 42.582 82.1266 43.5269 82.4649C43.5579 82.4742 43.5888 82.4866 43.6105 82.5114C43.6694 82.5704 43.6477 82.6728 43.595 82.7349C43.5393 82.797 43.4618 82.828 43.3875 82.8653C43.2295 82.9491 43.0962 83.0732 42.9661 83.1943C42.6191 83.5202 42.2721 83.8461 41.9221 84.172C41.3985 84.6624 40.8687 85.159 40.2429 85.5097C39.6171 85.8605 38.8797 86.0591 38.1795 85.907C37.9441 85.8574 37.721 85.7674 37.5073 85.6587C37.3028 85.5563 37.1076 85.4322 36.9651 85.2521C36.7761 85.0131 36.7141 84.681 36.7947 84.3862C36.8907 84.0478 37.1882 83.8057 37.4732 83.6257C37.8264 83.4022 38.1765 83.1788 38.5544 83.0019Z" fill="#565D70"/>
<path d="M38.3344 89.4862C38.6845 89.3186 39.0439 89.1665 39.4188 89.0641C39.7162 88.9834 40.0229 88.9337 40.3296 88.8872C41.321 88.7351 42.362 88.6109 43.3069 88.9492C43.3379 88.9616 43.3689 88.971 43.3905 88.9958C43.4494 89.0548 43.4277 89.1572 43.3751 89.2193C43.3193 89.2813 43.2418 89.3124 43.1675 89.3496C43.0095 89.4334 42.8763 89.5576 42.7461 89.6786C42.3992 90.0045 42.0522 90.3304 41.7021 90.6563C41.1785 91.1467 40.6487 91.6434 40.0229 91.9941C39.3971 92.3448 38.6597 92.5435 37.9596 92.3914C37.7241 92.3417 37.5011 92.2517 37.2873 92.1431C37.0828 92.0406 36.8876 91.9165 36.7451 91.7365C36.5561 91.4975 36.4942 91.1654 36.5747 90.8705C36.6708 90.5322 36.9682 90.2901 37.2532 90.1101C37.6033 89.8866 37.9565 89.6662 38.3344 89.4862Z" fill="#565D70"/>
<path d="M45.9184 89.9456C45.9339 89.8369 45.9463 89.7314 45.9525 89.6228C46.284 84.787 40.317 87.4966 38.8082 89.7004C39.3411 88.6637 38.8268 87.2297 37.7611 86.7641C36.6953 86.3017 35.2981 86.91 34.9077 88.0057C35.2113 85.5412 35.518 83.0768 35.8217 80.6123C35.958 79.5105 36.0385 78.2379 35.2516 77.4557C34.3686 76.5836 32.7886 76.8691 31.9149 77.7506C31.0413 78.6321 30.7098 79.9078 30.4898 81.1338C29.421 80.0009 27.1067 80.9569 27.147 82.515C27.2802 79.3553 27.3948 76.0838 26.2051 73.1538C25.443 71.276 23.6523 69.4199 21.6881 69.9041C19.947 70.3324 19.126 72.3189 18.7976 74.085C18.0416 78.1572 18.5249 82.4498 20.17 86.2489C19.6991 85.1532 17.8898 85.3643 17.2764 86.3855C16.663 87.4097 16.9325 88.7289 17.391 89.8307C16.2509 88.6668 14.7514 87.7667 13.1249 87.7046C11.4984 87.6425 9.78207 88.5954 9.29257 90.1473C8.79997 91.7023 9.93388 93.6578 11.5604 93.7074C10.5287 93.8285 9.97105 95.1104 10.2344 96.116C11.5542 101.16 24.9287 101.874 28.9563 101.473C35.0038 100.868 40.9242 97.9162 44.4995 92.9904C45.1594 92.0779 45.7542 91.0567 45.9184 89.9456Z" fill="#F2EDE4"/>
<path d="M28.851 100.502C28.82 100.502 28.7891 100.486 28.7674 100.458C25.44 95.9888 23.8042 88.2448 23.0142 82.5399C22.1591 76.3633 22.0909 71.1737 22.0909 71.1209C22.0909 71.065 22.1374 71.0154 22.1932 71.0154C22.2489 71.0154 22.2954 71.0619 22.2985 71.1178C22.3016 71.3226 22.6145 91.839 28.9347 100.334C28.9687 100.381 28.9594 100.446 28.913 100.48C28.8944 100.496 28.8727 100.502 28.851 100.502Z" fill="#D9C9AC"/>
<path d="M26.1157 95.2967C26.0785 95.2967 26.0413 95.275 26.0227 95.2377C25.998 95.185 26.0196 95.1229 26.0692 95.0981C33.5821 91.3486 33.861 78.4025 33.861 78.2722C33.861 78.2163 33.9105 78.1697 33.9663 78.1697C34.0221 78.1697 34.0685 78.2163 34.0685 78.2753C34.0654 78.4056 33.7866 91.4759 26.1622 95.2843C26.1467 95.2936 26.1312 95.2967 26.1157 95.2967Z" fill="#D9C9AC"/>
<path d="M26.5673 96.8674C17.589 96.8674 11.6189 89.8807 11.5601 89.8093C11.5229 89.7658 11.5291 89.7007 11.5724 89.6634C11.6158 89.6262 11.6809 89.6324 11.7181 89.6758C11.7769 89.7472 17.7842 96.765 26.7656 96.6564C26.8213 96.6564 26.8678 96.7029 26.8709 96.7588C26.8709 96.8147 26.8244 96.8643 26.7687 96.8643C26.7005 96.8674 26.6354 96.8674 26.5673 96.8674Z" fill="#D9C9AC"/>
<path d="M25.2296 92.7113C25.2203 92.7113 25.2141 92.7113 25.2048 92.7082C19.8822 91.4232 18.6461 86.8078 18.6337 86.7643C18.6182 86.7085 18.6523 86.6526 18.708 86.6371C18.7638 86.6216 18.8196 86.6557 18.8351 86.7116C18.8475 86.7581 20.0557 91.2494 25.2543 92.5064C25.3101 92.5189 25.3442 92.5747 25.3318 92.6306C25.3194 92.6771 25.2791 92.7113 25.2296 92.7113Z" fill="#D9C9AC"/>
<path d="M24.7579 91.0565C24.7207 91.0565 24.6835 91.0348 24.665 90.9975C24.6402 90.9448 24.6619 90.8827 24.7114 90.8579C27.6051 89.4208 29.2409 81.7481 29.2564 81.6705C29.2687 81.6147 29.3245 81.5774 29.3803 81.5898C29.436 81.6022 29.4732 81.6581 29.4608 81.714C29.3927 82.0337 27.7879 89.5605 24.8044 91.0441C24.7889 91.0534 24.7734 91.0565 24.7579 91.0565Z" fill="#D9C9AC"/>
<path d="M22.9551 81.4064C22.9334 81.4064 22.9117 81.4002 22.89 81.3847C20.805 79.7676 19.9096 75.236 19.8724 75.0435C19.86 74.9877 19.8972 74.9318 19.9561 74.9225C20.0119 74.9101 20.0676 74.9473 20.0769 75.0063C20.0862 75.0528 20.994 79.6527 23.017 81.2202C23.0635 81.2543 23.0697 81.3195 23.0356 81.366C23.017 81.394 22.986 81.4064 22.9551 81.4064Z" fill="#D9C9AC"/>
<path d="M23.6246 85.8639C23.6091 85.8639 23.5936 85.8608 23.5781 85.8546C23.5254 85.8297 23.5038 85.7677 23.5285 85.7149C23.5533 85.6621 26.0535 80.4104 25.4153 76.4251C25.406 76.3692 25.4463 76.3165 25.502 76.3072C25.5578 76.2978 25.6136 76.3351 25.6198 76.3941C26.2673 80.4446 23.7392 85.7553 23.7144 85.808C23.702 85.8422 23.6649 85.8639 23.6246 85.8639Z" fill="#D9C9AC"/>
<path d="M27.5715 87.363C27.5343 87.363 27.4971 87.3413 27.4785 87.304C27.4413 87.2295 26.5708 85.4386 26.5212 83.7284C26.5181 83.6726 26.5646 83.6229 26.6234 83.6229C26.6823 83.6229 26.7288 83.6663 26.7288 83.7253C26.7752 85.3921 27.6551 87.1985 27.6644 87.2171C27.6892 87.2699 27.6675 87.332 27.6179 87.3568C27.6024 87.3599 27.587 87.363 27.5715 87.363Z" fill="#D9C9AC"/>
<path d="M19.944 91.2307C19.4328 91.2307 18.8534 91.1873 18.271 91.0507C18.2152 91.0383 18.1811 90.9824 18.1935 90.9265C18.2059 90.8707 18.2648 90.8365 18.3174 90.8489C19.9811 91.2338 21.6665 90.852 21.6851 90.8489C21.7409 90.8365 21.7966 90.8707 21.809 90.9265C21.8214 90.9824 21.7873 91.0383 21.7316 91.0507C21.6851 91.0631 20.9384 91.2307 19.944 91.2307Z" fill="#D9C9AC"/>
<path d="M19.2031 95.2962C19.1598 95.2962 19.1195 95.2714 19.104 95.228C19.0947 95.2062 18.2737 92.9498 17.558 91.8324C17.527 91.7827 17.5394 91.7206 17.589 91.6896C17.6386 91.6586 17.7005 91.6741 17.7315 91.7206C18.4596 92.8566 19.2651 95.0635 19.2992 95.1566C19.3178 95.2093 19.2899 95.2714 19.2372 95.29C19.2279 95.2963 19.2155 95.2962 19.2031 95.2962Z" fill="#D9C9AC"/>
<path d="M15.7925 96.9971C15.7616 96.9971 15.7306 96.9815 15.7089 96.9567C15.6748 96.9102 15.681 96.845 15.7275 96.8108C15.7306 96.8077 16.1333 96.488 16.1922 95.9573C16.2356 95.5538 16.0745 95.1286 15.712 94.6909C15.6748 94.6475 15.681 94.5823 15.7244 94.545C15.7677 94.5078 15.8328 94.514 15.87 94.5575C16.2696 95.0386 16.4493 95.5197 16.3967 95.9821C16.3285 96.6029 15.8731 96.9598 15.8545 96.9753C15.839 96.9909 15.8142 96.9971 15.7925 96.9971Z" fill="#D9C9AC"/>
<path d="M12.2294 92.2454C11.7709 92.2454 11.2442 92.1523 10.699 91.8699C10.6494 91.8419 10.6277 91.7798 10.6556 91.7302C10.6835 91.6805 10.7455 91.6588 10.795 91.6867C12.2976 92.4658 13.6887 91.696 13.7041 91.6898C13.7537 91.6619 13.8188 91.6805 13.8467 91.7302C13.8745 91.7798 13.856 91.845 13.8064 91.873C13.7661 91.8916 13.1217 92.2454 12.2294 92.2454Z" fill="#D9C9AC"/>
<path d="M31.0634 90.1844C31.0262 90.1844 30.9891 90.1627 30.9705 90.1255C30.9581 90.1006 29.756 87.6114 30.3508 85.0848C30.3632 85.0289 30.4221 84.9948 30.4748 85.0072C30.5305 85.0196 30.5646 85.0755 30.5522 85.1314C29.976 87.5896 31.144 90.0106 31.1564 90.0355C31.1811 90.0882 31.1595 90.1503 31.1099 90.1751C31.0944 90.1813 31.0789 90.1844 31.0634 90.1844Z" fill="#D9C9AC"/>
<path d="M27.4043 98.1768C27.364 98.1768 27.3268 98.1551 27.3113 98.1179C27.2865 98.0651 27.3082 98.003 27.3609 97.9813C27.429 97.9503 34.0714 94.7999 37.0301 88.7257C37.0549 88.6729 37.1168 88.6512 37.1695 88.6791C37.2222 88.7039 37.2438 88.766 37.216 88.8188C34.2263 94.9613 27.5158 98.1396 27.4476 98.1737C27.4352 98.1737 27.4198 98.1768 27.4043 98.1768Z" fill="#D9C9AC"/>
<path d="M28.5223 100.042C28.4727 100.042 28.4293 100.005 28.42 99.955C28.4107 99.8992 28.451 99.8464 28.5068 99.8371C34.8889 98.8252 44.1058 88.7998 44.1987 88.7005C44.2359 88.6571 44.304 88.654 44.3443 88.6943C44.3877 88.7316 44.3908 88.7999 44.3505 88.8402C44.2576 88.9426 34.9911 99.0208 28.5378 100.042C28.5316 100.042 28.5285 100.042 28.5223 100.042Z" fill="#D9C9AC"/>
<path d="M32.8075 94.4588C32.7517 94.4588 32.7052 94.4153 32.7021 94.3563C32.7021 94.3346 32.6494 92.165 33.4581 90.042C33.4797 89.9893 33.5386 89.9613 33.5913 89.9831C33.6439 90.0048 33.6718 90.0637 33.6501 90.1165C32.8539 92.1992 32.9066 94.3284 32.9066 94.3501C32.9128 94.4091 32.8694 94.4557 32.8075 94.4588C32.8105 94.4588 32.8105 94.4588 32.8075 94.4588Z" fill="#D9C9AC"/>
<path d="M35.5277 92.8509C34.9174 92.8509 34.5332 92.7143 34.4991 92.7019C34.4465 92.6832 34.4186 92.6212 34.4372 92.5684C34.4557 92.5156 34.5146 92.4877 34.5704 92.5063C34.589 92.5125 36.2836 93.1023 38.3036 91.69C38.3501 91.6559 38.4151 91.6683 38.4492 91.7148C38.4833 91.7614 38.4709 91.8266 38.4244 91.8607C37.2812 92.6615 36.2465 92.8509 35.5277 92.8509Z" fill="#D9C9AC"/>
<path d="M19.5752 51.7068C20.7555 51.7068 20.7555 49.8693 19.5752 49.8693C18.3948 49.8724 18.3948 51.7068 19.5752 51.7068Z" fill="#8E97FD"/>
<path d="M85.5711 38.1176C86.1597 38.1176 86.1628 37.1989 85.5711 37.1989C84.9824 37.1989 84.9793 38.1176 85.5711 38.1176Z" fill="#8E97FD"/>
<path d="M36.3175 30.8922C36.9061 30.8922 36.9092 29.9734 36.3175 29.9734C35.7288 29.9734 35.7288 30.8922 36.3175 30.8922Z" fill="#8E97FD"/>
<path d="M70.9543 89.4833C71.5429 89.4833 71.546 88.5645 70.9543 88.5645C70.3657 88.5645 70.3657 89.4833 70.9543 89.4833Z" fill="#59D6B8"/>
<path d="M13.7541 32.8474C14.3427 32.8474 14.3458 31.9287 13.7541 31.9287C13.1655 31.9287 13.1655 32.8474 13.7541 32.8474Z" fill="#59D6B8"/>
<path d="M3.93263 67.3992C4.52127 67.3992 4.52437 66.4805 3.93263 66.4805C3.3409 66.4805 3.3409 67.3992 3.93263 67.3992Z" fill="#8ABFA3"/>
<path d="M4.84696 57.6473C4.84696 57.6069 4.84696 57.5666 4.84696 57.5262C4.84696 57.0452 4.42562 56.5858 3.92992 56.6075C3.43422 56.6292 3.01288 57.011 3.01288 57.5262C3.01288 57.5666 3.01288 57.6069 3.01288 57.6473C3.01288 58.1284 3.43422 58.5878 3.92992 58.566C4.42871 58.5412 4.84696 58.1594 4.84696 57.6473Z" fill="#8E97FD"/>
<path d="M15.3093 82.5647C16.4897 82.5647 16.4897 80.7272 15.3093 80.7272C14.1289 80.7272 14.1289 82.5647 15.3093 82.5647Z" fill="#E9F2DE"/>
</svg>
