<svg width="161" height="210" viewBox="0 0 161 210" fill="none" xmlns="http://www.w3.org/2000/svg">
<path d="M120.518 40.3663C120.518 40.3663 103.312 28.9702 82.3532 34.9819C61.3923 40.9917 47.0849 59.7787 35.0902 74.69C23.0935 89.6037 23.6174 107.965 35.8383 119.343C48.0592 130.721 60.3693 121.557 80.2517 125.948C100.134 130.34 104.775 134.497 123.806 127.449C142.837 120.401 152.039 94.7867 143.73 72.0439C135.419 49.2993 120.518 40.3663 120.518 40.3663Z" fill="#F1B869"/>
<path d="M66.3017 109.136C65.4712 109.411 64.5722 108.957 64.298 108.128L58.7523 91.3478C58.5143 90.6278 57.7377 90.2359 57.0193 90.4734C56.3008 90.7108 55.9107 91.4883 56.1487 92.2083L60.2885 104.734C60.5322 105.471 60.1324 106.268 59.3967 106.511C58.6611 106.754 57.8653 106.353 57.6216 105.615L55.3361 98.7002C55.16 98.1674 54.5862 97.8779 54.0545 98.0536C53.5229 98.2293 53.2346 98.8038 53.4107 99.3366L54.2608 101.909L52.1399 102.61L52.0448 102.321L53.8782 101.716L53.1233 99.4316C52.8949 98.7403 53.2697 97.9935 53.9593 97.7656C54.649 97.5376 55.395 97.914 55.6235 98.6053L57.909 105.521C58.1003 106.099 58.7239 106.414 59.3015 106.223C59.8792 106.032 60.1924 105.408 60.0011 104.829L55.8613 92.3033C55.571 91.4248 56.0476 90.475 56.9241 90.1853C57.8006 89.8957 58.7493 90.3744 59.0396 91.2528L64.5854 108.033C64.8072 108.704 65.5341 109.07 66.2065 108.848C66.8761 108.627 67.2413 107.899 67.0195 107.228L60.2534 86.756C59.9012 85.6904 60.4796 84.5376 61.5429 84.1861C62.6062 83.8347 63.7577 84.4158 64.1099 85.4814L70.8446 105.858C71.0826 106.579 71.8592 106.97 72.5776 106.733C73.2961 106.495 73.6862 105.718 73.4482 104.998L68.0814 88.7597C67.7444 87.7401 68.2979 86.6371 69.3152 86.3009C70.3325 85.9646 71.4343 86.5206 71.7713 87.5402L75.7303 99.5187C75.9368 100.144 76.614 100.485 77.2376 100.279C77.8612 100.073 78.2013 99.3953 77.9948 98.7703L75.8425 92.2583C75.5941 91.5065 76.0015 90.6946 76.7515 90.4467C77.5016 90.1988 78.3155 90.6071 78.5639 91.3588L79.2179 93.3375L81.3387 92.6365L81.4339 92.9246L79.0257 93.7205L78.2766 91.4538C78.0805 90.8605 77.4387 90.5391 76.8467 90.7347C76.2547 90.9304 75.9348 91.5728 76.1299 92.1633L78.2821 98.6753C78.5411 99.4587 78.1144 100.309 77.3327 100.567C76.5511 100.826 75.7018 100.397 75.4429 99.6137L71.4839 87.6351C71.1993 86.774 70.2697 86.3049 69.4104 86.5889C68.5512 86.8729 68.0842 87.8035 68.3688 88.6647L73.7356 104.903C74.0259 105.781 73.5493 106.731 72.6728 107.021C71.7963 107.311 70.8476 106.832 70.5572 105.953L63.8226 85.5764C63.5227 84.6691 62.5433 84.175 61.6381 84.4742C60.7329 84.7733 60.2409 85.7538 60.5407 86.661L67.3068 107.133C67.5839 107.962 67.1322 108.862 66.3017 109.136Z" fill="#FEDEA5"/>
<path d="M94.033 99.9699C93.2025 100.244 92.3034 99.7907 92.0293 98.9612L86.4835 82.1815C86.2456 81.4614 85.4689 81.0696 84.7505 81.307C84.0321 81.5445 83.6419 82.3219 83.8799 83.042L88.0197 95.5677C88.2634 96.3051 87.8637 97.1017 87.128 97.3448C86.3923 97.588 85.5966 97.1865 85.3529 96.4491L83.0674 89.5339C82.8913 89.0011 82.3174 88.7115 81.7858 88.8872C81.2542 89.0629 80.9659 89.6374 81.142 90.1703L81.992 92.7422L79.8712 93.4432L79.776 93.1552L81.6095 92.5492L80.8546 90.2652C80.6262 89.574 81.0009 88.8272 81.6906 88.5992C82.3803 88.3713 83.1263 88.7477 83.3548 89.4389L85.6403 96.3542C85.8316 96.9331 86.4552 97.2477 87.0328 97.0568C87.6104 96.8659 87.9237 96.2416 87.7324 95.6627L83.5925 83.137C83.3022 82.2585 83.7788 81.3087 84.6553 81.019C85.5318 80.7293 86.4806 81.208 86.7709 82.0865L92.3167 98.8662C92.5385 99.5373 93.2653 99.9041 93.9378 99.6818C94.6074 99.4605 94.9725 98.7329 94.7507 98.0618L87.9846 77.5897C87.6324 76.524 88.2109 75.3712 89.2742 75.0198C90.3375 74.6684 91.489 75.2494 91.8412 76.3151L98.5759 96.6921C98.8138 97.4122 99.5905 97.804 100.309 97.5666C101.027 97.3291 101.417 96.5517 101.179 95.8316L95.8127 79.5933C95.4757 78.5738 96.0292 77.4708 97.0465 77.1345C98.0638 76.7983 99.1656 77.3542 99.5026 78.3738L103.462 90.3524C103.668 90.9774 104.345 91.319 104.969 91.1129C105.592 90.9068 105.933 90.2289 105.726 89.6039L103.574 83.0919C103.325 82.3402 103.733 81.5283 104.486 81.2794C105.236 81.0315 106.047 81.4408 106.295 82.1925L106.949 84.1711L109.07 83.4702L109.165 83.7582L106.757 84.5541L106.008 82.2875C105.812 81.6941 105.173 81.3718 104.581 81.5674C103.989 81.7631 103.666 82.4065 103.861 82.9969L106.013 89.509C106.272 90.2924 105.846 91.1426 105.064 91.4009C104.282 91.6593 103.433 91.2307 103.174 90.4473L99.2152 78.4688C98.9306 77.6076 98.0009 77.1386 97.1417 77.4225C96.2824 77.7065 95.8154 78.6372 96.1 79.4984L101.467 95.7366C101.757 96.6151 101.281 97.5649 100.404 97.8546C99.5276 98.1443 98.5788 97.6655 98.2885 96.7871L91.5538 76.4101C91.254 75.5028 90.2746 75.0086 89.3694 75.3078C88.4641 75.607 87.9721 76.5875 88.272 77.4947L95.0381 97.9668C95.3151 98.7953 94.8635 99.6954 94.033 99.9699Z" fill="#FEDEA5"/>
<path d="M121.765 90.8048C120.934 91.0793 120.035 90.6256 119.761 89.7961L114.215 73.0164C113.977 72.2963 113.201 71.9045 112.482 72.1419C111.764 72.3794 111.374 73.1569 111.611 73.8769L115.751 86.4027C115.995 87.14 115.595 87.9366 114.86 88.1797C114.124 88.4229 113.328 88.0214 113.084 87.2841L110.799 80.3688C110.623 79.836 110.049 79.5464 109.517 79.7221C108.986 79.8979 108.697 80.4723 108.874 81.0052L109.724 83.5771L107.603 84.2781L107.508 83.9901L109.341 83.3841L108.586 81.1001C108.358 80.4089 108.732 79.6621 109.422 79.4341C110.112 79.2062 110.858 79.5826 111.086 80.2738L113.372 87.1891C113.563 87.768 114.187 88.0826 114.764 87.8917C115.342 87.7008 115.655 87.0765 115.464 86.4976L111.324 73.9719C111.034 73.0934 111.51 72.1436 112.387 71.8539C113.263 71.5642 114.212 72.043 114.502 72.9214L120.048 89.7012C120.27 90.3722 120.997 90.739 121.669 90.5167C122.342 90.2945 122.704 89.5678 122.482 88.8967L115.716 68.4246C115.364 67.3589 115.942 66.2061 117.006 65.8547C118.069 65.5033 119.221 66.0843 119.573 67.15L126.307 87.527C126.545 88.2471 127.322 88.6389 128.04 88.4015C128.759 88.164 129.149 87.3866 128.911 86.6665L123.544 70.4283C123.207 69.4087 123.761 68.3057 124.778 67.9694C125.795 67.6332 126.897 68.1892 127.234 69.2087L131.193 81.1873C131.4 81.8123 132.077 82.1539 132.7 81.9478C133.324 81.7417 133.664 81.0638 133.458 80.4388L131.305 73.9268C131.057 73.1751 131.464 72.3632 132.217 72.1143C132.967 71.8664 133.778 72.2757 134.027 73.0274L134.681 75.006L136.802 74.3051L136.897 74.5931L134.489 75.389L133.739 73.1224C133.543 72.529 132.904 72.2067 132.312 72.4023C131.72 72.598 131.398 73.2414 131.593 73.8318L133.745 80.3439C134.004 81.1273 133.577 81.9775 132.796 82.2359C132.014 82.4942 131.165 82.0656 130.906 81.2822L126.947 69.3037C126.662 68.4425 125.733 67.9735 124.873 68.2575C124.014 68.5414 123.547 69.4721 123.832 70.3333L129.198 86.5716C129.489 87.45 129.012 88.3998 128.136 88.6895C127.259 88.9792 126.31 88.5005 126.02 87.622L119.285 67.245C118.986 66.3377 118.006 65.8435 117.101 66.1427C116.196 66.4419 115.704 67.4224 116.004 68.3296L122.77 88.8017C123.047 89.6302 122.595 90.5303 121.765 90.8048Z" fill="#FEDEA5"/>
<path d="M78.9433 44.3502L78.0609 41.6803L76.1969 43.7756L78.9433 44.3502Z" fill="#263238"/>
<path d="M75.3875 42.4933L74.9679 42.632L75.8693 45.3595L76.2889 45.2208L75.3875 42.4933Z" fill="#263238"/>
<path d="M91.1454 40.317L93.0084 38.2189L90.2629 37.6471L91.1454 40.317Z" fill="#263238"/>
<path d="M93.3168 36.5681L92.8973 36.7067L93.7987 39.4342L94.2183 39.2956L93.3168 36.5681Z" fill="#263238"/>
<path d="M83.4565 37.076C81.4966 37.7238 80.4367 39.8408 81.085 41.8021C81.7342 43.7664 83.8488 44.831 85.8058 44.1842C87.7657 43.5365 88.8256 41.4195 88.1774 39.4581C87.5282 37.4938 85.4164 36.4282 83.4565 37.076ZM84.747 42.6684L83.6923 43.017L82.4539 39.2699L83.5086 38.9213L84.747 42.6684ZM86.8075 41.9874L85.7528 42.336L84.5144 38.5889L85.5691 38.2403L86.8075 41.9874Z" fill="#263238"/>
<path d="M123.262 57.2889C123.023 57.3677 122.767 57.2384 122.688 56.9993L121.398 53.0967C121.319 52.8577 121.448 52.6011 121.686 52.5222C121.925 52.4434 122.181 52.5727 122.26 52.8118L123.55 56.7144C123.628 56.9506 123.5 57.2101 123.262 57.2889Z" fill="#FFDB9D"/>
<path d="M121.68 57.2395C121.441 57.3184 121.185 57.189 121.106 56.95L120.157 54.0785C120.078 53.8394 120.207 53.5828 120.445 53.504C120.684 53.4252 120.94 53.5545 121.019 53.7935L121.968 56.6651C122.047 56.9041 121.918 57.1607 121.68 57.2395Z" fill="#FFDB9D"/>
<path d="M120.269 57.7057C120.031 57.7845 119.774 57.6552 119.695 57.4161L118.746 54.5446C118.667 54.3055 118.796 54.0489 119.034 53.9701C119.273 53.8913 119.529 54.0206 119.608 54.2597L120.557 57.1312C120.636 57.3702 120.508 57.6268 120.269 57.7057Z" fill="#FFDB9D"/>
<path d="M137.195 52.1118C136.957 52.1906 136.7 52.0613 136.621 51.8222L135.672 48.9507C135.593 48.7116 135.722 48.455 135.961 48.3762C136.199 48.2974 136.456 48.4267 136.535 48.6658L137.484 51.5373C137.563 51.7763 137.434 52.0329 137.195 52.1118Z" fill="#FFDB9D"/>
<path d="M135.784 52.5779C135.546 52.6567 135.289 52.5274 135.21 52.2883L134.261 49.4168C134.182 49.1778 134.311 48.9212 134.55 48.8423C134.788 48.7635 135.044 48.8928 135.123 49.1319L136.072 52.0034C136.151 52.2424 136.023 52.499 135.784 52.5779Z" fill="#FFDB9D"/>
<path d="M124.673 56.8223C124.434 56.9011 124.178 56.7718 124.099 56.5327L122.809 52.6301C122.73 52.391 122.859 52.1344 123.097 52.0556C123.336 51.9768 123.592 52.1061 123.671 52.3452L124.961 56.2478C125.039 56.4839 124.908 56.7444 124.673 56.8223Z" fill="#FFDB9D"/>
<path d="M126.307 57.0423C126.069 57.1211 125.812 56.9918 125.733 56.7527L123.989 51.4763C123.91 51.2373 124.039 50.9806 124.278 50.9018C124.516 50.823 124.772 50.9523 124.851 51.1914L126.595 56.4678C126.674 56.7069 126.546 56.9635 126.307 57.0423Z" fill="#FFDB9D"/>
<path d="M128.076 57.6594C127.838 57.7382 127.581 57.6089 127.502 57.3698L125.044 49.9304C124.965 49.6914 125.093 49.4347 125.332 49.3559C125.57 49.2771 125.827 49.4064 125.906 49.6455L128.364 57.0849C128.443 57.3211 128.315 57.5805 128.076 57.6594Z" fill="#FFDB9D"/>
<path d="M134.547 53.5589C134.308 53.6378 134.052 53.5084 133.973 53.2694L132.683 49.3668C132.604 49.1277 132.733 48.8711 132.972 48.7923C133.21 48.7135 133.466 48.8428 133.545 49.0818L134.835 52.9844C134.913 53.2206 134.783 53.4811 134.547 53.5589Z" fill="#FFDB9D"/>
<path d="M133.135 54.0256C132.897 54.1044 132.64 53.9751 132.561 53.736L131.272 49.8334C131.193 49.5944 131.321 49.3377 131.56 49.2589C131.798 49.1801 132.055 49.3094 132.134 49.5485L133.424 53.4511C133.502 53.6872 133.374 53.9467 133.135 54.0256Z" fill="#FFDB9D"/>
<path d="M131.951 55.1773C131.713 55.2562 131.456 55.1268 131.377 54.8878L129.633 49.6113C129.554 49.3723 129.683 49.1157 129.922 49.0368C130.16 48.958 130.416 49.0873 130.495 49.3264L132.239 54.6028C132.318 54.8419 132.19 55.0985 131.951 55.1773Z" fill="#FFDB9D"/>
<path d="M130.898 56.7266C130.659 56.8055 130.403 56.6761 130.324 56.4371L127.865 48.9977C127.786 48.7586 127.915 48.502 128.154 48.4232C128.392 48.3443 128.648 48.4737 128.727 48.7127L131.186 56.1522C131.264 56.3883 131.136 56.6478 130.898 56.7266Z" fill="#FFDB9D"/>
<path d="M129.941 58.5664C129.703 58.6452 129.446 58.5159 129.367 58.2768L125.999 48.0869C125.92 47.8478 126.049 47.5912 126.288 47.5124C126.526 47.4335 126.782 47.5629 126.861 47.8019L130.229 57.9919C130.308 58.231 130.18 58.4876 129.941 58.5664Z" fill="#FFDB9D"/>
<path d="M43.824 72.6467C42.9469 71.2178 41.1762 70.5475 39.5612 71.0812C37.9346 71.6188 36.9044 73.2372 37.0764 74.9247C35.4848 75.7319 34.6886 77.6148 35.2587 79.34C35.8575 81.1516 37.706 82.1923 39.5621 81.761L39.394 81.0402C37.9143 81.3855 36.4378 80.5541 35.9599 79.1082C35.4802 77.6566 36.2107 76.067 37.62 75.4894L37.895 75.3762L37.8419 75.0806C37.5814 73.6556 38.4198 72.238 39.7934 71.784C41.1699 71.329 42.689 71.9707 43.3279 73.2771L43.4862 73.6017L43.8129 73.4522C43.9126 73.4065 44.0132 73.3637 44.1166 73.3295C45.6455 72.8242 47.2991 73.661 47.8046 75.1903C48.311 76.7226 47.4779 78.3781 45.9519 78.8824L46.1842 79.5852C48.0981 78.9526 49.1397 76.8768 48.5058 74.9586C47.8671 73.0164 45.7467 71.9537 43.824 72.6467Z" fill="#4A5161"/>
<path d="M43.6075 75.8396C43.5713 75.7302 43.4844 75.6407 43.3734 75.6039C43.2624 75.5671 43.1408 75.5849 43.0449 75.6518L39.7254 77.9629C39.5902 78.0555 39.5353 78.227 39.5868 78.3825L40.9832 82.6077C40.8473 82.6015 40.7056 82.6164 40.5705 82.661C39.9727 82.8586 39.648 83.5058 39.846 84.1049C40.044 84.704 40.6905 85.0302 41.2882 84.8327C41.8543 84.6455 42.1695 84.0558 42.0355 83.4867L42.047 83.4829L40.9819 80.26L43.6726 78.3899L44.2894 80.2562C44.1563 80.2491 44.0185 80.2659 43.8834 80.3106C43.2857 80.5081 42.9609 81.1554 43.1589 81.7544C43.3569 82.3535 44.0034 82.6797 44.6011 82.4822C45.1989 82.2846 45.5237 81.6374 45.3257 81.0383C45.3238 81.0325 45.319 81.0277 45.3171 81.022L43.6046 75.8406L43.6075 75.8396ZM43.4289 77.6526L40.7391 79.5255L40.3707 78.4109L43.0614 76.5408L43.4289 77.6526Z" fill="#4A5161"/>
<path d="M73.3685 59.6003C73.2362 59.2 73.6394 58.5875 73.463 58.2177C73.2808 57.8402 72.5515 57.7746 72.3233 57.4315C72.0933 57.0826 72.3243 56.3832 72.0559 56.0726C71.7827 55.7572 71.0597 55.8843 70.752 55.609C70.4404 55.3318 70.4849 54.5983 70.1397 54.3642C69.7946 54.13 69.1325 54.4415 68.7614 54.2542C68.3903 54.067 68.2452 53.3482 67.852 53.2098C67.4626 53.0733 66.8979 53.5443 66.4902 53.4586C66.0864 53.3748 65.7573 52.7168 65.3419 52.6848C64.9303 52.6547 64.5109 53.2566 64.0944 53.2792C63.6846 53.3029 63.1965 52.7518 62.7856 52.83C62.3834 52.9055 62.1342 53.598 61.7347 53.7301C61.3353 53.8621 60.7233 53.4573 60.3544 53.6336C59.9779 53.8155 59.9133 54.5461 59.5711 54.7742C59.2232 55.0042 58.5248 54.7718 58.2151 55.0403C57.9005 55.3135 58.0284 56.038 57.754 56.3459C57.4777 56.6577 56.7455 56.6122 56.5122 56.9576C56.2789 57.3031 56.5907 57.9668 56.4043 58.3383C56.2179 58.7098 55.5006 58.8542 55.3629 59.2479C55.2272 59.6378 55.6981 60.2042 55.6131 60.6125C55.53 61.0169 54.8736 61.3457 54.8422 61.7618C54.8127 62.1741 55.4141 62.5951 55.4372 63.0124C55.4614 63.4229 54.9119 63.9112 54.9906 64.3229C55.0693 64.725 55.7581 64.9765 55.8904 65.3769C56.0227 65.7772 55.6195 66.3897 55.7959 66.7595C55.978 67.137 56.7074 67.2026 56.9355 67.5457C57.1656 67.8946 56.9345 68.5939 57.2029 68.9046C57.4761 69.22 58.1991 69.0929 58.5069 69.3681C58.8184 69.6453 58.774 70.3789 59.1191 70.613C59.4643 70.8472 60.1264 70.5357 60.4975 70.7229C60.8686 70.9102 61.0137 71.629 61.4069 71.7674C61.7962 71.9038 62.361 71.4329 62.7686 71.5186C63.1725 71.6023 63.5015 72.2603 63.9169 72.2924C64.3285 72.3225 64.748 71.7206 65.1645 71.6979C65.5743 71.6743 66.0624 72.2254 66.4732 72.1471C66.8745 72.0688 67.1247 71.3791 67.5242 71.2471C67.9236 71.1151 68.5355 71.5199 68.9044 71.3436C69.281 71.1617 69.3456 70.4311 69.6877 70.203C70.0357 69.973 70.7341 70.2054 71.0438 69.9369C71.3583 69.6636 71.2304 68.9392 71.5048 68.6312C71.7811 68.3195 72.5134 68.365 72.7467 68.0195C72.9799 67.6741 72.6681 67.0104 72.8546 66.6389C73.041 66.2674 73.7583 66.1229 73.8959 65.7292C74.0316 65.3393 73.5607 64.773 73.6457 64.3647C73.7288 63.9602 74.3852 63.6315 74.4166 63.2154C74.4461 62.8031 73.8448 62.3821 73.8216 61.9648C73.7975 61.5543 74.347 61.066 74.2683 60.6543C74.1915 60.2484 73.5008 60.0006 73.3685 59.6003Z" fill="#4A5161"/>
<path d="M66.5727 72.2765C66.5497 72.2841 66.5258 72.2888 66.5018 72.2936C66.2318 72.3445 65.9669 72.1988 65.7125 72.0561C65.5212 71.9499 65.3261 71.8419 65.1758 71.8501C65.0197 71.8601 64.8338 71.9919 64.6536 72.1217C64.4197 72.2917 64.1743 72.4654 63.9062 72.4454C63.6344 72.4234 63.4156 72.2146 63.2082 72.0116C63.0525 71.8586 62.8891 71.7017 62.7379 71.6686C62.5867 71.6355 62.374 71.7154 62.1671 71.7934C61.895 71.8961 61.6143 72.0016 61.3579 71.9107C61.1015 71.8197 60.946 71.5612 60.7971 71.3133C60.6835 71.124 60.5681 70.9289 60.4303 70.8595C60.2926 70.79 60.0676 70.8132 59.8483 70.8346C59.5582 70.8634 59.2585 70.8921 59.0329 70.7399C58.8072 70.5876 58.7245 70.2987 58.6446 70.0184C58.5837 69.8053 58.521 69.5864 58.4044 69.4844C58.2906 69.3814 58.0657 69.3471 57.8494 69.31C57.5623 69.2611 57.2628 69.2132 57.0861 69.0064C56.9103 68.8025 56.9032 68.5014 56.8999 68.2117C56.8965 67.9892 56.8912 67.761 56.8063 67.6293C56.7232 67.5034 56.5166 67.4087 56.3215 67.3199C56.0546 67.1972 55.7782 67.0745 55.66 66.8229C55.5446 66.5799 55.615 66.2915 55.6854 66.0126C55.7385 65.797 55.7954 65.5737 55.7459 65.424C55.6964 65.2742 55.5176 65.1288 55.3465 64.9873C55.1238 64.8053 54.8916 64.6137 54.8432 64.3517C54.792 64.0811 54.9371 63.8159 55.0793 63.5613C55.1849 63.3698 55.2925 63.1745 55.2842 63.0239C55.2739 62.8676 55.1422 62.6811 55.0133 62.5033C54.8433 62.2687 54.6695 62.0227 54.6892 61.7542C54.7108 61.4819 54.9189 61.2629 55.1213 61.0555C55.2738 60.8997 55.4302 60.7362 55.463 60.5847C55.4958 60.4333 55.4158 60.2202 55.3377 60.0128C55.2348 59.7401 55.1291 59.4587 55.2196 59.202C55.31 58.9453 55.5678 58.7898 55.8151 58.641C56.0039 58.5274 56.1985 58.412 56.2677 58.2742C56.3368 58.1363 56.3133 57.9108 56.2917 57.6911C56.2626 57.4005 56.2335 57.1002 56.3861 56.8772C56.5378 56.6514 56.8261 56.5689 57.1058 56.4892C57.3184 56.4285 57.5368 56.3659 57.6385 56.2493C57.7412 56.1355 57.7751 55.9102 57.8119 55.6936C57.8603 55.406 57.9078 55.106 58.1139 54.9292C58.3172 54.7534 58.6178 54.7467 58.9069 54.7438C59.129 54.7407 59.3569 54.7357 59.4882 54.6508C59.6138 54.5677 59.708 54.3609 59.7964 54.1655C59.9185 53.8983 60.0406 53.6216 60.2888 53.5044C60.5312 53.3892 60.8192 53.4601 61.0976 53.531C61.3129 53.5844 61.5359 53.6417 61.6853 53.5923C61.8347 53.543 61.9796 53.3641 62.1207 53.1929C62.302 52.97 62.493 52.7376 62.7544 52.6895C63.0245 52.6386 63.2894 52.7843 63.5466 52.9261C63.7379 53.0322 63.933 53.1402 64.0833 53.1321C64.2394 53.122 64.4253 52.9903 64.6027 52.8614C64.8366 52.6914 65.082 52.5177 65.35 52.5377C65.6218 52.5597 65.8407 52.7685 66.048 52.9715C66.2038 53.1245 66.3672 53.2813 66.5184 53.3144C66.6696 53.3475 66.8851 53.2667 67.0892 53.1897C67.3612 53.087 67.6419 52.9814 67.8983 53.0724C68.1547 53.1634 68.3103 53.4219 68.4601 53.6726C68.5737 53.8619 68.6891 54.057 68.8269 54.1265C68.9646 54.196 69.1896 54.1727 69.4089 54.1514C69.699 54.1226 69.9987 54.0938 70.2243 54.2461C70.45 54.3983 70.5327 54.6873 70.6126 54.9675C70.6735 55.1806 70.7362 55.3995 70.8528 55.5015C70.9666 55.6045 71.1915 55.6388 71.4077 55.6759C71.6948 55.7248 71.9944 55.7728 72.1711 55.9795C72.3469 56.1834 72.354 56.4846 72.3573 56.7742C72.3607 56.9967 72.366 57.225 72.4509 57.3566C72.534 57.4825 72.7406 57.5772 72.9357 57.6661C73.2026 57.7887 73.479 57.9114 73.5963 58.1602C73.7117 58.4032 73.6412 58.6916 73.5708 58.9705C73.5178 59.1861 73.4609 59.4093 73.5104 59.5591C73.5599 59.7089 73.7386 59.8543 73.9097 59.9958C74.1324 60.1778 74.3647 60.3694 74.413 60.6313C74.4642 60.9019 74.3191 61.1671 74.1779 61.4247C74.0723 61.6161 73.9618 61.8124 73.973 61.962C73.9833 62.1184 74.115 62.3048 74.2449 62.4856C74.4148 62.7201 74.5886 62.9662 74.569 63.2346C74.5474 63.5069 74.3392 63.7259 74.1368 63.9333C73.9843 64.0892 73.828 64.2527 73.7952 64.4041C73.7623 64.5555 73.8423 64.7687 73.9204 64.9761C74.0233 65.2488 74.129 65.5301 74.0386 65.7868C73.9481 66.0436 73.6903 66.199 73.4402 66.3488C73.2514 66.4623 73.0568 66.5777 72.9876 66.7156C72.9184 66.8535 72.9419 67.0789 72.9635 67.2986C72.9927 67.5893 73.0218 67.8896 72.8701 68.1154C72.7175 68.3384 72.4301 68.4238 72.1504 68.5034C71.9378 68.5641 71.7194 68.6267 71.6177 68.7434C71.5151 68.8572 71.4811 69.0824 71.4443 69.2991C71.3959 69.5866 71.3485 69.8866 71.1423 70.0634C70.939 70.2392 70.6384 70.2459 70.3493 70.2488C70.1272 70.2519 69.9022 70.256 69.768 70.3419C69.6425 70.4249 69.5483 70.6318 69.4598 70.8271C69.3377 71.0943 69.2156 71.3711 68.9646 71.4892C68.726 71.6064 68.4342 71.5335 68.1557 71.4626C67.9404 71.4092 67.7175 71.3519 67.568 71.4013C67.4186 71.4506 67.2737 71.6295 67.1327 71.8007C66.9696 71.992 66.7997 72.2015 66.5727 72.2765ZM64.9753 71.5809C65.0328 71.5619 65.0921 71.5487 65.1544 71.5441C65.3918 71.5295 65.6299 71.6616 65.8566 71.788C66.0641 71.9047 66.2821 72.0243 66.444 71.9932C66.5991 71.9611 66.7517 71.7765 66.9014 71.5928C67.0693 71.3872 67.2449 71.1758 67.4777 71.0989C67.7104 71.0219 67.9784 71.0899 68.2348 71.1521C68.4606 71.2085 68.697 71.2677 68.8407 71.2011C68.9892 71.1296 69.0901 70.9046 69.1901 70.6862C69.2968 70.4497 69.4093 70.2017 69.6087 70.0719C69.8128 69.9373 70.0857 69.9334 70.3489 69.9295C70.5835 69.9254 70.8276 69.9214 70.9494 69.8173C71.0731 69.7093 71.1138 69.4658 71.1515 69.2329C71.1932 68.9732 71.2358 68.7067 71.396 68.5259C71.5562 68.3452 71.8177 68.2684 72.0715 68.1972C72.2986 68.1318 72.5342 68.0635 72.6244 67.9315C72.7166 67.7956 72.6902 67.5519 72.6667 67.3169C72.6404 67.054 72.6151 66.7844 72.7218 66.5671C72.8284 66.3497 73.0632 66.2114 73.2894 66.076C73.4916 65.9548 73.7015 65.8279 73.7564 65.6756C73.8084 65.5243 73.7226 65.2938 73.6398 65.072C73.5455 64.8252 73.4512 64.5689 73.5004 64.3322C73.5497 64.0954 73.7377 63.9023 73.9209 63.714C74.0878 63.5438 74.2585 63.366 74.2684 63.203C74.2792 63.0429 74.137 62.8439 74.0004 62.6526C73.8467 62.4382 73.6873 62.2162 73.6734 61.9716C73.6585 61.7337 73.7901 61.4953 73.9159 61.2684C74.0322 61.0607 74.1513 60.8424 74.12 60.6803C74.0906 60.5238 73.9033 60.3717 73.7197 60.2215C73.5142 60.053 73.303 59.8768 73.2259 59.6435C73.1488 59.4103 73.2163 59.1419 73.278 58.8851C73.334 58.659 73.3928 58.4223 73.3261 58.2782C73.2546 58.1293 73.0298 58.0279 72.8117 57.9275C72.5755 57.8203 72.3277 57.7073 72.1979 57.5074C72.0633 57.3027 72.059 57.0293 72.0548 56.7656C72.0504 56.5306 72.0461 56.286 71.942 56.1639C71.834 56.0398 71.5909 55.9988 71.3584 55.9606C71.099 55.9186 70.833 55.8755 70.6523 55.7148C70.4717 55.554 70.3947 55.292 70.3233 55.0376C70.2577 54.8101 70.1892 54.5739 70.0573 54.4834C69.9225 54.3937 69.6783 54.4169 69.4437 54.4402C69.1814 54.4662 68.9123 54.4912 68.6952 54.384C68.481 54.2759 68.3397 54.0415 68.2042 53.8147C68.083 53.612 67.9561 53.4015 67.804 53.3464C67.6528 53.2941 67.4229 53.3797 67.2016 53.4624C66.9545 53.5537 66.6996 53.6507 66.4633 53.601C66.2269 53.5513 66.0339 53.3627 65.8456 53.179C65.6756 53.0115 65.4978 52.8403 65.3351 52.8302C65.1752 52.8191 64.9768 52.9613 64.786 53.0979C64.5723 53.2516 64.3508 53.411 64.1067 53.4246C63.8692 53.4392 63.6311 53.3071 63.4045 53.1807C63.197 53.064 62.9789 52.9444 62.8171 52.9755C62.661 53.0047 62.5094 53.1922 62.3597 53.3759C62.1918 53.5815 62.0171 53.7958 61.7843 53.8727C61.5516 53.9496 61.2837 53.8816 61.0263 53.8166C60.8004 53.7602 60.5641 53.7009 60.4204 53.7676C60.2718 53.8391 60.1709 54.0641 60.0709 54.2824C59.9642 54.519 59.8518 54.767 59.6524 54.8968C59.4482 55.0314 59.1754 55.0353 58.9121 55.0392C58.6776 55.0433 58.4334 55.0473 58.3117 55.1514C58.188 55.2594 58.1473 55.5029 58.1095 55.7358C58.0679 55.9955 58.0252 56.262 57.865 56.4428C57.7048 56.6235 57.4424 56.6975 57.1895 56.7714C56.9625 56.8369 56.7269 56.9052 56.6366 57.0372C56.5474 57.1722 56.5708 57.4168 56.5943 57.6518C56.6206 57.9147 56.646 58.1843 56.5393 58.4016C56.4326 58.619 56.1978 58.7573 55.9716 58.8927C55.7694 59.0139 55.5595 59.1408 55.5047 59.2931C55.4527 59.4444 55.5384 59.6749 55.6213 59.8967C55.7127 60.1444 55.8099 60.3998 55.7606 60.6365C55.7114 60.8733 55.5234 61.0664 55.3402 61.2547C55.1733 61.4249 55.0025 61.6027 54.9926 61.7657C54.9818 61.9258 55.1241 62.1248 55.2606 62.3161C55.4143 62.5305 55.5738 62.7525 55.5877 62.9971C55.6026 63.235 55.471 63.4734 55.3451 63.7002C55.2289 63.908 55.1098 64.1263 55.1411 64.2884C55.1705 64.4449 55.3578 64.597 55.5413 64.7472C55.7468 64.9157 55.9581 65.0919 56.0352 65.3251C56.1123 65.5584 56.0448 65.8267 55.983 66.0836C55.9271 66.3097 55.8682 66.5464 55.935 66.6905C56.0065 66.8394 56.2322 66.9437 56.4493 67.0412C56.6856 67.1484 56.9333 67.2614 57.0631 67.4613C57.1977 67.666 57.202 67.9394 57.2063 68.2031C57.2106 68.4381 57.215 68.6827 57.3191 68.8048C57.427 68.9289 57.6701 68.9699 57.9027 69.0081C58.162 69.0501 58.4281 69.0932 58.6087 69.2539C58.7893 69.4147 58.8664 69.6767 58.9377 69.9311C59.0033 70.1586 59.0718 70.3948 59.2038 70.4853C59.3395 70.5778 59.5827 70.5518 59.8173 70.5285C60.0797 70.5025 60.3487 70.4775 60.5658 70.5847C60.7829 70.6918 60.9213 70.9272 61.0568 71.154C61.178 71.3567 61.3049 71.5672 61.4571 71.6223C61.6082 71.6746 61.8381 71.589 62.0594 71.5063C62.3056 71.4121 62.5614 71.318 62.7978 71.3677C63.0341 71.4174 63.2272 71.6059 63.4154 71.7897C63.5855 71.9571 63.7632 72.1284 63.926 72.1385C64.0858 72.1496 64.2814 72.0083 64.475 71.8708C64.6351 71.7572 64.8 71.6388 64.9753 71.5809Z" fill="#4A5161"/>
<path d="M60.7497 66.8877C60.6405 66.9238 60.5132 66.8956 60.4311 66.8013C60.0585 66.3877 59.7339 65.9264 59.4677 65.4297C57.8327 62.3632 58.7893 58.651 61.5961 57.1515C64.4029 55.652 68.0153 56.9276 69.6504 59.9941C69.7439 60.1708 69.8326 60.3524 69.9088 60.5348C69.9756 60.6885 69.9034 60.8657 69.7501 60.9323C69.593 60.997 69.4199 60.9265 69.3531 60.7728C69.2826 60.6076 69.2025 60.4424 69.1167 60.2791C67.6399 57.5085 64.3959 56.3444 61.8813 57.6866C59.3697 59.0279 58.5248 62.3741 60.0015 65.1447C60.2438 65.5981 60.5398 66.021 60.877 66.3952C60.9888 66.5212 60.9817 66.712 60.8561 66.8238C60.8283 66.8554 60.7899 66.8744 60.7497 66.8877Z" fill="white"/>
<path d="M60.7976 67.032C60.6281 67.088 60.4396 67.0385 60.3192 66.9058C59.9371 66.4826 59.6058 66.0106 59.3358 65.5024C58.5288 63.9865 58.308 62.2672 58.7227 60.6669C59.1354 59.0609 60.1315 57.7637 61.5278 57.0211C62.923 56.2756 64.5516 56.1687 66.1148 56.7223C67.6742 57.2739 68.9779 58.4117 69.7849 59.9276C69.8793 60.1073 69.9699 60.2946 70.05 60.479C70.1482 60.7085 70.0424 60.9767 69.8105 61.0757C69.5729 61.1766 69.3137 61.0674 69.2145 60.835C69.1459 60.6755 69.0696 60.5123 68.9857 60.3547C67.55 57.66 64.3949 56.524 61.9561 57.8252C59.5173 59.1264 58.7022 62.3797 60.1389 65.0773C60.3754 65.523 60.6638 65.9325 60.9953 66.2989C61.1624 66.4865 61.1485 66.7722 60.9653 66.9414C60.9145 66.9806 60.858 67.012 60.7976 67.032ZM62.4843 56.935C62.2055 57.0271 61.9315 57.1432 61.6689 57.2843C60.3494 57.9888 59.407 59.2172 59.0145 60.7398C58.621 62.2691 58.8314 63.9088 59.6032 65.3565C59.8627 65.8426 60.1787 66.2973 60.5446 66.7003C60.599 66.759 60.6976 66.7679 60.758 66.7096C60.8194 66.6542 60.8253 66.5564 60.7671 66.4958C60.4203 66.112 60.1176 65.6785 59.8686 65.2145C58.3518 62.3709 59.2237 58.9327 61.8082 57.5514C64.3936 56.173 67.7324 57.3633 69.2464 60.2079C69.336 60.3731 69.4152 60.545 69.4867 60.7131C69.5191 60.7918 69.6061 60.8237 69.6885 60.7933C69.7249 60.7781 69.7537 60.7494 69.7662 60.7101C69.7825 60.6728 69.7817 60.6315 69.7664 60.5951C69.6921 60.4184 69.6043 60.2397 69.5128 60.0687C68.7401 58.6181 67.4947 57.5313 66.008 57.0067C64.8265 56.5858 63.6022 56.5655 62.4843 56.935Z" fill="#263238"/>
<path d="M93.7222 101.973C93.7222 101.973 104.45 95.2454 106.946 90.5868C106.946 90.5868 107.7 96.4077 110.569 98.6543C113.437 100.901 123.6 105.995 125.45 107.087C127.299 108.179 131.001 110.961 131.734 110.613C132.47 110.265 133.434 106.112 133.786 104.929C134.139 103.749 135.104 102.753 134.757 101.059C134.41 99.3621 133.419 99.5843 133.196 100.192C132.973 100.799 131.488 102.954 130.371 103.748C129.253 104.542 128.054 105.437 128.054 105.437C128.054 105.437 123.671 102.304 119.785 98.263C115.9 94.2216 110.528 85.9941 109.16 84.4207C107.791 82.8511 106.451 82.655 105.014 83.1299C103.577 83.6048 98.9789 85.1245 92.1061 91.3351C85.2333 97.5457 86.663 100.907 87.8434 101.903C89.0219 102.904 91.288 103.327 93.7222 101.973Z" fill="#4592D0"/>
<path d="M131.758 110.772C131.16 110.969 129.588 109.974 127.279 108.447C126.569 107.976 125.896 107.53 125.373 107.224C124.851 106.917 123.664 106.287 122.161 105.49C118.332 103.462 112.544 100.397 110.479 98.7795C108.02 96.8545 107.102 92.4486 106.863 91.0419C104.042 95.6515 94.2286 101.837 93.804 102.105C93.8011 102.106 93.7983 102.107 93.7963 102.111C91.3152 103.487 88.9716 103.06 87.7472 102.027C87.4423 101.77 86.7324 101.021 86.7064 99.6112C86.6778 98.0009 87.5752 95.2379 92.0075 91.23C98.9042 84.9955 103.468 83.4873 104.968 82.9915C106.632 82.4416 108.003 82.867 109.276 84.3278C109.738 84.8558 110.636 86.1179 111.776 87.7155C114.111 90.9914 117.311 95.4736 119.896 98.1653C123.424 101.836 127.411 104.787 128.054 105.255C128.353 105.031 129.352 104.292 130.284 103.63C131.38 102.849 132.846 100.706 133.055 100.142C133.183 99.7962 133.508 99.5738 133.848 99.5989C134.083 99.6169 134.654 99.7923 134.908 101.034C135.162 102.273 134.752 103.137 134.354 103.968C134.191 104.313 134.036 104.635 133.933 104.979C133.867 105.203 133.776 105.536 133.67 105.929C133.032 108.309 132.407 110.468 131.8 110.754C131.787 110.762 131.772 110.767 131.758 110.772ZM106.899 90.4455C106.922 90.4379 106.95 90.4351 106.974 90.44C107.038 90.4508 107.088 90.5046 107.096 90.5689C107.103 90.6274 107.877 96.3553 110.66 98.5374C112.704 100.14 118.477 103.197 122.298 105.221C123.806 106.02 124.999 106.651 125.526 106.962C126.053 107.274 126.73 107.721 127.444 108.194C128.949 109.189 131.228 110.691 131.671 110.481C132.203 110.228 132.997 107.269 133.379 105.849C133.487 105.453 133.577 105.116 133.643 104.893C133.752 104.528 133.92 104.178 134.08 103.841C134.457 103.052 134.844 102.237 134.611 101.097C134.462 100.377 134.168 99.9308 133.824 99.9038C133.621 99.8878 133.42 100.031 133.339 100.249C133.115 100.854 131.619 103.051 130.461 103.878C129.357 104.664 128.16 105.555 128.147 105.566C128.093 105.606 128.023 105.607 127.969 105.567C127.924 105.537 123.53 102.379 119.679 98.3746C117.076 95.6695 113.872 91.1728 111.529 87.8931C110.394 86.3032 109.498 85.0469 109.046 84.5285C107.845 83.1523 106.618 82.7657 105.06 83.2804C103.574 83.7715 99.0569 85.2645 92.2062 91.4551C87.8564 95.3846 86.9764 98.0556 87.0041 99.6054C87.0266 100.889 87.6638 101.563 87.9381 101.795C89.0832 102.762 91.2872 103.151 93.6417 101.846C93.8842 101.692 104.376 95.0618 106.812 90.5191C106.832 90.4837 106.865 90.4569 106.899 90.4455ZM93.7229 101.976L93.7257 101.975L93.7229 101.976Z" fill="#263238"/>
<path d="M134.759 101.061C134.412 99.3645 133.421 99.5867 133.198 100.194C132.974 100.801 131.49 102.956 130.373 103.751C129.255 104.545 128.056 105.44 128.056 105.44C128.056 105.44 124.642 102.999 121.169 99.6489C120.674 101.586 119.64 102.835 118.843 103.549C121.809 105.143 124.572 106.569 125.451 107.089C127.301 108.181 131.003 110.964 131.736 110.616C132.472 110.267 133.436 106.115 133.788 104.932C134.143 103.75 135.109 102.757 134.759 101.061Z" fill="#FEDEA5"/>
<path d="M131.758 110.771C131.16 110.969 129.588 109.974 127.279 108.447C126.569 107.975 125.896 107.53 125.374 107.223C124.851 106.917 123.661 106.285 122.154 105.486C121.133 104.945 119.967 104.33 118.772 103.683C118.729 103.659 118.699 103.618 118.693 103.569C118.686 103.52 118.705 103.472 118.742 103.438C119.511 102.746 120.535 101.523 121.023 99.6139C121.037 99.5612 121.078 99.522 121.127 99.5058C121.18 99.4916 121.235 99.5052 121.273 99.5437C124.39 102.549 127.492 104.846 128.051 105.255C128.35 105.032 129.349 104.293 130.281 103.63C131.378 102.849 132.843 100.707 133.052 100.143C133.18 99.7968 133.505 99.5744 133.845 99.5995C134.08 99.6175 134.652 99.7929 134.906 101.035C135.159 102.274 134.75 103.137 134.352 103.969C134.188 104.313 134.034 104.636 133.931 104.98C133.864 105.203 133.773 105.537 133.667 105.929C133.029 108.31 132.404 110.468 131.797 110.755C131.787 110.762 131.772 110.766 131.758 110.771ZM119.102 103.517C120.234 104.124 121.328 104.704 122.297 105.215C123.808 106.016 125.001 106.647 125.528 106.958C126.055 107.27 126.732 107.717 127.446 108.19C128.951 109.185 131.23 110.687 131.673 110.477C132.205 110.224 133 107.265 133.381 105.845C133.489 105.448 133.579 105.112 133.645 104.889C133.754 104.524 133.922 104.174 134.082 103.837C134.459 103.048 134.846 102.233 134.613 101.093C134.464 100.373 134.17 99.9266 133.826 99.8996C133.623 99.8836 133.422 100.027 133.341 100.245C133.117 100.85 131.621 103.047 130.463 103.874C129.359 104.66 128.162 105.551 128.149 105.562C128.095 105.602 128.026 105.603 127.971 105.563C127.938 105.539 124.632 103.165 121.253 99.934C120.754 101.655 119.845 102.811 119.102 103.517Z" fill="#263238"/>
<path d="M66.9319 70.12C66.9319 70.12 69.053 72.3038 69.4727 73.1011C69.8925 73.8985 69.0724 74.7158 68.1591 75.2509C67.2457 75.7859 65.5169 75.7343 64.5544 78.0013C63.5918 80.2682 62.3373 89.1841 62.169 90.5655C62.0037 91.946 62.8896 92.7458 64.3395 91.9535C65.7895 91.1612 68.1152 84.3097 68.1152 84.3097C68.1152 84.3097 75.3047 88.8758 76.3777 90.0003C77.4516 91.1278 77.9823 93.4474 78.6116 95.8144C79.2381 98.1824 80.0021 101.671 83.0119 103.718C86.0217 105.764 90.6976 105.078 93.719 101.971C96.7385 98.8678 98.5118 91.0104 95.8736 88.9208C93.2372 86.8274 88.8614 86.8105 86.832 84.673C84.8027 82.5355 84.7539 80.999 83.8943 78.3982C83.0348 75.7974 81.352 72.6349 81.352 72.6349C81.352 72.6349 86.9109 69.2003 93.5858 65.9304C95.9065 64.7927 93.4744 62.536 91.8864 62.4379C89.8944 62.3135 82.3741 65.7063 80.1837 66.2066C77.0223 66.932 75.6693 68.0852 75.1309 68.8094C74.5925 69.5337 73.9138 70.5375 73.1179 70.7239C72.322 70.9103 70.2273 67.3887 70.2273 67.3887C70.2273 67.3887 68.7543 69.7508 66.9319 70.12Z" fill="#F37630"/>
<path d="M89.8708 104.555C87.4598 105.352 84.8658 105.162 82.9287 103.843C80.0385 101.879 79.1916 98.6314 78.5729 96.2578L78.3048 95.2346C77.7497 93.1114 77.2232 91.1035 76.2716 90.1049C75.3133 89.0958 69.2713 85.224 68.2003 84.5396C67.8115 85.6585 65.7809 91.339 64.4143 92.0846C63.6927 92.4764 63.0417 92.5223 62.5846 92.2101C62.1362 91.9046 61.9296 91.2988 62.021 90.5434C62.166 89.3326 63.4333 80.2528 64.4151 77.9379C65.1603 76.1805 66.3415 75.771 67.2879 75.4422C67.5858 75.3405 67.8627 75.2427 68.0821 75.1158C68.4904 74.8754 69.7882 74.028 69.338 73.1673C68.9345 72.3997 66.8439 70.2409 66.821 70.2197C66.7828 70.1813 66.7695 70.1218 66.7839 70.0691C66.8013 70.0154 66.8425 69.9762 66.899 69.9639C68.6372 69.6099 70.0851 67.3263 70.1005 67.3053C70.1274 67.2612 70.1791 67.2345 70.2299 67.2337C70.2816 67.2358 70.3313 67.2609 70.359 67.3061C71.361 68.9876 72.656 70.6682 73.086 70.5708C73.7583 70.4156 74.3764 69.5756 74.8745 68.903L75.0127 68.7136C75.5099 68.0477 76.8362 66.8138 80.1518 66.0535C80.9726 65.8653 82.6041 65.2462 84.3314 64.589C87.283 63.4698 90.6283 62.2012 91.8966 62.2772C92.9639 62.343 94.4525 63.3557 94.6678 64.441C94.7607 64.9055 94.6599 65.565 93.6529 66.0576C87.5951 69.0245 82.3986 72.1668 81.5524 72.6829C81.8738 73.2987 83.2807 76.0508 84.0384 78.3434C84.2269 78.9137 84.3733 79.4244 84.517 79.9168C85.0191 81.6581 85.3815 82.9185 86.9446 84.5615C87.9765 85.6486 89.6355 86.1737 91.3911 86.7308C93.0118 87.2462 94.6852 87.7762 95.9689 88.7959C96.7375 89.4045 97.1949 90.5185 97.2916 92.0168C97.5084 95.3731 95.9557 99.8861 93.8283 102.072C92.7012 103.243 91.3192 104.077 89.8708 104.555ZM68.0709 84.1671C68.114 84.1528 68.1609 84.1597 68.2001 84.1819C68.4946 84.3689 75.4163 88.771 76.4902 89.8985C77.4963 90.9557 78.0314 92.9992 78.5969 95.1636L78.865 96.1868C79.4714 98.5134 80.303 101.695 83.0987 103.595C86.0798 105.623 90.6993 104.863 93.6123 101.871C95.6544 99.7748 97.1993 95.2772 96.99 92.0494C96.8969 90.6393 96.4805 89.6012 95.7808 89.0466C94.541 88.0634 92.8926 87.5412 91.3005 87.0355C89.5057 86.4658 87.8103 85.9271 86.725 84.7843C85.1122 83.0874 84.7213 81.731 84.2267 80.0128C84.084 79.5232 83.9385 79.0154 83.7519 78.4509C82.9057 75.8904 81.2373 72.7423 81.2211 72.7126C81.1848 72.6415 81.207 72.5543 81.276 72.5123C81.3316 72.478 86.9173 69.0377 93.5232 65.8001C94.1929 65.4733 94.48 65.0398 94.3766 64.5149C94.1879 63.5677 92.8245 62.6542 91.8836 62.5946C90.6794 62.5197 87.221 63.8321 84.4428 64.8877C82.6303 65.5762 81.0639 66.1705 80.2221 66.3625C76.9984 67.1021 75.7287 68.2757 75.2555 68.9081L75.1163 69.0946C74.5904 69.8084 73.9368 70.6953 73.1553 70.8769C72.3709 71.0595 70.7663 68.5676 70.2233 67.6768C69.8374 68.2356 68.6723 69.774 67.2183 70.2066C67.7457 70.7607 69.2486 72.3566 69.6034 73.0348C69.9916 73.7755 69.4816 74.6533 68.2319 75.3858C67.9885 75.5269 67.6944 75.6305 67.3859 75.7389C66.4931 76.0467 65.3838 76.4325 64.6905 78.0673C63.7213 80.3525 62.4636 89.3844 62.3168 90.5894C62.2399 91.225 62.397 91.729 62.7498 91.967C63.1112 92.2118 63.6493 92.1617 64.2655 91.8271C65.3733 91.2245 67.1721 86.6174 67.9701 84.2675C67.9913 84.2157 68.0249 84.1823 68.0709 84.1671Z" fill="#263238"/>
<path d="M83.4806 65.0811C83.2851 65.1552 83.0926 65.2285 82.9048 65.2969C83.2682 66.5314 84.0907 68.4895 85.855 70.0085C86.0381 69.9065 86.2288 69.7987 86.4195 69.691C84.6512 68.2467 83.8335 66.2743 83.4806 65.0811Z" fill="#263238"/>
<path d="M86.0367 83.7242C85.9116 83.5579 85.796 83.3916 85.691 83.2282C81.6629 85.633 78.9174 89.6712 77.5381 92.0855C77.6296 92.3332 77.7143 92.5895 77.7999 92.8583C79.0382 90.5865 81.8245 86.2185 86.0367 83.7242Z" fill="#263238"/>
<path d="M75.5598 89.3115C75.7472 89.454 75.9154 89.5869 76.0521 89.7014C76.9246 87.9914 79.3107 84.1678 84.553 80.5758C84.4931 80.3752 84.4332 80.165 84.3733 79.9548C78.9748 83.5855 76.5091 87.4578 75.5598 89.3115Z" fill="#263238"/>
<path d="M68.1143 81.124C69.1088 80.6707 73.7812 78.2958 79.4032 71.3101C80.3263 72.2223 81.1054 72.8242 81.1742 72.8781C81.2555 72.9407 81.3626 72.9564 81.4546 72.926C81.469 72.9213 81.4853 72.9127 81.4987 72.905C81.4109 72.736 81.3594 72.638 81.3594 72.638C81.3594 72.638 81.4495 72.5826 81.6163 72.4796C81.5962 72.4479 81.5743 72.42 81.5437 72.395C81.5093 72.368 78.2667 69.8679 77.1602 67.253C76.9686 67.3482 76.7875 67.4464 76.6255 67.5447C76.8476 68.0527 77.1377 68.5543 77.467 69.0301C73.3685 74.7615 68.2966 77.3355 66.9035 77.962C66.5123 77.2607 66.1179 76.7137 65.8066 76.331C65.6513 76.4494 65.4978 76.5832 65.3501 76.7439C65.6175 77.0804 65.9555 77.5533 66.2962 78.15C65.819 77.854 65.2938 77.6634 64.7809 77.539C64.7041 77.6826 64.6263 77.8329 64.557 77.9996C64.5426 78.0331 64.5291 78.0695 64.5147 78.103C65.4707 78.3142 66.4807 78.7758 67.0504 79.7473C67.2505 80.2658 67.4265 80.837 67.5584 81.4579C66.8953 80.8017 65.725 79.9904 63.9761 79.9551C63.9307 80.1458 63.8853 80.3461 63.8409 80.5492C66.4956 80.528 67.6407 82.469 67.7075 82.5843C67.7209 82.6054 67.7362 82.6227 67.7543 82.6391C67.791 82.972 67.8143 83.3125 67.8204 83.6683C67.0517 83.1077 65.4729 82.2174 63.4564 82.4334C63.4187 82.6376 63.3781 82.8427 63.3413 83.0497C65.7084 82.6987 67.4099 84.066 67.8151 84.4336C67.8089 84.6944 67.8065 84.9476 67.8031 85.1979C68.0023 84.6529 68.1198 84.3042 68.1198 84.3042C68.1198 84.3042 68.2288 84.3736 68.4181 84.4931C68.4201 84.4317 68.4202 84.3742 68.4223 84.3128C68.4589 83.141 68.3327 82.0741 68.1143 81.124ZM77.8356 69.5472C78.2004 70.0241 78.5901 70.4703 78.9752 70.8734C73.6323 77.5272 69.0689 79.9906 67.9574 80.5241C67.8785 80.2467 67.7909 79.9817 67.7005 79.7273C67.6977 79.6899 67.6872 79.6486 67.6691 79.6131C67.6615 79.5996 67.6538 79.5862 67.6452 79.5698C67.4995 79.1867 67.3432 78.8294 67.181 78.5029C68.6709 77.8219 73.719 75.2239 77.8356 69.5472Z" fill="#263238"/>
<path d="M88.357 85.7587C88.1533 85.6535 87.9582 85.5454 87.7717 85.425C83.2436 88.5061 80.2365 92.6596 78.5405 95.5332C78.5652 95.6272 78.5899 95.7213 78.6146 95.8153C78.6602 95.992 78.7087 96.1772 78.7572 96.3624C80.3775 93.5011 83.4868 88.9816 88.357 85.7587Z" fill="#263238"/>
<path d="M83.6883 77.7946C83.6198 77.6064 83.5474 77.4163 83.475 77.2261C76.2304 80.055 73.8469 85.0439 73.0811 87.5588C73.258 87.6793 73.431 87.7978 73.6031 87.9134C74.2584 85.6043 76.4677 80.6187 83.6883 77.7946Z" fill="#263238"/>
<path d="M87.2646 63.6639C87.0682 63.7352 86.8719 63.8065 86.6726 63.8788C86.9076 65.1589 87.4683 66.8457 88.7606 68.4121C88.9417 68.3139 89.1267 68.2176 89.3135 68.1175C88.0231 66.5857 87.4854 64.9008 87.2646 63.6639Z" fill="#263238"/>
<path d="M79.4196 66.4039C80.1158 67.7968 81.3459 69.8598 83.1702 71.5507C83.3437 71.4486 83.5277 71.3399 83.7203 71.2283C81.9532 69.6335 80.7317 67.6252 80.0239 66.2457C79.818 66.2978 79.615 66.349 79.4196 66.4039Z" fill="#263238"/>
<path d="M82.3986 74.7416C82.309 74.5476 82.2203 74.3661 82.1373 74.1922C74.1194 77.9603 71.1003 82.8973 70.0136 85.5311C70.1847 85.6439 70.3626 85.7576 70.5462 85.8791C71.5752 83.3889 74.5148 78.4622 82.3986 74.7416Z" fill="#263238"/>
<path d="M93.7227 101.973C96.2213 99.4059 97.8645 93.5851 96.8633 90.4689C96.649 89.888 96.3368 89.4065 95.9162 89.0695C95.5606 88.7845 95.1754 88.4965 94.7729 88.2046C93.478 87.508 91.9634 87.0917 90.5474 86.6269C84.999 91.1155 81.5126 97.6094 80.0565 100.167C80.6983 101.492 81.6092 102.763 83.0156 103.719C86.0254 105.766 90.7013 105.08 93.7227 101.973Z" fill="#4592D0"/>
<path d="M89.8707 104.555C87.4596 105.352 84.8656 105.162 82.9286 103.843C81.6627 102.984 80.676 101.802 79.9179 100.232C79.8969 100.187 79.898 100.133 79.922 100.09L80.1938 99.6102C81.819 96.7345 85.1981 90.7552 90.4503 86.5083C90.4906 86.4758 90.5413 86.4654 90.592 86.4838C90.8532 86.57 91.1163 86.6524 91.3833 86.7367C92.5591 87.1116 93.777 87.4982 94.8434 88.0722C95.3042 88.4055 95.6808 88.6868 96.0077 88.9525C96.4331 89.2943 96.7682 89.7874 97.0015 90.4163C98.0085 93.5498 96.4045 99.4312 93.8281 102.081C92.7011 103.243 91.319 104.077 89.8707 104.555ZM80.2263 100.171C80.9558 101.655 81.8967 102.776 83.1004 103.592C86.0815 105.619 90.7011 104.859 93.6141 101.868C96.129 99.2826 97.6945 93.5546 96.718 90.5132C96.5066 89.941 96.203 89.495 95.8206 89.1869C95.4956 88.9269 95.1257 88.6466 94.6849 88.3259C93.6578 87.774 92.4571 87.3913 91.2927 87.0222C91.0536 86.9447 90.8153 86.8701 90.579 86.7916C85.4092 90.9986 82.0686 96.9108 80.4616 99.7549L80.2263 100.171Z" fill="#4592D0"/>
<path d="M60.7676 65.7061C60.6459 65.7527 60.5329 65.8157 60.4293 65.8978C59.5895 66.5492 59.6785 68.0724 60.6297 69.3011C61.578 70.5308 63.0275 71.0005 63.8682 70.3521C64.0456 70.2136 64.179 70.0385 64.2742 69.8345L60.7676 65.7061Z" fill="white"/>
<path d="M63.5058 70.7122C63.1351 70.8347 62.7015 70.8247 62.2413 70.6765C61.6022 70.4692 60.9865 70.0146 60.5071 69.3935C60.0287 68.7753 59.7457 68.0637 59.7048 67.3904C59.663 66.6949 59.8881 66.1222 60.3349 65.7764C60.449 65.6876 60.5755 65.6171 60.7115 65.5657C60.7719 65.5458 60.8398 65.5584 60.8818 65.6084L64.3846 69.7349C64.4218 69.7801 64.4303 69.8444 64.4063 69.8971C64.2957 70.1317 64.146 70.3249 63.9581 70.4701C63.821 70.5761 63.6696 70.6581 63.5058 70.7122ZM60.7262 65.8899C60.6524 65.9271 60.5863 65.9681 60.523 66.0178C60.1578 66.3014 59.9759 66.7832 60.0112 67.3722C60.0474 67.9832 60.3113 68.6371 60.7516 69.2073C61.1918 69.7774 61.7578 70.1973 62.3395 70.3853C62.903 70.5664 63.4143 70.5124 63.7767 70.2297C63.9032 70.1304 64.0117 70.0051 64.0952 69.8529L60.7262 65.8899Z" fill="#263238"/>
<path d="M60.7677 65.7066C60.646 65.7532 60.5329 65.8161 60.4294 65.8983C60.3325 65.9718 60.25 66.0598 60.18 66.1564L63.8165 70.3888C63.8347 70.3764 63.8539 70.3669 63.8712 70.3516C64.0485 70.2131 64.1819 70.038 64.2771 69.834L60.7677 65.7066Z" fill="white"/>
<path d="M63.8751 70.5191C63.8147 70.539 63.7362 70.533 63.698 70.4849L60.0615 66.2525C60.0147 66.1977 60.011 66.1191 60.0561 66.0626C60.1405 65.9517 60.2326 65.8541 60.3343 65.7758C60.4483 65.687 60.5748 65.6164 60.7109 65.5651C60.7712 65.5451 60.8392 65.5578 60.8812 65.6078L64.3839 69.7343C64.4212 69.7795 64.4297 69.8438 64.4056 69.8964C64.2951 70.131 64.1454 70.3243 63.9575 70.4694C63.9422 70.4809 63.9287 70.4885 63.9134 70.5C63.9 70.5076 63.8894 70.5143 63.8751 70.5191ZM60.3757 66.1519L63.8326 70.1785C63.9381 70.0829 64.0216 69.9786 64.0888 69.8542L60.7227 65.8902C60.6489 65.9274 60.5828 65.9684 60.5195 66.0181C60.4687 66.0572 60.4198 66.1022 60.3757 66.1519Z" fill="#263238"/>
<path d="M68.4705 59.9505C68.5473 59.8453 68.6365 59.7487 68.741 59.6694C69.5808 59.0181 71.0303 59.4879 71.9786 60.7175C72.9297 61.9462 73.0188 63.4694 72.1818 64.1198C72.0045 64.2583 71.7994 64.3421 71.5801 64.3826L68.4705 59.9505Z" fill="white"/>
<path d="M71.8271 64.4761C71.7553 64.4999 71.6815 64.5179 71.6039 64.5339C71.5465 64.5433 71.4881 64.5211 71.4528 64.4721L68.3431 60.04C68.3069 59.9881 68.306 59.9181 68.3425 59.8645C68.427 59.7439 68.5296 59.6397 68.6437 59.5509C69.5478 58.8527 71.0958 59.3315 72.0947 60.6275C72.5732 61.2457 72.859 61.9563 72.897 62.6306C72.9388 63.326 72.7166 63.8978 72.2698 64.2436C72.1404 64.3438 71.9938 64.4211 71.8271 64.4761ZM71.6419 64.2147C71.8095 64.1721 71.958 64.1006 72.0845 64.0013C72.4498 63.7176 72.6317 63.2358 72.5964 62.6469C72.5593 62.033 72.2963 61.3819 71.856 60.8118C70.9593 59.6514 69.5998 59.1934 68.828 59.7903C68.7647 59.8399 68.7062 59.8944 68.6535 59.9566L71.6419 64.2147Z" fill="#263238"/>
<path d="M71.8272 64.4765C71.7554 64.5003 71.6817 64.5182 71.6041 64.5343C71.5466 64.5437 71.4883 64.5215 71.4529 64.4724L68.3433 60.0404C68.307 59.9884 68.3062 59.9184 68.3427 59.8648C68.4271 59.7443 68.5298 59.6401 68.6439 59.5513C68.7455 59.4729 68.8605 59.4062 68.9898 59.3539C69.0569 59.3253 69.1315 59.3486 69.1735 59.4081L72.3499 63.9939C72.3938 64.0592 72.3841 64.1455 72.3237 64.1942C72.2968 64.2191 72.2853 64.2325 72.269 64.2411C72.1405 64.3442 71.9939 64.4214 71.8272 64.4765ZM71.642 64.2151C71.7838 64.181 71.9083 64.1239 72.0205 64.0485L68.9969 59.6838C68.9374 59.7162 68.879 59.7515 68.8282 59.7906C68.7649 59.8403 68.7064 59.8948 68.6536 59.957L71.642 64.2151Z" fill="#263238"/>
<path d="M74.4453 69.7165C74.051 70.1919 73.6089 70.6095 73.1233 70.7221C72.3274 70.9085 70.2327 67.3869 70.2327 67.3869C70.2327 67.3869 68.7559 69.7471 66.9335 70.1162C66.9335 70.1162 69.0546 72.3 69.4743 73.0974C69.8149 73.742 69.3407 74.4003 68.6648 74.9112C69.3858 75.8677 71.3904 77.9399 74.2379 76.1586C76.727 74.6043 75.4663 71.494 74.4453 69.7165Z" fill="#FEDEA5"/>
<path d="M73.2097 76.8201C70.8504 77.5999 69.1975 75.8779 68.5395 75.0059C68.5157 74.9723 68.5062 74.9339 68.5091 74.8946C68.5149 74.8543 68.5351 74.8189 68.5686 74.795C69.002 74.4665 69.6781 73.8214 69.3356 73.171C68.9321 72.4034 66.8416 70.2446 66.8187 70.2235C66.7804 70.185 66.7671 70.1255 66.7816 70.0728C66.7989 70.0191 66.8402 69.9799 66.8967 69.9677C68.6349 69.6136 70.0828 67.33 70.0982 67.309C70.1251 67.2649 70.1768 67.2383 70.2275 67.2375C70.2792 67.2395 70.329 67.2646 70.3566 67.3098C71.3587 68.9913 72.6536 70.6719 73.0836 70.5745C73.4591 70.4855 73.856 70.1818 74.3233 69.6185C74.3549 69.5793 74.4028 69.5602 74.4516 69.5633C74.5005 69.5663 74.5454 69.5962 74.5693 69.6394C75.5921 71.4227 76.9215 74.6541 74.3088 76.2875C73.9302 76.5309 73.5632 76.7033 73.2097 76.8201ZM68.8747 74.9399C69.6445 75.909 71.5309 77.6721 74.1542 76.0319C76.466 74.5874 75.3705 71.6972 74.4202 69.9794C74.1027 70.3399 73.6625 70.7538 73.1558 70.8701C72.3715 71.0527 70.7669 68.5607 70.2239 67.67C69.838 68.2288 68.6729 69.7672 67.2189 70.1998C67.7463 70.7539 69.2491 72.3498 69.604 73.028C69.9207 73.6294 69.659 74.3037 68.8747 74.9399Z" fill="#FEDEA5"/>
<path d="M71.5614 69.3723C71.2319 68.9349 70.9159 68.4707 70.6754 68.0997C70.5092 67.8959 70.3449 67.6786 70.1836 67.4604C69.9301 67.8413 68.5737 69.7847 66.9275 70.1179C66.9275 70.1179 67.6441 70.8587 68.3271 71.6329C69.0719 71.6104 70.0774 71.4506 70.699 70.8138C71.0922 70.4123 71.367 69.8838 71.5614 69.3723Z" fill="#263238"/>
<path d="M69.7359 71.5564C69.2588 71.714 68.7542 71.769 68.3349 71.783C68.2908 71.7848 68.2459 71.7645 68.2163 71.7327C67.5428 70.9681 66.8272 70.2303 66.8214 70.2226C66.7832 70.1841 66.7699 70.1246 66.7844 70.0719C66.8017 70.0182 66.8429 69.9791 66.8994 69.9668C68.4834 69.6477 69.8072 67.7502 70.0587 67.3732C70.0865 67.332 70.1325 67.3072 70.1833 67.3064C70.234 67.3056 70.2799 67.3288 70.3086 67.3673C70.4776 67.5989 70.6409 67.8133 70.7946 67.9989C71.1058 68.4775 71.4094 68.9139 71.6816 69.2744C71.7141 69.3148 71.7197 69.3704 71.7043 69.4202C71.4657 70.0486 71.1661 70.5502 70.8141 70.9125C70.5119 71.2232 70.1324 71.4253 69.7359 71.5564ZM68.3967 71.4782C69.1014 71.4498 70.0264 71.2878 70.5933 70.7075C70.9022 70.3882 71.171 69.9479 71.3875 69.3972C71.0571 68.9569 70.7487 68.4965 70.5464 68.1832C70.4356 68.0505 70.3133 67.8928 70.1873 67.7236C69.7726 68.3111 68.6306 69.7844 67.2168 70.2037C67.4681 70.4625 67.9391 70.9617 68.3967 71.4782Z" fill="#263238"/>
<path d="M60.6304 64.7133C60.6304 64.7133 63.0077 68.6078 64.0802 69.4994C65.1536 70.3937 68.1203 70.8924 69.3596 70.6394C70.5988 70.3863 70.9525 68.6305 71.2586 67.2035C71.5648 65.7765 71.449 64.7222 70.6591 63.2677C69.8663 61.8141 68.1424 59.6555 66.9995 58.5509C66.259 57.834 63.8239 57.6517 62.021 58.7938C60.2182 59.936 59.5364 62.5797 60.6304 64.7133Z" fill="#FEDEA5"/>
<path d="M69.5692 70.7426C69.5117 70.7616 69.4533 70.7777 69.3901 70.789C68.0493 71.0628 65.075 70.522 63.9854 69.617C62.9043 68.7187 60.6014 64.9529 60.504 64.7934C60.5031 64.7905 60.4993 64.7886 60.4974 64.7828C59.3871 62.6195 60.0356 59.8749 61.941 58.6669C63.8311 57.4704 66.3369 57.7029 67.1052 58.4457C68.2242 59.5263 69.9739 61.6955 70.7934 63.2009C71.57 64.6247 71.7345 65.7205 71.4081 67.2404L71.3897 67.32C71.099 68.678 70.7388 70.3561 69.5692 70.7426ZM60.7619 64.6379C60.8583 64.7945 63.1507 68.5287 64.1753 69.3817C65.1828 70.2212 68.0604 70.7493 69.3265 70.4906C70.4441 70.265 70.8034 68.5936 71.0931 67.2519L71.1114 67.1723C71.4263 65.7137 71.2731 64.7101 70.527 63.3401C69.7218 61.8587 67.9969 59.726 66.8952 58.6589C66.2119 57.9998 63.8458 57.8138 62.1042 58.9197C60.3253 60.0475 59.7251 62.61 60.7619 64.6379Z" fill="#263238"/>
<path d="M65.8874 65.7872C65.8787 65.7901 65.8701 65.7929 65.8605 65.7929C65.7782 65.8041 65.7027 65.7492 65.6885 65.6677C65.6866 65.6523 65.6317 65.2839 65.8898 64.9749C66.1028 64.7224 66.4544 64.5902 66.9331 64.5822C67.0154 64.5805 67.0852 64.6469 67.0879 64.7323C67.0897 64.8148 67.0206 64.8855 66.9383 64.8872C66.5515 64.8936 66.2766 64.9877 66.1231 65.1694C65.9532 65.3693 65.9853 65.6207 65.9863 65.6235C66.0005 65.6955 65.9563 65.7644 65.8874 65.7872Z" fill="#263238"/>
<path d="M66.8687 67.3184C66.1848 67.5444 65.5866 67.4322 65.5723 67.4274C65.49 67.4098 65.4384 67.331 65.453 67.2496C65.4703 67.1671 65.5489 67.1156 65.6303 67.1303C65.7193 67.1488 67.8304 67.5373 68.425 64.9383C68.4424 64.8559 68.5248 64.8063 68.6071 64.8238C68.6894 64.8413 68.739 64.9239 68.7216 65.0064C68.3867 66.4812 67.5814 67.0828 66.8687 67.3184Z" fill="#263238"/>
<path d="M63.7317 66.362C63.407 66.4694 63.1639 66.4283 63.1438 66.4253C62.9811 66.3961 62.8714 66.2375 62.8994 66.0716C62.9285 65.9087 63.0837 65.7999 63.2455 65.8263C63.2828 65.8331 63.9528 65.9024 64.4671 64.7868C64.5382 64.6355 64.7164 64.567 64.8675 64.6385C65.0186 64.7099 65.0872 64.8885 65.0161 65.0398C64.6239 65.8979 64.1197 66.2338 63.7317 66.362Z" fill="#263238"/>
<path d="M67.4591 63.5202C67.1631 63.618 66.8663 63.6555 66.6365 63.6547C66.4709 63.6551 66.3333 63.5185 66.3346 63.3488C66.3339 63.1829 66.4701 63.0452 66.6367 63.0476C66.6913 63.0488 67.9808 63.0347 68.019 62.0796C68.0241 61.9118 68.166 61.7819 68.3335 61.7872C68.5011 61.7925 68.631 61.9349 68.6259 62.1027C68.5947 62.9149 68.031 63.3312 67.4591 63.5202Z" fill="#263238"/>
<path d="M62.3121 65.0962C62.2374 65.1209 62.1551 65.0841 62.1247 65.0112C62.1104 64.9775 61.774 64.1622 62.1381 63.47C62.36 63.0517 62.7817 62.7749 63.3975 62.6512C63.478 62.6342 63.5593 62.6873 63.5773 62.7707C63.5944 62.8514 63.5444 62.9318 63.4582 62.9507C62.9353 63.0564 62.5817 63.2787 62.4059 63.6148C62.108 64.1796 62.3996 64.8883 62.4025 64.897C62.4349 64.9757 62.4003 65.0638 62.3217 65.0962C62.3207 65.0933 62.315 65.0952 62.3121 65.0962Z" fill="#263238"/>
<path d="M65.2184 61.6405C65.1839 61.6519 65.1456 61.6518 65.1083 61.6354C65.0328 61.5996 64.9975 61.5122 65.0321 61.4337C65.0379 61.4222 65.6415 60.1333 67.2615 60.5116C67.3438 60.5291 67.3934 60.6118 67.3761 60.6942C67.3587 60.7766 67.2763 60.8262 67.194 60.8087C65.8122 60.4858 65.3124 61.5487 65.3066 61.5602C65.2884 61.6014 65.2558 61.6282 65.2184 61.6405Z" fill="#263238"/>
<path d="M58.8289 67.4958C58.8289 67.4958 59.3397 69.7454 59.7351 70.2377C60.1305 70.73 62.7221 72.2152 63.2354 72.5918C63.7488 72.9685 63.8406 73.0148 63.5811 74.5829C63.3216 76.1511 60.357 86.7215 60.8649 88.9721C61.3757 91.2217 62.1667 93.1423 64.3411 91.9572C66.5183 90.7712 65.9194 84.4934 65.8104 80.865C65.7014 77.2367 65.3358 72.6005 65.0331 71.6846C64.7313 70.7716 61.0299 69.4679 60.6253 69.3045C60.2235 69.1402 59.6876 67.9915 59.4792 67.3607C59.2717 66.7232 58.9211 66.8391 58.8289 67.4958Z" fill="#FEDEA5"/>
<path d="M63.8279 92.346C63.3279 92.5112 62.8799 92.506 62.4896 92.3283C61.492 91.8753 61.0343 90.394 60.7201 88.9995C60.3337 87.2903 61.8839 80.9858 62.81 77.2198C63.1207 75.951 63.3696 74.9487 63.4335 74.5538C63.6756 73.0968 63.6172 73.0554 63.166 72.7221C62.9853 72.5902 62.5923 72.3463 62.1353 72.0628C61.1408 71.4459 59.8996 70.6804 59.6179 70.3294C59.212 69.8247 58.7334 67.7593 58.6821 67.527C58.6793 67.5088 58.6765 67.4906 58.6794 67.4704C58.7395 67.0544 58.9027 66.8056 59.1248 66.7833C59.2455 66.7722 59.4704 66.8256 59.6284 67.3037C59.8797 68.0641 60.3958 69.0373 60.6866 69.1552C60.7277 69.1736 60.8071 69.2016 60.9162 69.2423C63.6263 70.2666 64.9824 71.0228 65.1823 71.6277C65.5011 72.5925 65.859 77.2919 65.9671 80.8503C65.9825 81.3116 66.0017 81.8133 66.0266 82.3418C66.1853 85.9952 66.4009 90.9972 64.4181 92.0774C64.2121 92.1967 64.0147 92.2842 63.8279 92.346ZM58.979 67.4896C59.1261 68.1279 59.5462 69.7653 59.849 70.1413C60.0982 70.4518 61.4168 71.2684 62.2899 71.8073C62.7708 72.1052 63.1476 72.3385 63.3206 72.4666C63.9172 72.902 63.9839 73.0652 63.7273 74.6036C63.6605 75.0091 63.4106 76.0181 63.099 77.2936C62.1806 81.0347 60.6409 87.2941 61.0112 88.9352C61.2942 90.1771 61.7279 91.6535 62.6117 92.0515C63.0651 92.2563 63.6071 92.1794 64.2693 91.8199C66.0872 90.8294 65.8724 85.9357 65.7183 82.3638C65.6953 81.8315 65.6723 81.3279 65.6598 80.8656C65.5436 77.0128 65.169 72.5713 64.8901 71.7274C64.7778 71.3876 63.9768 70.729 60.8046 69.5315C60.6945 69.488 60.6113 69.458 60.5673 69.4406C60.0775 69.2415 59.5247 67.9834 59.3324 67.4016C59.2477 67.1452 59.1616 67.0874 59.1425 67.0874C59.1243 67.0902 59.0303 67.1724 58.979 67.4896Z" fill="#263238"/>
<path d="M65.8114 80.8609C65.8006 80.5003 65.7869 80.131 65.7714 79.756L62.3905 79.5667C61.5211 83.1862 60.5555 87.6042 60.866 88.968C61.3768 91.2176 62.1677 93.1382 64.3421 91.9531C66.5194 90.7671 65.9214 84.4921 65.8114 80.8609Z" fill="#F26F1F"/>
<path d="M63.8282 92.3463C63.3281 92.5116 62.8801 92.5063 62.4899 92.3286C61.4922 91.8756 61.0346 90.3944 60.7203 88.9999C60.3975 87.5699 61.4364 82.9104 62.2478 79.5305C62.2661 79.4606 62.3294 79.4109 62.4041 79.415L65.784 79.6014C65.8616 79.6045 65.9237 79.667 65.9273 79.7457C65.9429 80.1207 65.9575 80.4929 65.9683 80.8535C65.9837 81.3149 66.0029 81.8165 66.0278 82.345C66.1865 85.9984 66.4021 91.0005 64.4193 92.0807C64.2123 92.197 64.015 92.2846 63.8282 92.3463ZM62.5098 79.7251C61.7108 83.0657 60.7077 87.5824 61.0143 88.9346C61.2973 90.1765 61.731 91.6529 62.6149 92.0509C63.0682 92.2557 63.6102 92.1788 64.2724 91.8193C66.0903 90.8288 65.8755 85.9351 65.7214 82.3632C65.6985 81.8308 65.6755 81.3273 65.6629 80.865C65.654 80.5485 65.6431 80.2262 65.6274 79.8991L62.5098 79.7251Z" fill="#263238"/>
<path d="M61.7784 82.2194C61.7735 82.2433 61.7687 82.2673 61.7639 82.2913C61.7513 82.3497 61.7378 82.4053 61.7253 82.4638C61.6973 82.5912 61.6721 82.7177 61.6432 82.8423C62.4695 82.7673 63.9065 82.6981 65.8899 82.8061C65.8817 82.598 65.8725 82.3965 65.8642 82.198C64.0168 82.0961 62.6411 82.1483 61.7784 82.2194Z" fill="#263238"/>
<path d="M65.5218 90.1703C65.5863 89.9508 65.6423 89.7151 65.6916 89.4688C63.7843 90.1407 62.2485 90.2585 61.2013 90.2149C61.2736 90.4337 61.3517 90.6411 61.4356 90.8371C62.458 90.8538 63.8416 90.7192 65.5218 90.1703Z" fill="#263238"/>
<path d="M61.032 86.0476C61.0223 86.1051 61.0126 86.1626 61.0058 86.2192C60.9971 86.2796 60.9864 86.3438 60.9777 86.4042C60.9632 86.5048 60.9524 86.5978 60.9398 86.6946C62.1092 86.4327 63.9276 86.1768 65.9643 86.4269C65.9676 86.2246 65.9699 86.0194 65.9693 85.8151C63.9939 85.5766 62.2358 85.7935 61.032 86.0476Z" fill="#263238"/>
<path d="M70.2257 58.2306C70.2257 58.2306 72.4301 58.9014 72.8907 59.3306C73.3522 59.7627 74.6443 62.4569 74.9822 62.997C75.3201 63.537 75.3611 63.6321 76.9419 63.4866C78.5217 63.3383 89.2613 61.1306 91.4628 61.8023C93.6672 62.473 95.5227 63.3997 94.1861 65.4899C92.8496 67.5801 86.6424 66.5359 83.0359 66.1656C79.4294 65.7953 74.8395 65.1016 73.9498 64.7343C73.0602 64.367 72.0267 60.5745 71.8935 60.1617C71.7603 59.7489 70.6538 59.1306 70.0378 58.8774C69.4275 58.6222 69.5688 58.2784 70.2257 58.2306Z" fill="#FEDEA5"/>
<path d="M92.914 66.5322C90.8506 67.2142 87.2844 66.8018 84.5069 66.4802C83.9805 66.421 83.4828 66.3619 83.0243 66.3153C79.4877 65.9539 74.8336 65.259 73.8961 64.8723C73.3088 64.6288 72.649 63.2207 71.8252 60.4388C71.7919 60.3284 71.7681 60.2468 71.7538 60.2036C71.6577 59.9031 70.7244 59.317 69.986 59.0116C69.5211 58.8202 69.4832 58.5899 69.5016 58.472C69.5365 58.2496 69.7981 58.1057 70.2156 58.0763C70.2347 58.0764 70.2539 58.0764 70.272 58.0832C70.5017 58.1511 72.5223 58.7771 72.9963 59.2179C73.328 59.5268 74.0004 60.8188 74.5441 61.8563C74.7931 62.3299 75.0058 62.7421 75.1137 62.9141C75.4239 63.409 75.4601 63.4705 76.9289 63.3333C77.3272 63.2943 78.3442 63.1211 79.6294 62.9008C83.4446 62.2437 89.8329 61.145 91.5092 61.6549C92.8706 62.0707 94.3151 62.6316 94.6971 63.6618C94.9019 64.2139 94.7733 64.857 94.3173 65.57C94.0312 66.016 93.5433 66.3242 92.914 66.5322ZM69.9507 58.4322C69.8386 58.4693 69.8021 58.5133 69.7992 58.5238C69.7983 58.5401 69.8507 58.6314 70.0985 58.7348C70.6629 58.9668 71.8765 59.6103 72.0393 60.1124C72.0535 60.1556 72.0783 60.2401 72.1125 60.3534C73.08 63.6086 73.6786 64.4554 74.0077 64.5926C74.8275 64.9319 79.2222 65.6231 83.0517 66.0123C83.5101 66.0589 84.0107 66.1171 84.5381 66.1792C88.0842 66.5886 92.9425 67.149 94.0591 65.4062C94.4672 64.7697 94.5802 64.234 94.4097 63.7664C94.0735 62.8552 92.6356 62.3145 91.4205 61.9461C89.8151 61.4576 83.4718 62.5478 79.6805 63.2002C78.3867 63.4233 77.3669 63.5974 76.9561 63.6374C75.404 63.7829 75.2472 63.7038 74.8683 63.0974C74.7413 62.8966 74.5372 62.5008 74.273 62.0003C73.797 61.0906 73.0806 59.714 72.7872 59.4435C72.4327 59.1134 70.8331 58.5751 70.2092 58.3851C70.0972 58.3934 70.0139 58.4113 69.9507 58.4322Z" fill="#263238"/>
<path d="M83.038 66.1644C82.6819 66.1287 82.3115 66.0882 81.9401 66.0448L81.9953 62.6529C85.6611 62.0452 90.132 61.395 91.4648 61.8011C93.6692 62.4718 95.5247 63.3985 94.1882 65.4887C92.8516 67.5789 86.6444 66.5347 83.038 66.1644Z" fill="#F26F1F"/>
<path d="M92.9139 66.5326C90.8506 67.2146 87.2844 66.8022 84.5068 66.4806C83.9804 66.4214 83.4827 66.3622 83.0243 66.3157C82.6644 66.2781 82.2978 66.2395 81.9236 66.1971C81.847 66.1872 81.7868 66.1209 81.7898 66.0432L81.845 62.6513C81.8461 62.5775 81.896 62.5162 81.9717 62.504C85.3952 61.9348 90.1094 61.2297 91.512 61.6543C92.8735 62.0701 94.318 62.631 94.6999 63.6613C94.9047 64.2134 94.7762 64.8565 94.3201 65.5695C94.0311 66.0164 93.5404 66.3256 92.9139 66.5326ZM83.0526 66.0156C83.5111 66.0622 84.0116 66.1204 84.539 66.1825C88.0851 66.5919 92.9434 67.1522 94.06 65.4094C94.4681 64.773 94.5811 64.2373 94.4106 63.7697C94.0744 62.8585 92.6366 62.3177 91.4215 61.9494C90.0963 61.5471 85.5267 62.2268 82.1444 62.7856L82.0945 65.9137C82.418 65.9474 82.7387 65.982 83.0526 66.0156Z" fill="#263238"/>
<path d="M88.5487 66.713C88.7535 66.7252 88.9536 66.7326 89.1536 66.7399L89.4283 61.6973C89.2962 61.7026 89.1621 61.7118 89.0223 61.7228C88.9946 61.7256 88.963 61.7265 88.9352 61.7292C88.8979 61.732 88.8577 61.7357 88.8203 61.7385L88.5487 66.713Z" fill="#263238"/>
<path d="M85.8092 62.0693C85.7575 62.0768 85.7029 62.0853 85.6503 62.0899C85.5105 62.1106 85.3697 62.1283 85.2299 62.149L84.951 66.3784C85.1061 66.3942 85.2621 66.4129 85.4181 66.4316C85.4612 66.4366 85.5071 66.4406 85.554 66.4474L85.8427 62.0646C85.8313 62.0684 85.8217 62.0684 85.8092 62.0693Z" fill="#263238"/>
<path d="M92.5902 62.1892C92.4926 63.1958 92.3063 65.0241 92.087 66.5885C92.3092 66.5471 92.5228 66.4988 92.7201 66.44C92.9152 65.0146 93.078 63.4336 93.1727 62.4471C92.9891 62.3544 92.7921 62.2694 92.5902 62.1892Z" fill="#263238"/>
<path d="M128.566 106.339C129.236 106.437 129.906 106.854 129.906 106.854C129.906 106.854 129.879 107.639 128.728 109.355C130.096 110.041 131.365 110.796 131.74 110.618C132.476 110.27 133.44 106.117 133.792 104.934C134.144 103.754 135.109 102.757 134.763 101.064C134.416 99.367 133.425 99.5892 133.201 100.196C132.978 100.804 131.15 103.152 130.033 103.95C128.916 104.744 128.057 105.446 128.057 105.446C128.057 105.446 127.896 106.24 128.566 106.339Z" fill="#F37630"/>
<path d="M131.758 110.772C131.396 110.891 130.678 110.534 129.475 109.913C129.21 109.776 128.933 109.632 128.654 109.491C128.616 109.472 128.585 109.437 128.575 109.396C128.564 109.354 128.571 109.307 128.594 109.271C129.489 107.937 129.69 107.177 129.735 106.936C129.539 106.825 129.035 106.563 128.539 106.491C128.318 106.458 128.151 106.36 128.037 106.196C127.813 105.877 127.898 105.431 127.905 105.413C127.913 105.378 127.931 105.346 127.959 105.324C127.967 105.319 128.832 104.611 129.942 103.822C131.05 103.035 132.843 100.717 133.058 100.141C133.186 99.7952 133.511 99.5728 133.851 99.5979C134.086 99.6159 134.657 99.7913 134.911 101.033C135.165 102.272 134.755 103.136 134.357 103.967C134.194 104.312 134.039 104.634 133.936 104.978C133.87 105.202 133.779 105.535 133.673 105.928C133.035 108.308 132.409 110.467 131.803 110.753C131.789 110.758 131.772 110.767 131.758 110.772ZM128.943 109.296C129.173 109.412 129.397 109.53 129.616 109.643C130.471 110.088 131.439 110.589 131.671 110.481C132.203 110.228 132.997 107.269 133.379 105.849C133.487 105.453 133.577 105.116 133.643 104.893C133.752 104.528 133.92 104.178 134.08 103.841C134.457 103.052 134.844 102.237 134.611 101.097C134.462 100.377 134.168 99.9307 133.824 99.9037C133.621 99.8877 133.42 100.031 133.339 100.249C133.11 100.868 131.287 103.241 130.117 104.071C129.16 104.752 128.388 105.368 128.197 105.524C128.186 105.626 128.175 105.863 128.289 106.024C128.355 106.117 128.452 106.171 128.586 106.191C129.28 106.294 129.956 106.709 129.985 106.728C130.033 106.757 130.059 106.809 130.055 106.862C130.052 106.892 130.014 107.664 128.943 109.296Z" fill="#263238"/>
<path d="M134.068 99.8207C134.473 101.875 134.061 102.721 132.586 105.956C131.435 108.48 131.14 109.903 131.07 110.578C131.374 110.66 131.607 110.679 131.737 110.62C132.473 110.271 133.437 106.119 133.789 104.935C134.141 103.755 135.106 102.759 134.76 101.065C134.611 100.335 134.345 99.9626 134.068 99.8207Z" fill="white"/>
<path d="M131.749 110.775C131.591 110.827 131.36 110.811 131.032 110.724C130.959 110.707 130.91 110.637 130.921 110.563C131.002 109.785 131.332 108.344 132.45 105.892L132.535 105.707C133.935 102.64 134.31 101.817 133.921 99.8496C133.909 99.7929 133.934 99.7336 133.98 99.6992C134.026 99.6648 134.088 99.6602 134.142 99.6872C134.392 99.8185 134.731 100.16 134.912 101.033C135.165 102.272 134.755 103.136 134.358 103.967C134.194 104.312 134.039 104.635 133.936 104.978C133.87 105.202 133.779 105.535 133.673 105.928C133.035 108.308 132.41 110.467 131.803 110.754C131.787 110.762 131.77 110.768 131.749 110.775ZM131.238 110.461C131.53 110.524 131.639 110.498 131.671 110.481C132.203 110.228 132.998 107.269 133.379 105.849C133.487 105.453 133.577 105.116 133.644 104.893C133.752 104.528 133.921 104.179 134.08 103.842C134.457 103.053 134.844 102.238 134.611 101.098C134.527 100.691 134.41 100.423 134.296 100.25C134.554 102.014 134.097 103.015 132.808 105.837L132.722 106.022C131.641 108.392 131.326 109.783 131.238 110.461Z" fill="#263238"/>
<path d="M85.1855 96.9954C85.1424 97.0096 85.0898 97.0047 85.0506 96.9729C84.9836 96.9247 84.9676 96.8278 85.0155 96.7608C85.0155 96.7608 85.2536 96.4298 85.6481 95.8873C85.696 95.8203 85.7928 95.8043 85.8606 95.8553C85.9276 95.9035 85.9437 96.0004 85.8928 96.0684C85.4974 96.608 85.2631 96.941 85.2631 96.941C85.2401 96.9677 85.2142 96.9859 85.1855 96.9954Z" fill="white"/>
<path d="M84.2781 97.8675C84.2781 97.8675 91.3503 87.4378 97.8381 82.3097C104.327 77.1844 107.418 78.185 107.798 80.9348C108.175 83.6856 107.584 93.1455 106.521 98.6085C105.458 104.072 103.559 113.111 103.559 113.111C103.559 113.111 109.71 117.573 110.314 118.121C110.918 118.665 108.175 119.681 106.803 119.387C105.712 119.153 105.765 119.257 103.358 118.608C99.2777 117.51 98.7996 116.709 99.0225 115.783C99.7403 112.814 100.908 110.144 100.668 106.929C100.23 101.09 100.415 93.2787 100.947 93.9527C100.947 93.9527 98.7353 98.5173 94.2314 101.923C89.7246 105.329 86.2694 105.976 83.0226 103.714" fill="#73B4EA"/>
<path d="M109.194 119.264C108.387 119.531 107.4 119.672 106.767 119.539C106.448 119.472 106.228 119.433 106.015 119.395C105.504 119.305 105.02 119.219 103.315 118.76C99.2565 117.667 98.6129 116.828 98.8724 115.752C99.0548 114.992 99.2697 114.244 99.4807 113.523C100.104 111.358 100.692 109.317 100.514 106.948C100.244 103.312 100.172 97.7325 100.444 95.1603C99.4854 96.7454 97.4427 99.6888 94.3184 102.05C89.687 105.552 86.1745 106.103 82.9286 103.844C82.8589 103.796 82.8437 103.702 82.8908 103.633C82.9378 103.563 83.0345 103.547 83.1014 103.595C86.2201 105.768 89.6244 105.218 94.1331 101.808C97.7243 99.0942 99.8638 95.6044 100.555 94.3599C100.623 94.0245 100.705 93.8185 100.804 93.7824C100.839 93.771 100.955 93.7359 101.059 93.8676C101.096 93.9128 101.101 93.9752 101.077 94.0278C101.073 94.0355 100.982 94.2222 100.803 94.54C100.537 96.2415 100.434 101.901 100.811 106.93C100.993 109.352 100.396 111.421 99.7677 113.61C99.5596 114.33 99.3466 115.075 99.1652 115.828C98.9934 116.543 99.1758 117.336 103.392 118.469C105.082 118.927 105.559 119.009 106.064 119.1C106.28 119.138 106.504 119.179 106.83 119.247C107.971 119.489 109.998 118.803 110.232 118.343C110.253 118.301 110.252 118.279 110.211 118.241C109.62 117.708 103.531 113.286 103.468 113.243C103.419 113.208 103.396 113.149 103.408 113.09C103.427 113.001 105.319 103.989 106.371 98.5878C107.446 93.0634 108.019 83.6764 107.648 80.9621C107.515 79.993 107.044 79.3183 106.29 79.0147C105.296 78.6116 102.889 78.5223 97.9308 82.4355C91.536 87.4882 84.4745 97.8537 84.4035 97.957C84.3564 98.0269 84.2635 98.0448 84.1937 97.9976C84.1239 97.9504 84.1059 97.8573 84.153 97.7875C84.224 97.6841 91.3134 87.2775 97.7437 82.1971C101.505 79.2257 104.579 77.9955 106.401 78.7322C107.261 79.0802 107.795 79.8367 107.946 80.9208C108.321 83.6562 107.746 93.0951 106.667 98.6434C105.675 103.744 103.93 112.065 103.724 113.053C104.479 113.599 109.838 117.499 110.413 118.014C110.555 118.143 110.588 118.311 110.503 118.48C110.353 118.766 109.829 119.054 109.194 119.264Z" fill="#73B4EA"/>
<path d="M86.7739 94.8279C86.728 94.8431 86.6772 94.8343 86.6361 94.8064C86.5682 94.7553 86.556 94.6603 86.604 94.5934C88.0877 92.611 90.1961 89.8952 91.8266 88.2221C91.8832 88.1619 91.9818 88.1612 92.0392 88.2189C92.1003 88.2786 92.1002 88.3745 92.0426 88.4319C90.4245 90.0944 88.3248 92.7979 86.8458 94.7754C86.8285 94.8003 86.8027 94.8184 86.7739 94.8279Z" fill="white"/>
<path d="M98.3959 97.741C98.3557 97.7543 98.3097 97.7503 98.2696 97.7252C98.1978 97.6818 98.176 97.5868 98.2192 97.515L99.9957 94.6245C99.9681 94.0202 99.7737 87.9346 102.449 83.8491C102.496 83.7792 102.588 83.7584 102.658 83.8056C102.728 83.8528 102.749 83.945 102.702 84.0148C99.9541 88.2104 100.296 94.589 100.301 94.6514C100.302 94.683 100.296 94.7137 100.279 94.7386L98.4803 97.6684C98.4582 97.7076 98.4304 97.7296 98.3959 97.741Z" fill="white"/>
<path d="M107.462 92.553C107.445 92.5587 107.424 92.5624 107.404 92.5595C107.319 92.5554 107.257 92.4832 107.261 92.3989L107.352 90.9088C107.356 90.8244 107.428 90.7623 107.512 90.7664C107.597 90.7705 107.659 90.8427 107.655 90.9271L107.564 92.4171C107.563 92.4813 107.52 92.534 107.462 92.553Z" fill="white"/>
<path d="M107.633 89.7519C107.616 89.7576 107.595 89.7614 107.575 89.7584C107.49 89.7543 107.428 89.6822 107.432 89.5978L107.759 84.2024C107.763 84.118 107.835 84.0559 107.919 84.06C108.004 84.0641 108.066 84.1363 108.062 84.2206L107.735 89.616C107.731 89.6812 107.69 89.7329 107.633 89.7519Z" fill="white"/>
<path d="M106.798 119.392C108.169 119.683 110.916 118.669 110.31 118.125C109.706 117.581 103.554 113.116 103.554 113.116C103.554 113.116 104.057 110.723 104.691 107.654C102.761 108.027 101.461 107.584 100.67 107.092C100.861 110.236 99.7258 112.867 99.0176 115.787C98.7947 116.714 99.2728 117.515 103.353 118.613C105.76 119.262 105.707 119.158 106.798 119.392Z" fill="#FEDEA5"/>
<path d="M109.194 119.264C108.387 119.531 107.4 119.672 106.767 119.539C106.448 119.472 106.228 119.433 106.015 119.395C105.504 119.305 105.02 119.219 103.315 118.76C99.2565 117.667 98.6129 116.829 98.8724 115.752C99.0557 114.995 99.2687 114.251 99.4768 113.53C100.087 111.412 100.662 109.41 100.521 107.103C100.518 107.046 100.545 106.992 100.596 106.963C100.644 106.934 100.704 106.933 100.753 106.965C101.48 107.418 102.747 107.878 104.664 107.506C104.715 107.496 104.765 107.511 104.799 107.548C104.834 107.584 104.851 107.636 104.838 107.685C104.28 110.394 103.821 112.574 103.723 113.05C104.478 113.596 109.837 117.496 110.412 118.012C110.554 118.141 110.587 118.309 110.503 118.477C110.353 118.766 109.829 119.054 109.194 119.264ZM100.836 107.362C100.92 109.603 100.36 111.555 99.7687 113.613C99.5625 114.33 99.3495 115.074 99.1671 115.824C98.9954 116.539 99.1777 117.332 103.394 118.466C105.084 118.923 105.561 119.005 106.066 119.097C106.282 119.134 106.506 119.175 106.832 119.243C107.973 119.485 110 118.8 110.234 118.339C110.255 118.297 110.254 118.275 110.213 118.237C109.622 117.704 103.533 113.283 103.47 113.239C103.421 113.205 103.398 113.145 103.41 113.087C103.41 113.087 103.89 110.807 104.499 107.845C102.799 108.123 101.6 107.772 100.836 107.362Z" fill="#263238"/>
<path d="M103.554 113.116C103.554 113.116 103.077 112.954 102.851 113.882C102.625 114.809 102.591 115.67 102.591 115.67L99.5338 113.876C99.3527 114.504 99.1734 115.139 99.0181 115.788C98.7952 116.714 99.2733 117.515 103.353 118.613C105.761 119.262 105.707 119.158 106.798 119.392C108.169 119.683 110.917 118.669 110.31 118.126C109.705 117.578 103.554 113.116 103.554 113.116Z" fill="#F37630"/>
<path d="M109.194 119.264C108.387 119.531 107.401 119.671 106.767 119.539C106.448 119.472 106.228 119.433 106.015 119.395C105.504 119.305 105.02 119.219 103.316 118.76C99.2566 117.667 98.613 116.828 98.8725 115.752C99.0356 115.079 99.2254 114.409 99.3893 113.834C99.4027 113.788 99.4354 113.752 99.4775 113.735C99.5225 113.716 99.5685 113.72 99.6115 113.745L102.458 115.414C102.485 115.089 102.549 114.483 102.704 113.844C102.806 113.427 102.973 113.151 103.202 113.024C103.407 112.912 103.584 112.965 103.602 112.972C103.616 112.977 103.632 112.985 103.644 112.993C103.896 113.175 109.809 117.467 110.413 118.012C110.554 118.14 110.587 118.308 110.503 118.477C110.353 118.766 109.83 119.054 109.194 119.264ZM99.6252 114.104C99.4749 114.633 99.3072 115.225 99.1634 115.822C98.9917 116.537 99.174 117.33 103.39 118.464C105.081 118.921 105.557 119.003 106.062 119.095C106.279 119.132 106.503 119.173 106.828 119.241C107.97 119.483 109.997 118.798 110.23 118.337C110.251 118.295 110.25 118.273 110.209 118.235C109.637 117.718 103.932 113.575 103.491 113.255C103.465 113.251 103.405 113.254 103.338 113.292C103.237 113.352 103.094 113.507 102.995 113.914C102.776 114.814 102.742 115.665 102.741 115.672C102.739 115.724 102.708 115.772 102.662 115.8C102.616 115.825 102.559 115.825 102.512 115.799L99.6252 114.104Z" fill="#F37630"/>
<path d="M103.355 118.613C105.762 119.262 105.709 119.158 106.8 119.392C108.034 119.654 110.379 118.86 110.398 118.301C105.96 119.513 101.194 117.225 98.9924 115.937C98.8567 116.8 99.4948 117.573 103.355 118.613Z" fill="white"/>
<path d="M109.171 119.278C108.386 119.537 107.427 119.682 106.768 119.539C106.449 119.471 106.229 119.432 106.015 119.394C105.504 119.304 105.02 119.218 103.316 118.759C99.3891 117.699 98.6928 116.885 98.8401 115.913C98.8488 115.862 98.8795 115.82 98.9236 115.799C98.9705 115.777 99.0222 115.779 99.0662 115.806C101.429 117.188 106.037 119.333 110.355 118.155C110.402 118.142 110.45 118.152 110.488 118.181C110.527 118.21 110.548 118.257 110.546 118.306C110.54 118.455 110.443 118.605 110.258 118.749C110.013 118.942 109.619 119.13 109.171 119.278ZM99.1258 116.189C99.1544 116.777 99.7696 117.491 103.394 118.465C105.085 118.922 105.561 119.004 106.067 119.096C106.283 119.133 106.507 119.174 106.832 119.243C107.744 119.436 109.361 119.023 110.02 118.55C105.843 119.49 101.504 117.55 99.1258 116.189Z" fill="#263238"/>
</svg>
