<svg width="375" height="95" viewBox="0 0 375 95" fill="none" xmlns="http://www.w3.org/2000/svg">
<path d="M47.9519 40.4455C47.9519 23.0704 72.4519 6.58416 88 0H-10V95H79.048C82.8173 79.4802 74.3363 67.7228 65.3846 62.0792C56.4329 56.4356 47.9519 54.5 47.9519 40.4455Z" fill="#444359"/>
<path d="M200.05 32.7186C184.204 16.6279 191.594 2.20173 197.27 -3H374.5V43.4688C333.841 87.1633 306.735 55.2594 304.303 47.2834C301.87 39.3074 299.438 12.2584 261.212 35.4928C222.985 58.7272 219.858 52.8319 200.05 32.7186Z" fill="#9B9DB4" fill-opacity="0.49"/>
<path d="M246.5 97.9998C246.5 115.673 232.173 130 214.5 130C196.827 130 182.5 115.673 182.5 97.9998C178.864 64.0664 191.221 70.278 204.804 77.3438C210.764 80.4442 217.683 79.3984 223.694 76.3997C243.788 66.3768 246.5 82.4416 246.5 97.9998Z" fill="#6C71A1"/>
</svg>
