<svg width="127" height="111" viewBox="0 0 127 111" fill="none" xmlns="http://www.w3.org/2000/svg">
<path d="M111.052 57.8212H6.68506V95.6141H111.052V57.8212Z" fill="#FEDEA5"/>
<path d="M83.2953 52.1212C83.3574 51.9242 82.242 52.3823 82.2505 52.1468C82.2804 51.3463 82.0591 50.4813 81.9186 49.698C81.6448 48.1689 81.3445 46.6436 81.0233 45.1233C80.653 43.3709 80.268 41.6224 79.8954 39.8712C79.5748 38.3626 79.2339 36.8451 78.8415 35.3527C78.5192 34.1247 78.1314 32.9317 77.5816 31.7827C77.349 31.2973 77.1707 30.7178 76.7247 30.3727C76.246 30.0025 75.6003 30.091 75.0307 30.0515C72.6384 29.8851 71.816 31.4888 72.145 34.0228C72.4312 36.2266 76.5825 54.2772 78.7309 55.1167C80.198 55.6906 82.8596 53.5045 83.2953 52.1212Z" fill="#F29A31"/>
<path d="M98.0289 49.6611C95.3521 50.3859 87.004 54.3037 84.2899 54.9829C82.4474 55.4443 79.8446 56.4052 78.3171 54.7474C77.4308 53.7855 77.5516 52.1895 78.2363 51.1708C79.1412 49.8247 78.6258 50.7433 80.0867 50.3981C83.3799 49.6193 89.2032 49.6171 95.7349 47.8057C96.4134 47.6175 100.126 49.0933 98.0289 49.6611Z" fill="#F29A31"/>
<path d="M96.6933 44.8534C96.6103 44.6435 96.5544 44.417 96.5629 44.191C96.5804 43.7428 96.7373 43.263 97.1274 42.9963C97.3238 42.8622 97.6416 42.8488 97.7082 43.1294C97.7624 43.3576 97.6134 43.5658 97.5479 43.7746C97.448 44.093 97.4378 44.4821 97.5964 44.7833C97.7088 44.9965 97.9047 45.154 98.1372 45.2242C98.3788 45.2965 98.6453 45.2776 98.8778 45.1852C99.1155 45.0906 99.3136 44.918 99.4378 44.697C99.5671 44.4671 99.6185 44.1932 99.5868 43.9327C99.5558 43.6788 99.4384 43.435 99.2222 43.2853C98.993 43.1266 98.704 43.096 98.4319 43.0899C98.2992 43.0871 98.1655 43.0949 98.0328 43.0865C97.9357 43.0804 97.811 43.0726 97.7342 43.0075C97.6365 42.9245 97.6382 42.7887 97.6631 42.6768C97.7161 42.4341 98.0463 42.2988 98.2575 42.2404C98.5905 42.1485 98.9354 42.2109 99.2397 42.3628C99.4045 42.4447 99.5699 42.5543 99.7048 42.6785C99.8894 42.8483 100.062 43.0737 100.19 43.288C100.3 43.4734 100.369 43.676 100.39 43.8898C100.43 44.2945 100.359 44.751 100.147 45.1034C100.025 45.3043 99.8476 45.5003 99.6602 45.6439C99.4954 45.7697 99.2837 45.8755 99.0884 45.9451C98.8959 46.0146 98.6927 46.0425 98.4883 46.0391C97.7257 46.0291 96.9744 45.5637 96.6933 44.8534Z" fill="#F29A31"/>
<path d="M97.2411 45.5843C97.2411 45.5843 97.9767 47.4948 93.2559 48.42L96.3583 49.9303C97.8017 49.7839 99.2112 49.412 100.565 48.9038C100.952 48.7585 101.333 48.6026 101.711 48.4378C102.606 48.0476 103.54 47.6485 104.262 46.9755C104.367 46.8775 105.149 46.116 104.684 46.0564C104.3 46.0074 103.972 46.2279 103.668 46.4271C102.936 46.907 101.912 47.3946 101.019 47.0562C102.181 46.7138 103.344 46.1488 104.169 45.252C104.508 44.8829 104.801 44.4771 105.058 44.0479C105.204 43.8041 105.375 43.5119 105.301 43.2174C105.236 42.9613 104.982 42.9491 104.77 43.0231C104.425 43.1439 104.252 43.5174 104.022 43.7729C103.71 44.1209 103.329 44.4042 102.955 44.6842C102.609 44.9431 102.252 45.1908 101.865 45.389C101.646 45.5008 101.418 45.5966 101.181 45.6662C100.901 45.7486 100.615 45.7653 100.324 45.7658C100.744 45.62 101.145 45.4441 101.541 45.2437C102.435 44.7922 103.339 44.1916 103.981 43.4211C104.214 43.1422 104.408 42.8144 104.494 42.4603C104.54 42.2722 104.635 42.0773 104.504 41.9003C104.363 41.7105 104.091 41.7138 103.893 41.8001C103.639 41.9109 103.498 42.158 103.326 42.3579C102.771 43.0031 101.915 43.7178 101.173 44.1353C100.796 44.3474 99.0752 45.4747 98.5287 45.3767L97.2411 45.5843Z" fill="#F29A31"/>
<path d="M43.356 52.0515C43.2939 51.8545 44.4094 52.3126 44.4009 52.0771C44.371 51.2767 44.5928 50.4116 44.7328 49.6284C45.0066 48.0992 45.3069 46.5739 45.6281 45.0537C45.9984 43.3018 46.3834 41.5533 46.7559 39.8015C47.0766 38.2929 47.4175 36.7754 47.8098 35.2836C48.1321 34.0555 48.52 32.8626 49.0698 31.7136C49.3023 31.2282 49.4807 30.6487 49.9267 30.3042C50.4053 29.934 51.0511 30.0225 51.6207 29.983C54.013 29.8165 54.8354 31.4203 54.5064 33.9542C54.2202 36.1581 50.0689 54.2086 47.9205 55.0481C46.4534 55.6209 43.7924 53.4354 43.356 52.0515Z" fill="#F29A31"/>
<path d="M28.6226 49.5916C31.2994 50.3163 39.6477 54.2336 42.3617 54.9133C44.2042 55.3748 46.807 56.3356 48.3345 54.6778C49.2208 53.7159 49.1 52.1199 48.4153 51.1012C47.5104 49.7547 48.0258 50.6737 46.5649 50.3286C43.2717 49.5498 37.4484 49.5476 30.9167 47.7362C30.2382 47.548 26.5256 49.0238 28.6226 49.5916Z" fill="#F29A31"/>
<path d="M29.958 44.7824C30.041 44.5731 30.0968 44.346 30.0884 44.12C30.0709 43.6724 29.9139 43.192 29.5239 42.9254C29.3274 42.7906 29.0096 42.7778 28.943 43.0584C28.8888 43.2866 29.0379 43.4948 29.1033 43.7036C29.2033 44.022 29.2134 44.4111 29.0548 44.7123C28.9425 44.9255 28.7472 45.083 28.514 45.1532C28.2724 45.2255 28.006 45.2066 27.7734 45.1142C27.5358 45.0196 27.3376 44.847 27.2134 44.626C27.0842 44.3961 27.0328 44.1222 27.0644 43.8617C27.0955 43.6078 27.2129 43.3646 27.4291 43.2143C27.6583 43.0556 27.9473 43.025 28.2194 43.0189C28.352 43.0161 28.4858 43.0239 28.6184 43.0155C28.7155 43.0094 28.8403 43.0016 28.9171 42.9365C29.0147 42.8541 29.013 42.7177 28.9882 42.6058C28.9351 42.3631 28.6049 42.2278 28.3938 42.1694C28.0607 42.0775 27.7158 42.1399 27.4116 42.2919C27.2467 42.3742 27.0814 42.4834 26.9464 42.6075C26.7619 42.7773 26.5891 43.0027 26.4615 43.217C26.3509 43.4024 26.2826 43.605 26.2612 43.8194C26.2211 44.2241 26.2922 44.6805 26.5044 45.0329C26.6258 45.2339 26.8036 45.4298 26.991 45.5734C27.1559 45.6998 27.3675 45.805 27.5629 45.8746C27.7553 45.9436 27.9586 45.972 28.1629 45.9687C28.9255 45.9581 29.6769 45.4927 29.958 44.7824Z" fill="#F29A31"/>
<path d="M29.4101 45.5143C29.4101 45.5143 28.6746 47.4248 33.3954 48.35L30.2929 49.8602C28.8495 49.7138 27.44 49.342 26.0858 48.8337C25.6997 48.6884 25.3181 48.5326 24.9405 48.3678C24.0452 47.9776 23.1115 47.5784 22.3895 46.9054C22.2846 46.8074 21.5027 46.0454 21.9667 45.9864C22.3517 45.9374 22.6791 46.1578 22.9834 46.3571C23.7155 46.8369 24.7395 47.3246 25.632 46.9861C24.4703 46.6438 23.3068 46.0788 22.4827 45.182C22.1429 44.8129 21.8499 44.4071 21.5936 43.9779C21.4474 43.7341 21.2764 43.4418 21.3503 43.1473C21.4152 42.8913 21.6693 42.879 21.8809 42.953C22.2264 43.0738 22.3991 43.4474 22.6289 43.7029C22.9416 44.0508 23.3221 44.3341 23.6958 44.6142C24.0418 44.873 24.3991 45.1207 24.7858 45.3189C25.0048 45.4308 25.2334 45.5265 25.47 45.5961C25.7505 45.6785 26.0361 45.6952 26.3269 45.6963C25.9069 45.551 25.5061 45.3746 25.1098 45.1742C24.2162 44.7227 23.3131 44.1221 22.6701 43.3516C22.4375 43.0727 22.2428 42.7448 22.157 42.3908C22.1113 42.2027 22.0159 42.0078 22.1474 41.8308C22.2885 41.641 22.5606 41.6443 22.7587 41.7306C23.0122 41.8414 23.1533 42.0885 23.3255 42.2878C23.8804 42.933 24.7361 43.6478 25.4784 44.0653C25.8555 44.2774 27.5761 45.4046 28.1225 45.3067L29.4101 45.5143Z" fill="#F29A31"/>
<path d="M54.8212 30.0261H73.3262C73.3262 30.0261 70.5314 35.094 63.4155 35.1407C63.4155 35.1402 54.4774 33.0265 54.8212 30.0261Z" fill="#F29A31"/>
<path d="M74.1035 51.7359L76.9542 30.902C76.9542 30.4182 76.5173 30.0269 75.9782 30.0269H72.6878C72.6912 30.0659 68.6912 33.7126 63.7548 33.7126C58.8183 33.7126 54.8184 30.0664 54.8218 30.0269C54.8218 30.0269 52.4588 29.8471 50.4171 30.0453L54.2426 51.7364L49.0059 63.8295C65.9213 73.0018 78.5043 64.1028 78.5043 63.6197L74.1035 51.7359Z" fill="#7E64BF"/>
<path d="M50.4099 60.5862C50.4099 60.5862 63.817 68.7364 77.3805 60.5862C77.3805 60.5862 81.1738 66.5649 81.4572 72.8614C81.4572 72.8614 68.7579 75.8696 45.9849 72.8614C45.9854 72.8614 47.172 65.2417 50.4099 60.5862Z" fill="#565D70"/>
<path d="M25.7979 77.1005C33.9852 77.3666 42.1877 75.9789 50.3773 75.7985C52.8345 75.7445 55.5582 75.366 57.3815 73.5763C59.2731 71.7198 58.7125 66.1352 56.769 64.3305C52.3609 60.2373 47.801 62.1205 42.5095 63.206C37.8542 64.1613 26.5057 67.8609 26.4623 68.1237L25.7979 77.1005Z" fill="#565D70"/>
<path d="M97.1354 77.1344C88.9481 77.4005 82.7473 76.261 74.5571 76.0806C72.1005 76.0266 69.3763 75.6481 67.553 73.8584C65.6614 72.0019 68.2857 66.6902 70.2292 64.8854C74.6373 60.7922 78.0056 62.1906 83.2976 63.2761C87.9529 64.2313 96.0714 66.9145 95.7169 67.3921L97.1354 77.1344Z" fill="#565D70"/>
<path d="M66.6018 22.5958H61.2075V31.1952H66.6018V22.5958Z" fill="#F29A31"/>
<path d="M62.3979 25.9625C62.3979 25.9625 64.5639 26.5353 66.6011 25.4955V26.4886C66.6011 26.488 64.4538 27.0625 62.3979 25.9625Z" fill="#DB7D0D"/>
<path d="M66.5454 25.3107V30.0079H66.6583V25.3107" fill="#333242"/>
<path d="M63.6559 8.66448C63.7321 7.52275 63.6333 6.43557 62.2723 6.09043C60.987 5.76423 59.4228 5.95572 58.405 6.84194C58.1307 7.08075 57.8626 7.38469 57.5323 7.55392C56.798 7.92967 55.8999 7.71034 55.1683 8.13508C54.2623 8.66058 53.7796 9.61527 52.9408 10.2159C52.185 10.7576 51.2649 10.9969 50.3679 11.2124C49.4585 11.4311 48.5768 11.9232 48.2217 12.8039C47.8937 13.6177 48.163 14.5385 47.8068 15.3412C47.4879 16.061 46.7569 16.4662 46.1845 16.975C44.6988 18.296 45.3095 20.2332 46.5757 21.4128C47.7125 22.4721 47.5754 24.0319 49.2863 24.6142C51.1672 25.2544 53.1779 24.4349 55.0435 25.2811C55.9044 25.6713 56.6348 26.0014 57.6035 25.8194C58.9594 25.565 60.0883 25.2839 61.4798 25.3768C62.51 25.4453 63.6734 25.3512 64.1103 24.303C65.0784 21.9817 63.8394 19.2679 63.8625 16.8876C63.8732 15.8127 64.1583 14.7528 64.055 13.6756C63.9539 12.6213 63.6384 11.597 63.556 10.5382C63.5131 9.98044 63.6124 9.31355 63.6559 8.66448Z" fill="#565D70"/>
<path d="M62.5946 8.74756C62.3384 7.632 62.2627 6.5426 63.5514 5.99149C64.769 5.47045 66.3439 5.41756 67.491 6.13511C67.7997 6.32883 68.1125 6.58769 68.4653 6.70292C69.2505 6.9601 70.1029 6.60494 70.8926 6.91111C71.8708 7.28965 72.4997 8.15805 73.4232 8.6212C74.2558 9.03926 75.2024 9.13334 76.1225 9.20737C77.0556 9.28252 78.0045 9.63211 78.4956 10.4471C78.9489 11.1997 78.8298 12.151 79.309 12.8886C79.7386 13.55 80.5255 13.8372 81.1713 14.2514C82.8489 15.3263 82.5543 17.3336 81.4908 18.6947C80.5362 19.9166 80.9201 21.4357 79.3232 22.2758C77.5676 23.1993 75.4514 22.7005 73.7432 23.825C72.9552 24.3438 72.2863 24.7824 71.3007 24.7529C69.9211 24.7117 68.7616 24.6088 67.4018 24.9155C66.3953 25.1426 65.2313 25.2294 64.633 24.262C63.3076 22.1193 64.0996 19.2469 63.6976 16.9C63.5164 15.8401 63.066 14.8375 62.9965 13.7576C62.9288 12.7005 63.0778 11.64 62.9903 10.5818C62.9452 10.0246 62.7408 9.38217 62.5946 8.74756Z" fill="#565D70"/>
<path d="M71.4797 17.469C71.3572 19.7213 70.5517 21.8227 69.3375 23.3953C68.1154 24.969 66.484 26.0145 64.5235 26.1659C62.5631 26.3195 60.7855 25.5396 59.328 24.1747C57.8784 22.8092 56.7488 20.8586 56.269 18.6531C55.8073 16.447 56.2933 14.3489 57.5504 12.6688C58.7974 11.0027 60.8154 9.75413 63.1953 9.57543C65.574 9.38394 67.766 10.3047 69.2624 11.757C70.7713 13.2222 71.5847 15.219 71.4797 17.469Z" fill="#F29A31"/>
<path d="M57.7927 20.3172C57.7329 20.0389 57.6369 19.7672 57.5308 19.5034C57.4461 19.2941 57.3417 19.0931 57.2655 18.881C57.1639 18.5994 57.0758 18.3082 56.9093 18.0555C56.8128 17.9091 56.701 17.7783 56.5531 17.6803C56.4205 17.5923 56.272 17.5523 56.1179 17.5222C55.8447 17.4688 55.5337 17.4799 55.2819 17.6074C55.2464 17.6252 55.2125 17.6463 55.1803 17.6697C55.1679 17.6758 55.1555 17.682 55.143 17.6886C54.8207 17.8618 54.6175 18.213 54.6299 18.5749C54.644 18.979 54.8563 19.3275 55.0143 19.6888C55.1922 20.0957 55.3231 20.5193 55.5258 20.9162C55.7391 21.3348 56.0575 21.8269 56.5492 21.9522C56.819 22.0206 57.1075 21.9772 57.3479 21.8386C57.62 21.6816 57.7707 21.4272 57.8306 21.1283C57.8836 20.8628 57.8492 20.58 57.7927 20.3172Z" fill="#DB7D0D"/>
<path d="M70.3331 20.1554C70.4398 20.4415 70.6289 20.6692 70.9224 20.7822C71.1821 20.8818 71.4739 20.8807 71.7291 20.7711C72.1948 20.5712 72.4307 20.0357 72.5752 19.5893C72.7118 19.1656 72.7739 18.727 72.8851 18.2978C72.9839 17.9159 73.138 17.5396 73.0878 17.1382C73.0421 16.7792 72.7858 16.4636 72.4398 16.3428C72.4262 16.3383 72.4132 16.3339 72.3997 16.33C72.3641 16.3116 72.3274 16.296 72.289 16.2838C72.0204 16.1964 71.7116 16.2337 71.4502 16.3288C71.3023 16.3828 71.1623 16.4452 71.0455 16.5526C70.9151 16.6723 70.8248 16.8187 70.7531 16.9785C70.6289 17.254 70.5883 17.5552 70.533 17.8486C70.4912 18.0701 70.4195 18.2844 70.3698 18.5043C70.3072 18.7815 70.2552 19.0643 70.2406 19.3482C70.227 19.616 70.2383 19.901 70.3331 20.1554Z" fill="#DB7D0D"/>
<path d="M61.8226 17.0052C61.6877 16.9724 61.5618 16.9139 61.4314 16.8688L61.4359 16.8588C61.4642 16.7903 61.4907 16.7107 61.4828 16.635C61.4755 16.5649 61.4269 16.4764 61.3547 16.4636C61.3372 16.4602 61.3185 16.4619 61.2982 16.4691C61.2023 16.5025 61.1785 16.6629 61.1526 16.7447C61.1097 16.88 61.0278 16.9969 60.929 17.0987C60.6502 17.3854 60.2031 17.4277 59.8356 17.308C59.4879 17.195 59.0922 16.9707 59.1216 16.5554C59.1346 16.374 58.8484 16.3689 58.8354 16.5499C58.8184 16.7915 58.9364 17.0342 59.1075 17.2145C58.9946 17.3481 58.8472 17.4444 58.6807 17.5062C58.587 17.5413 58.6243 17.6921 58.7197 17.6571C58.9167 17.5841 59.0888 17.475 59.2226 17.3203C59.2689 17.357 59.3169 17.3893 59.366 17.416C59.4309 17.4517 59.4986 17.4839 59.5681 17.5123C59.5229 17.6632 59.4953 17.8196 59.4258 17.9616C59.3818 18.0512 59.5156 18.1325 59.5602 18.0428C59.6341 17.8909 59.6607 17.7244 59.7109 17.5652C59.913 17.6309 60.1247 17.6626 60.3301 17.6509C60.3465 17.8001 60.3674 17.9488 60.3877 18.0974C60.4018 18.1965 60.5542 18.1575 60.5401 18.059C60.5204 17.9176 60.5 17.7756 60.4854 17.6337C60.6541 17.6053 60.8156 17.5435 60.9601 17.4444C61.0798 17.5491 61.2034 17.6487 61.3473 17.7211C61.4376 17.7662 61.5201 17.6342 61.4292 17.5886C61.301 17.524 61.191 17.4383 61.0837 17.3459C61.1187 17.3142 61.1526 17.2791 61.1848 17.2412C61.2468 17.1689 61.3072 17.0909 61.358 17.008C61.4986 17.0536 61.6324 17.1188 61.7775 17.1538C61.8762 17.1778 61.9214 17.0292 61.8226 17.0052Z" fill="#333242"/>
<path d="M58.4074 15.1346C58.4886 15.0756 58.5778 15.026 58.6659 14.9793C58.6761 14.9743 58.6862 14.9687 58.6964 14.9631C58.6738 14.9748 58.7099 14.957 58.7105 14.9559C58.7336 14.9448 58.7562 14.9336 58.7799 14.9225C58.8358 14.8963 58.8917 14.8718 58.9493 14.849C59.0763 14.7978 59.2078 14.7549 59.3405 14.7199C60.0619 14.5306 60.8177 14.6636 61.4313 15.0817C61.5041 15.1312 61.5736 15.1847 61.6424 15.2398C61.7661 15.34 61.9281 15.1535 61.8039 15.0533C61.1739 14.544 60.3881 14.2974 59.5781 14.422C59.1293 14.4905 58.684 14.6575 58.3052 14.9058C58.2916 14.9147 58.2787 14.9236 58.2657 14.9325C58.137 15.0266 58.2781 15.2281 58.4074 15.1346Z" fill="#333242"/>
<path d="M65.7332 16.7C65.8614 16.6466 65.976 16.5692 66.0979 16.5046L66.0922 16.4957C66.0527 16.4322 66.0143 16.3582 66.0104 16.2819C66.0064 16.2118 66.0403 16.1166 66.1097 16.0927C66.1261 16.0871 66.1453 16.0854 66.1662 16.0893C66.2661 16.1077 66.3152 16.2625 66.3542 16.3387C66.4185 16.4656 66.5179 16.5686 66.6319 16.6544C66.9525 16.8943 67.4019 16.8665 67.7451 16.6917C68.0702 16.5263 68.4259 16.2435 68.3305 15.8377C68.2893 15.6601 68.571 15.6112 68.6122 15.7876C68.6675 16.0237 68.5896 16.2819 68.449 16.4862C68.5817 16.6009 68.7426 16.6727 68.917 16.7084C69.0152 16.7284 69.0022 16.8832 68.9023 16.8631C68.6963 16.8214 68.5089 16.7406 68.3519 16.6082C68.3124 16.6516 68.2701 16.6911 68.226 16.7251C68.1673 16.7707 68.1058 16.8125 68.042 16.8514C68.1103 16.9934 68.1623 17.1437 68.2537 17.2734C68.3113 17.3547 68.1916 17.456 68.134 17.3741C68.0369 17.2355 67.9839 17.0746 67.9094 16.9255C67.7203 17.0212 67.5159 17.0858 67.311 17.1064C67.3189 17.2561 67.3217 17.4059 67.3251 17.5562C67.3274 17.6558 67.1704 17.6408 67.1682 17.5423C67.1648 17.3992 67.1625 17.2561 67.1546 17.1136C66.9836 17.1114 66.8142 17.0758 66.6556 17.0001C66.554 17.122 66.4479 17.24 66.3175 17.3329C66.2356 17.3914 66.1329 17.2739 66.2153 17.2149C66.3316 17.1314 66.427 17.0296 66.5179 16.9221C66.4784 16.896 66.4388 16.867 66.401 16.8347C66.3282 16.7729 66.2559 16.705 66.1927 16.631C66.0612 16.6978 65.9387 16.783 65.8021 16.8397C65.7078 16.8787 65.6395 16.739 65.7332 16.7Z" fill="#333242"/>
<path d="M68.8079 14.3246C68.7187 14.2789 68.6228 14.2439 68.5279 14.211C68.5172 14.2071 68.5059 14.2038 68.4952 14.1999C68.5195 14.2077 68.4811 14.1954 68.4799 14.1954C68.4557 14.1876 68.4308 14.1804 68.4066 14.1732C68.3473 14.1559 68.2874 14.1409 68.2276 14.127C68.0938 14.0958 67.9578 14.0741 67.8206 14.0602C67.0783 13.9845 66.3529 14.2333 65.8133 14.741C65.7489 14.8011 65.6885 14.8651 65.6298 14.9297C65.5237 15.0477 65.334 14.889 65.4407 14.7705C65.9821 14.1698 66.7187 13.8052 67.5389 13.8024C67.9928 13.8008 68.4591 13.8965 68.8728 14.083C68.8875 14.0897 68.9016 14.0963 68.9157 14.1036C69.058 14.1765 68.9507 14.3975 68.8079 14.3246Z" fill="#333242"/>
<path d="M62.4999 22.508C62.7828 22.7285 63.1237 22.8921 63.4641 23.0029C64.1228 23.2172 64.8313 23.1682 65.4065 22.7652C65.6125 22.6205 65.7903 22.4373 65.9444 22.2403C66.0421 22.1156 65.8536 21.9552 65.7553 22.081C65.5041 22.4034 65.1903 22.67 64.7957 22.803C64.4937 22.9055 64.168 22.9088 63.8558 22.8515C63.5883 22.8025 63.332 22.7056 63.0904 22.5837C62.9995 22.5375 62.9103 22.4874 62.824 22.4334C62.8155 22.4284 62.807 22.4228 62.7991 22.4178C62.772 22.4006 62.8206 22.4317 62.7952 22.415C62.7816 22.4061 62.7675 22.3972 62.7545 22.3878C62.7331 22.3733 62.7122 22.3583 62.6907 22.3432C62.6806 22.336 62.6715 22.3293 62.6614 22.3215C62.5355 22.2236 62.3735 22.41 62.4999 22.508Z" fill="#333242"/>
<path d="M55.5308 19.8231C55.7425 20.5734 56.3493 21.3711 57.2282 21.1001C57.3428 21.0644 57.279 20.8919 57.165 20.9275C56.3905 21.1663 55.8875 20.402 55.7063 19.7601C55.6736 19.646 55.4986 19.7095 55.5308 19.8231Z" fill="#333242"/>
<path d="M72.1017 18.4842C72.0255 19.1455 71.6501 19.9783 70.8468 19.8625C70.7283 19.8453 70.6927 20.0256 70.8118 20.0429C71.7229 20.1748 72.1948 19.293 72.2846 18.5187C72.2987 18.4013 72.1158 18.3662 72.1017 18.4842Z" fill="#333242"/>
<path d="M62.962 9.87463C62.8785 9.86628 63.0523 10.7041 63.0743 10.757C63.3763 11.4962 63.9973 11.7373 64.7458 11.8647C65.0737 11.9204 65.4237 11.9911 65.7302 12.1403C66.0712 12.3062 66.2919 12.5923 66.5798 12.8261C67.129 13.2731 67.8567 13.4685 68.5583 13.4958C68.5583 13.4958 69.8679 13.5715 70.827 16.0019L69.5473 11.0247C69.5462 11.0247 62.975 9.8763 62.962 9.87463Z" fill="#C15724"/>
<path d="M73.038 14.8792C72.8997 14.6153 72.7383 14.3659 72.5655 14.1227C72.2957 13.7419 71.9965 13.384 71.703 13.021C71.1526 12.3413 70.6265 11.6421 70.0265 11.0031C69.3689 10.3017 68.6012 9.70604 67.7324 9.27851C66.8998 8.8688 65.9842 8.63612 65.0562 8.5849C64.818 8.57154 64.5758 8.56152 64.3376 8.57767C64.1282 8.59214 63.9187 8.59659 63.7133 8.63946C63.5897 8.66506 63.4649 8.70236 63.3531 8.76137C63.2865 8.72908 63.2081 8.71739 63.1352 8.70904C62.9766 8.68956 62.8152 8.68455 62.6554 8.68065C62.3489 8.67286 62.0441 8.68622 61.7376 8.69958C61.2363 8.72129 60.7328 8.74188 60.2377 8.82705C59.7483 8.91111 59.2928 9.07477 58.8553 9.30523C58.0515 9.72886 57.3718 10.3924 56.8734 11.1406C56.6013 11.5492 56.3846 11.9784 56.2451 12.4482C56.1723 12.6937 56.1164 12.9431 56.0402 13.1869C55.977 13.3895 55.9098 13.5816 55.8404 13.7814C55.666 14.2852 55.4599 14.8252 55.4983 15.3668C55.5192 15.6591 55.6265 15.9675 55.6981 16.2502C55.7631 16.5058 55.7873 17.4816 56.1559 17.52C56.6188 17.5673 56.6171 16.8398 56.6657 16.557C56.7599 16.0036 56.9355 15.482 57.1969 14.9833C57.5107 14.3837 57.8359 13.7597 58.4839 13.4552C58.9095 13.2548 59.3904 13.1557 59.7449 12.8306C60.1028 12.5022 60.2812 12.0363 60.5663 11.6527C60.9704 11.1105 61.6941 11.0443 62.2727 10.7765C62.6142 10.6179 62.914 10.3846 63.1132 10.0701C63.0382 10.1887 63.3842 10.6752 63.457 10.7637C63.6196 10.9613 63.8239 11.0983 64.0571 11.2035C64.5719 11.4373 65.1646 11.4462 65.6715 11.6978C66.3285 12.024 66.7417 12.6965 67.449 12.9442C68.1219 13.1797 68.9393 13.1156 69.3971 13.7553C70.022 14.6287 70.7298 15.7231 70.7671 16.8281C70.7716 16.9594 70.6542 17.5579 70.9568 17.4521C71.3513 17.314 71.6336 16.5642 71.8103 16.2441C72.285 15.3824 73.3321 16.5208 73.2655 15.55C73.2497 15.3139 73.1453 15.0857 73.038 14.8792Z" fill="#6B748B"/>
<path d="M63.8335 9.10895C64.9077 9.14346 65.2312 10.1744 66.1033 10.5663C67.3926 11.1458 69.2752 9.93505 70.3302 11.2243C71.4219 12.5492 71.0104 13.82 73.2339 13.7087C74.7004 13.623 76.1924 13.9408 77.253 14.9974C75.3716 13.3135 72.0276 14.8599 70.7885 12.6499C70.3178 11.8227 70.3488 11.2571 69.3909 10.8452C68.4171 10.426 67.3141 11.084 66.3076 10.7561C65.2763 10.4477 65.0076 9.20469 63.8335 9.10895Z" fill="#9099B9"/>
<path d="M62.0049 7.75487C60.1748 7.15979 59.5053 9.61248 57.988 10.1135C57.367 10.3016 56.5914 9.90473 56.0715 10.2443C54.9928 11.4116 56.2702 11.3871 54.2082 11.8458C53.9942 11.8937 53.4433 11.9956 53.2378 12.1999C53.064 12.3724 52.9347 12.501 52.8726 12.7577C52.8026 13.0649 52.8382 13.4362 52.6045 13.6879C52.5723 13.7213 51.7871 14.0681 51.7764 13.9384C51.7894 14.1042 52.6519 13.6216 52.7055 13.3505C52.8032 12.8963 52.736 12.4303 53.1616 12.1169C53.8181 11.6404 54.9352 11.8247 55.502 11.2708C55.8187 10.9613 55.5336 10.3567 55.988 10.1012C56.391 9.82735 56.9409 10.0489 57.3687 10.0773C59.3619 10.1536 59.8598 6.94547 62.0049 7.75487Z" fill="#9099B9"/>
<path d="M56.0942 12.9031C55.068 13.2538 54.9517 14.4105 54.0784 14.9093C53.4411 15.2622 52.3708 15.0262 51.8566 15.5768C51.3 16.173 52.0632 17.195 51.3999 17.7355C50.7259 18.3885 49.4874 17.4149 48.8055 18.1091C48.2828 18.6412 48.8405 19.675 47.8516 19.8793C48.8304 19.616 48.2202 18.56 48.7643 17.9999C49.4287 17.3169 50.6943 18.2438 51.3 17.6097C51.93 17.0909 51.1115 15.8673 51.8956 15.3413C53.1572 14.5864 53.9638 15.1765 54.8975 13.821C55.1967 13.3868 55.5777 13.0445 56.0942 12.9031Z" fill="#9099B9"/>
<path d="M63.4448 8.04192C64.5055 7.085 65.1868 8.03635 66.3068 8.2529C67.3212 8.44885 68.3942 8.00685 69.359 8.46332C69.9884 8.76114 70.2983 9.467 70.8904 9.82772C71.9471 10.4634 73.2613 10.0354 74.3727 10.4991C75.4746 10.9867 76.2158 12.0171 77.3527 12.4463C76.2384 12.0928 75.5254 11.0992 74.4647 10.6722C73.3459 10.204 72.0589 10.6004 70.9655 10.0576C70.2898 9.71638 69.9669 8.99271 69.3206 8.62308C68.4174 8.17218 67.3991 8.5368 66.4327 8.39207C65.2828 8.2195 64.5924 7.08834 63.4448 8.04192Z" fill="#9099B9"/>
<path d="M74.2725 17.5737C75.787 17.0281 75.3997 18.9269 76.3932 19.345C76.9656 19.5465 77.5538 18.9464 78.1612 19.3272C78.5603 19.5777 78.7393 20.3937 78.8809 20.8062C78.7031 20.4416 78.479 19.6439 78.0861 19.4329C77.4957 19.1156 76.8685 19.7291 76.308 19.488C75.3004 19.0739 75.7367 17.2213 74.2725 17.5737Z" fill="#9099B9"/>
<path d="M66.0859 14.117L66.1004 14.0975C66.0726 14.1032 66.0443 14.1089 66.0153 14.1153L65.9985 14.1365C66.0286 14.1296 66.0576 14.1233 66.0859 14.117Z" fill="black"/>
<path d="M57.4556 21.7664C58.5326 23.5049 60.0658 25.0374 61.9907 25.8346C59.9845 25.2122 58.37 23.5996 57.4556 21.7664Z" fill="#333242"/>
<path d="M63.6016 33.7095C63.6016 33.7095 63.6405 33.7129 63.7139 33.7157C63.7873 33.7185 63.8951 33.719 64.0323 33.7168C64.1694 33.7146 64.3354 33.7051 64.5256 33.6889C64.7159 33.6728 64.9292 33.6455 65.1612 33.6121C65.3932 33.5765 65.6433 33.5309 65.9052 33.4724C66.1672 33.4123 66.4415 33.3427 66.7226 33.2603C67.0043 33.1807 67.2905 33.0827 67.5801 32.9798C67.7234 32.9241 67.8691 32.8712 68.0125 32.8122C68.1553 32.7515 68.3015 32.6953 68.4426 32.6296C68.5854 32.5661 68.7288 32.5055 68.8682 32.437C69.0088 32.3708 69.1488 32.3045 69.2848 32.2333C69.4214 32.1637 69.5575 32.0946 69.689 32.0212C69.8205 31.9482 69.9526 31.8792 70.0773 31.8035C70.2032 31.7289 70.328 31.6577 70.4482 31.5847C70.5679 31.5113 70.6853 31.4389 70.7999 31.3687C70.9128 31.2969 71.0212 31.224 71.1267 31.1555C71.1792 31.121 71.2312 31.0871 71.282 31.0537C71.3316 31.0186 71.3807 30.9846 71.4287 30.9512C71.5247 30.8844 71.6167 30.8204 71.7042 30.7592C71.7917 30.6985 71.8724 30.6373 71.9497 30.5816C72.1038 30.4697 72.2382 30.3723 72.3449 30.2871C72.5616 30.1213 72.6858 30.0261 72.6858 30.0261C72.6858 30.0261 72.5667 30.1274 72.3584 30.3038C72.2551 30.3935 72.1247 30.4959 71.9751 30.6139C71.9001 30.6729 71.8216 30.7369 71.7364 30.8015C71.65 30.865 71.5597 30.9318 71.4654 31.0013C71.418 31.0359 71.37 31.0715 71.3209 31.1077C71.2707 31.1422 71.2193 31.1778 71.1674 31.214C71.0629 31.2858 70.9563 31.361 70.8445 31.4361C70.7316 31.5096 70.6153 31.5847 70.4968 31.6616C70.3788 31.7389 70.2523 31.8096 70.1265 31.8859C70.0011 31.9627 69.8696 32.0334 69.7375 32.108C69.606 32.1832 69.47 32.2539 69.3328 32.3251C69.1967 32.398 69.0562 32.4659 68.9151 32.5339C68.7751 32.604 68.6311 32.6669 68.4878 32.7315C68.3449 32.7966 68.1976 32.8523 68.0525 32.9124C67.9075 32.9708 67.7601 33.0232 67.6151 33.0777C67.3227 33.179 67.0331 33.2753 66.7486 33.3538C66.4652 33.4368 66.1863 33.498 65.921 33.5526C65.6557 33.6049 65.4028 33.645 65.1686 33.675C64.7001 33.734 64.3055 33.7435 64.0306 33.7391C63.7574 33.7329 63.6016 33.7095 63.6016 33.7095Z" fill="#333242"/>
<path d="M36.2229 34.1425L36.2878 34.2338L42.0867 30.1957L41.135 37.2126L36.2849 34.0496L36.2229 34.1425L36.1602 34.2355L41.3106 37.5944L42.3791 29.7198L36.0225 34.1459L36.1602 34.2355L36.2229 34.1425Z" fill="#565D70"/>
<path d="M50.3291 1.07886L50.2258 1.03377L48.9766 3.82937L51.8718 4.49292L50.333 0.794403L50.2258 1.03377L50.3291 1.07886L50.2246 1.12117L51.4964 4.1784L49.2932 3.6735L50.4324 1.12395L50.3291 1.07886L50.2246 1.12117L50.3291 1.07886Z" fill="#565D70"/>
<path d="M82.3065 28.2133V28.3247H87.2361L86.0942 30.7334L82.372 28.1226L82.3065 28.2133V28.3247V28.2133L82.241 28.3041L86.1839 31.0696L87.5906 28.102H81.9531L82.241 28.3041L82.3065 28.2133Z" fill="#8E97FD"/>
<path d="M68.0391 75.147C69.0399 75.1197 70.0295 74.9616 71.0297 74.9182C72.2806 74.8642 73.3803 75.1759 74.5657 75.5222C75.7235 75.8606 75.0156 73.9702 74.665 72.9593C74.4054 72.2105 73.6591 71.8793 72.9292 71.7257C71.61 71.4485 70.2615 71.2336 68.9829 70.7988C67.9951 70.4626 67.2731 69.5719 66.2135 69.4194C65.2449 69.2797 64.0589 69.4845 63.5514 70.4108C62.83 71.7274 54.2712 69.9332 51.6509 70.0423C46.2013 70.2689 49.0842 76.7302 49.0842 76.7302C49.2202 76.5342 66.5646 75.1492 67.7292 75.152C67.8325 75.1514 67.9358 75.1498 68.0391 75.147Z" fill="#DB7D0D"/>
<path d="M53.7942 70.1611C41.98 69.2019 36.2488 66.6908 30.609 66.874C27.7945 66.9652 25.1498 68.4087 23.3474 70.5391C20.8671 73.4699 21.9153 78.3146 25.471 79.4363C27.5478 80.0915 40.5998 77.9912 53.9979 76.2076L53.7942 70.1611Z" fill="#9099B9"/>
<path d="M47.2623 84.0669C46.2005 84.6342 47.0382 81.0699 49.9007 79.9187C51.1493 79.4166 52.4076 78.8927 53.567 78.2064C54.4629 77.6759 54.9822 76.6572 55.987 76.2914C56.9054 75.9569 58.1089 75.9151 58.7998 76.7178C59.782 77.8584 67.7785 74.3559 70.3656 73.9273C75.7446 73.0366 74.2809 79.9459 74.2809 79.9459C74.1064 79.7817 56.8473 81.9678 55.7081 82.2088C55.6059 82.2299 48.3495 83.4863 47.2623 84.0669Z" fill="#F29A31"/>
<path d="M68.292 74.4823C79.6489 71.1323 84.7287 67.505 90.2844 66.5325C93.0572 66.0471 95.9473 66.9194 98.1584 68.6356C101.2 70.9964 101.192 75.9502 97.949 77.7733C96.0546 78.8388 82.8445 79.4484 69.3623 80.4387L68.292 74.4823Z" fill="#9099B9"/>
<path d="M53.1261 30.1761L58.2426 51.7354L55.861 62.891C55.861 62.891 51.4992 61.6029 50.4092 60.5853L54.2415 51.7354L50.416 30.0442C50.416 30.0442 52.3922 29.7491 53.1261 30.1761Z" fill="#8E6ED9"/>
<path d="M62.964 33.6806C62.964 33.6806 58.8557 33.5759 54.8208 30.0261H56.792C56.792 30.0261 57.4304 32.2099 62.964 33.6806Z" fill="#DB7D0D"/>
<path d="M52.9126 61.8161C52.9126 61.8161 53.2146 61.9581 53.7588 62.168C54.0303 62.2743 54.3633 62.3951 54.7477 62.5253C54.8443 62.5576 54.9436 62.5905 55.0458 62.6244C55.1485 62.6567 55.2547 62.6901 55.363 62.7246C55.5798 62.7948 55.8101 62.8605 56.05 62.9317C56.5315 63.067 57.0542 63.2095 57.6136 63.3342C57.8919 63.4016 58.181 63.4578 58.4756 63.5201C58.6229 63.5513 58.7731 63.5758 58.9238 63.6053C59.0751 63.6326 59.2264 63.6649 59.3811 63.6883C59.6898 63.7378 60.0026 63.7929 60.3221 63.833C60.4812 63.8541 60.6421 63.8759 60.803 63.8976C60.9644 63.9154 61.127 63.9332 61.2901 63.951C61.372 63.9599 61.4533 63.9688 61.5351 63.9777C61.617 63.9861 61.6994 63.9916 61.7818 63.9989C61.9466 64.0122 62.1115 64.0256 62.2774 64.039C62.4428 64.054 62.6094 64.0579 62.7753 64.0679C62.9418 64.0757 63.1078 64.0863 63.2743 64.0924C63.4408 64.0963 63.6074 64.1008 63.7739 64.1047C63.9404 64.1086 64.1069 64.1152 64.2729 64.1119C64.4389 64.1108 64.6048 64.1097 64.7696 64.1085C64.8521 64.1074 64.935 64.108 65.0169 64.1063C65.0993 64.103 65.1812 64.0996 65.263 64.0963C65.591 64.0824 65.9167 64.0746 66.2367 64.0456C66.3971 64.034 66.5568 64.0217 66.7149 64.01L66.8334 64.0011L66.9508 63.9883C67.0293 63.9794 67.1072 63.9711 67.1845 63.9621C67.495 63.9276 67.8009 63.897 68.0984 63.8497C68.2474 63.828 68.3948 63.8068 68.5398 63.7857C68.6127 63.7751 68.6849 63.7645 68.7566 63.7534C68.8277 63.74 68.8989 63.7272 68.9694 63.7139C69.2511 63.6604 69.526 63.6142 69.7896 63.5591C70.0527 63.4995 70.3067 63.4422 70.5506 63.3871C70.6115 63.3726 70.6719 63.3604 70.7312 63.3453C70.7905 63.3292 70.8486 63.3136 70.9062 63.298C71.0219 63.2668 71.1348 63.2368 71.2449 63.2073C71.3549 63.1778 71.4622 63.1494 71.5666 63.1215C71.6186 63.1076 71.6705 63.0943 71.7207 63.0798C71.771 63.0642 71.8201 63.0492 71.8686 63.0336C72.0628 62.9729 72.244 62.9167 72.4122 62.8644C72.5799 62.812 72.7351 62.7658 72.8712 62.7141C73.421 62.5181 73.7348 62.4057 73.7348 62.4057C73.7348 62.4057 73.4232 62.5253 72.8785 62.7341C72.743 62.7887 72.5889 62.8376 72.4218 62.8933C72.2547 62.949 72.0741 63.0091 71.881 63.0731C71.8325 63.0893 71.784 63.1054 71.7337 63.1221C71.6835 63.1377 71.6321 63.1516 71.5802 63.1666C71.4763 63.1967 71.3691 63.2268 71.2595 63.2585C71.1495 63.2897 71.0371 63.3214 70.9214 63.3542C70.8638 63.3704 70.8051 63.3871 70.7464 63.4038C70.6872 63.4199 70.6268 63.4327 70.5658 63.4478C70.3219 63.5057 70.0679 63.5663 69.8049 63.6292C69.5407 63.6871 69.2658 63.7367 68.9841 63.7935C68.9135 63.8074 68.8424 63.8213 68.7713 63.8352C68.6996 63.8469 68.6268 63.858 68.554 63.8697C68.4083 63.8926 68.2604 63.9159 68.1114 63.9393C67.8139 63.9916 67.5068 64.0206 67.1952 64.0579C67.1173 64.0668 67.0389 64.0757 66.9604 64.0846L66.8424 64.098L66.7233 64.1074C66.5647 64.1197 66.4044 64.1325 66.2435 64.1453C65.9218 64.1754 65.5949 64.1848 65.2658 64.1998C65.1834 64.2037 65.101 64.2071 65.0186 64.211C64.9362 64.2132 64.8532 64.2132 64.7702 64.2143C64.6043 64.216 64.4377 64.2177 64.2712 64.2199C64.1047 64.2238 63.9376 64.2177 63.7705 64.2149C63.6034 64.2115 63.4358 64.2076 63.2687 64.2043C63.1016 64.1976 62.9345 64.1865 62.7674 64.1776C62.6003 64.167 62.4332 64.162 62.2673 64.1464C62.1013 64.1325 61.9354 64.118 61.77 64.1041C61.6875 64.0969 61.6046 64.0907 61.5227 64.0824C61.4403 64.0729 61.3585 64.064 61.2766 64.0546C61.1129 64.0362 60.9498 64.0178 60.7878 63.9994C60.6263 63.9772 60.4654 63.9549 60.3057 63.9326C59.9856 63.8914 59.6718 63.8347 59.3624 63.784C59.2072 63.7601 59.0553 63.7267 58.9041 63.6988C58.7528 63.6693 58.6026 63.6426 58.4553 63.6098C58.1606 63.5441 57.8716 63.4845 57.5933 63.4138C57.0339 63.2819 56.5118 63.1332 56.0308 62.9924C55.551 62.8471 55.1152 62.7035 54.7325 62.5649C54.3498 62.4274 54.019 62.2999 53.7492 62.1885C53.4788 62.0789 53.2699 61.9842 53.1277 61.9197C52.9871 61.854 52.9126 61.8161 52.9126 61.8161Z" fill="#333242"/>
<path d="M65.6836 75.426C65.6836 75.426 65.9687 75.3286 66.4677 75.1582C66.9661 74.9862 67.6779 74.7402 68.5326 74.4452C68.9593 74.296 69.4211 74.134 69.9099 73.9631C70.3976 73.79 70.9124 73.6079 71.4447 73.4192C71.9776 73.2316 72.5263 73.0329 73.084 72.8319C73.6423 72.6315 74.2062 72.4206 74.7718 72.2135C75.3363 72.0036 75.9008 71.7943 76.4568 71.5878C77.0106 71.3757 77.5564 71.1708 78.0825 70.966C78.6081 70.7606 79.1167 70.5618 79.5988 70.3731C80.0791 70.1805 80.533 69.9979 80.9518 69.8292C81.369 69.6561 81.7511 69.4975 82.0904 69.3566C82.1751 69.3216 82.2575 69.2876 82.3365 69.2553C82.415 69.2214 82.4912 69.1885 82.564 69.1568C82.7096 69.0939 82.8434 69.0354 82.9642 68.9831C83.4486 68.7749 83.7246 68.6558 83.7246 68.6558C83.7246 68.6558 83.4514 68.7822 82.9733 69.0026C82.8536 69.0577 82.7209 69.1184 82.5764 69.1846C82.5042 69.2175 82.4291 69.252 82.3512 69.2876C82.2727 69.3221 82.1914 69.3578 82.1073 69.3945C81.7709 69.5409 81.391 69.7062 80.9767 69.8866C80.5595 70.0603 80.1079 70.2484 79.6298 70.4477C79.1511 70.6453 78.6436 70.8468 78.1187 71.055C77.5931 71.2621 77.0473 71.4698 76.4946 71.6841C75.9392 71.8928 75.3753 72.1049 74.8113 72.317C74.2446 72.5219 73.679 72.7306 73.1201 72.9288C72.5613 73.1275 72.0115 73.3246 71.4781 73.5099C71.211 73.6029 70.9486 73.6942 70.6923 73.7833C70.4349 73.8707 70.1831 73.9564 69.9376 74.0393C69.4465 74.2041 68.9825 74.36 68.554 74.5042C67.696 74.7897 66.978 75.018 66.4756 75.1783C66.2238 75.2573 66.0262 75.3191 65.8913 75.3614C65.7553 75.4037 65.6836 75.426 65.6836 75.426Z" fill="#333242"/>
<path d="M22.9038 77.466C22.9038 77.466 22.9416 77.5495 23.0359 77.692C23.1302 77.8345 23.282 78.036 23.5112 78.2592C23.7392 78.4824 24.048 78.7251 24.4409 78.9361C24.6379 79.0402 24.853 79.1421 25.0901 79.2239C25.326 79.3068 25.5789 79.3831 25.8487 79.4354C25.9825 79.4666 26.1225 79.4833 26.2636 79.5072C26.3348 79.515 26.4064 79.5234 26.4787 79.5312C26.5148 79.5351 26.5515 79.539 26.5877 79.5429C26.6243 79.5451 26.661 79.5473 26.6983 79.5501C26.7722 79.5546 26.8467 79.559 26.9224 79.564C26.998 79.5651 27.0737 79.5662 27.1504 79.5679C27.3034 79.5735 27.4592 79.5635 27.6167 79.5601C27.6957 79.5585 27.7748 79.5495 27.8544 79.5445C27.934 79.5379 28.0141 79.5345 28.0948 79.5256C28.175 79.5161 28.2563 79.5072 28.3376 79.4978C28.4188 79.4889 28.5007 79.4789 28.5825 79.4649C28.6644 79.4521 28.7468 79.4393 28.8292 79.4265L28.8913 79.4171L28.9246 79.4126L28.9562 79.4087C28.998 79.4031 29.0403 79.3981 29.0821 79.3926C29.2503 79.3709 29.4208 79.3491 29.5918 79.3274C30.9636 79.1521 32.4261 78.9656 33.8893 78.7786C35.353 78.5965 36.8167 78.4151 38.1884 78.2447C39.5613 78.0783 40.8421 77.9224 41.9406 77.7894C43.0391 77.6597 43.9547 77.5517 44.5953 77.476C45.2366 77.4019 45.603 77.3602 45.603 77.3602C45.603 77.3602 45.2377 77.4103 44.5982 77.4977C43.9586 77.5834 43.0447 77.7053 41.9485 77.8517C40.8517 77.9948 39.572 78.1618 38.2008 78.3405C36.8291 78.5153 35.3665 78.7023 33.9034 78.8888C32.4397 79.0703 30.976 79.2523 29.6037 79.4226C29.4321 79.4438 29.2622 79.4649 29.0934 79.4861C29.0511 79.4911 29.0093 79.4967 28.9675 79.5017L28.9359 79.5056L28.9066 79.5095L28.8439 79.5184C28.7604 79.5306 28.6774 79.5429 28.5944 79.5546C28.512 79.5679 28.4296 79.5768 28.3472 79.5852C28.2647 79.5935 28.1835 79.6024 28.1022 79.6108C28.0209 79.6191 27.9396 79.6219 27.8594 79.6275C27.7787 79.6319 27.6991 79.6397 27.6195 79.6403C27.4603 79.642 27.3034 79.6503 27.1488 79.6431C27.0714 79.6408 26.9946 79.6392 26.9184 79.6369C26.8422 79.6314 26.7672 79.6258 26.6921 79.6208C26.6548 79.618 26.6176 79.6152 26.5803 79.6124C26.5436 79.608 26.5069 79.6035 26.4702 79.5991C26.3974 79.5902 26.3246 79.5813 26.2529 79.5729C26.1107 79.5473 25.9695 79.529 25.8346 79.4961C25.2905 79.3814 24.8112 79.1922 24.4195 78.9723C24.026 78.7524 23.7201 78.503 23.4943 78.2748C23.2668 78.0471 23.1206 77.84 23.0291 77.6959C22.9394 77.55 22.9038 77.466 22.9038 77.466Z" fill="#333242"/>
<path d="M84.8594 63.6376C84.8594 63.6376 85.2562 63.7484 85.9505 63.9421C86.2988 64.0351 86.7216 64.1481 87.2065 64.2772C87.692 64.4069 88.2412 64.5455 88.8356 64.7159C89.4317 64.8812 90.0741 65.0677 90.7549 65.2636C91.4351 65.4607 92.1525 65.6717 92.8852 65.9194C93.6185 66.166 94.3693 66.4438 95.1133 66.7722C95.8567 67.1007 96.5945 67.4809 97.2848 67.9373C97.9718 68.3966 98.612 68.936 99.1307 69.565C99.26 69.7215 99.3842 69.8846 99.4959 70.0504C99.6094 70.2186 99.7133 70.39 99.8075 70.5654C99.9972 70.9161 100.149 71.2801 100.264 71.6492C100.495 72.3862 100.571 73.1444 100.49 73.8481C100.449 74.201 100.371 74.5344 100.281 74.8534C100.187 75.1713 100.078 75.4741 99.9481 75.7535C99.8188 76.0335 99.6709 76.293 99.4926 76.5145C99.3153 76.7322 99.1307 76.9281 98.9461 77.0973C98.5758 77.4386 98.1954 77.6696 97.8668 77.8182C97.7855 77.8572 97.7048 77.8861 97.6309 77.9179C97.5547 77.944 97.4835 77.9696 97.4169 77.9914C97.3498 78.0108 97.2871 78.0292 97.2301 78.0454C97.1725 78.0593 97.12 78.0721 97.0726 78.0832C96.9789 78.1071 96.9049 78.1166 96.8564 78.1272C96.8073 78.1366 96.7819 78.1411 96.7819 78.1411C96.7819 78.1411 96.8073 78.1355 96.8558 78.125C96.9044 78.1127 96.9778 78.1016 97.0703 78.0749C97.2572 78.0275 97.5298 77.9457 97.8527 77.7898C98.175 77.6345 98.5453 77.3979 98.9027 77.0534C99.0816 76.8814 99.2577 76.6854 99.4288 76.4661C99.5134 76.3581 99.5885 76.2373 99.6619 76.1131C99.7319 75.9862 99.8008 75.8548 99.8612 75.7157C99.9853 75.4396 100.088 75.1395 100.176 74.825C100.26 74.5105 100.333 74.1776 100.368 73.8353C100.437 73.1483 100.35 72.4113 100.124 71.6921C99.8956 70.9723 99.5225 70.2731 99.0082 69.6636C98.4985 69.0512 97.868 68.5252 97.1894 68.0754C96.5115 67.6228 95.7839 67.2426 95.0478 66.9136C94.3111 66.5841 93.5654 66.3046 92.8367 66.0558C92.1068 65.8081 91.3956 65.5848 90.7182 65.3794C90.0408 65.1746 89.4001 64.9786 88.808 64.8055C88.6601 64.7615 88.515 64.7192 88.3733 64.6769C88.2311 64.6363 88.0922 64.5962 87.9573 64.5578C87.6869 64.4798 87.43 64.4058 87.189 64.3362C86.7069 64.1959 86.2864 64.0735 85.9404 63.9722C85.2528 63.7595 84.8594 63.6376 84.8594 63.6376Z" fill="#333242"/>
<path d="M60.0972 43.0953C60.1977 43.5401 60.5223 43.9815 60.9851 44.1029C61.7359 44.3005 62.4624 44.001 63.1545 43.7433C63.6467 43.5596 64.2129 43.4371 64.6029 43.0808C64.901 43.382 65.0777 43.8134 65.1798 44.2209C65.2628 44.5532 65.3243 44.9167 65.326 45.2746C65.181 44.9089 64.9653 44.5655 64.6289 44.3484C64.4189 44.2125 64.1372 44.1107 63.8826 44.1351C63.6501 44.1574 63.4316 44.3044 63.3932 44.546C63.3294 44.9479 63.5169 45.3888 63.7398 45.7194C63.886 45.9354 64.0819 46.1241 64.284 46.2889C64.4895 46.4559 64.7079 46.6118 64.9512 46.7186C64.5397 47.4907 63.8341 48.1276 63.0387 48.471C62.9044 48.5289 62.8745 48.7204 62.9422 48.834C63.0229 48.9698 63.1759 48.9871 63.3103 48.9292C63.4124 48.8852 63.5129 48.8379 63.61 48.7844C63.9588 48.5929 64.2919 48.348 64.5894 48.0624C64.595 48.0686 64.6007 48.0741 64.6069 48.0791C65.1917 48.5651 66.022 48.6202 66.753 48.525C67.1758 48.4699 67.7144 48.3758 67.9701 47.9984C68.1072 47.7964 68.0971 47.5408 67.991 47.3282C67.8713 47.0872 67.6122 46.9441 67.352 46.8962C66.8992 46.8127 66.4059 46.8567 65.9509 46.9129C65.7714 46.9352 65.5908 46.9597 65.4135 46.9964C65.6495 46.5672 65.8036 46.1002 65.842 45.6181C65.8871 45.0542 65.816 44.453 65.65 43.9119C65.4993 43.4204 65.2594 42.9561 64.8744 42.6138C65.1781 42.3833 65.483 42.1512 65.7432 41.8751C66.1169 41.4787 66.4702 40.9538 66.5583 40.4094C66.613 40.0726 66.608 39.6401 66.3376 39.3845C66.1231 39.1814 65.8239 39.1296 65.536 39.1563C65.2701 39.1808 65.0037 39.227 64.7734 39.369C64.5713 39.4931 64.402 39.6634 64.2795 39.8649C64.0367 40.2646 63.9509 40.7417 63.9255 41.2026C63.7319 40.7935 63.5163 40.3971 63.229 40.037C62.8903 39.6128 62.2643 38.9631 61.649 39.183C61.1443 39.3634 60.9406 40.028 61.0089 40.5085C61.0693 40.9321 61.3662 41.2973 61.6896 41.5645C61.8432 41.6919 62.0046 41.806 62.1711 41.9107C61.929 41.8617 61.6823 41.8239 61.4362 41.8144C61.1867 41.8049 60.905 41.8111 60.6707 41.9079C60.4184 42.0126 60.2361 42.1729 60.1316 42.4251C60.047 42.6327 60.0481 42.8765 60.0972 43.0953ZM64.9885 47.7028L64.9868 47.7017C65.0133 47.6856 65.0398 47.6705 65.0681 47.6572C65.0844 47.6494 65.1002 47.6416 65.1166 47.6344C65.0946 47.6433 65.0991 47.641 65.1296 47.6294C65.2747 47.5748 65.4248 47.5353 65.5767 47.5047C66.0079 47.4178 66.4674 47.3766 66.9263 47.3844C67.0646 47.3867 67.1527 47.39 67.2673 47.4195C67.4406 47.464 67.6353 47.6333 67.4355 47.7936C67.2797 47.9188 66.9738 47.9589 66.7841 47.9912C66.6926 48.0068 66.5978 48.0196 66.5007 48.029C65.978 48.0808 65.3949 48.0341 64.9885 47.7028ZM64.9236 45.7562C64.9331 45.7901 64.9896 46.1425 65.0127 46.1531C64.6825 46.005 64.3845 45.7261 64.175 45.4389C64.0915 45.3242 63.6727 44.576 64.0802 44.6829C64.1982 44.7141 64.2529 44.7352 64.3574 44.8065C64.5103 44.9106 64.6362 45.0765 64.7356 45.2685C64.8163 45.4233 64.8756 45.5886 64.9236 45.7562ZM64.4629 41.2611C64.4866 40.7907 64.5566 40.2574 64.9219 39.9173C65.1234 39.7297 65.8945 39.4402 66.0147 39.8555C66.0576 40.0036 66.0666 40.1583 66.0333 40.3097C65.9594 40.6437 65.794 40.9582 65.5896 41.2332C65.2938 41.6324 64.8914 41.9369 64.4945 42.238C64.4624 41.9135 64.4466 41.5867 64.4629 41.2611ZM63.7664 42.1395C63.7212 42.0365 63.2572 41.9007 63.1353 41.8417C62.9428 41.7482 62.7509 41.6541 62.5657 41.5478C62.1982 41.3368 61.8178 41.0707 61.627 40.6832C61.5129 40.4528 61.4887 40.0993 61.6213 39.87C61.8561 39.4653 62.3687 39.8922 62.5719 40.0976C62.7672 40.2947 62.9354 40.5107 63.0816 40.7462C63.356 41.1876 63.5586 41.6647 63.7664 42.1395ZM60.6329 42.6149C60.826 42.2024 61.5186 42.3299 61.8691 42.3911C62.2321 42.454 62.5894 42.5464 62.9512 42.6154C63.3069 42.6828 63.6631 42.7513 64.0091 42.8576C63.9103 42.9121 63.8047 42.9561 63.7031 42.9934C63.2103 43.1743 62.713 43.3686 62.2112 43.5234C61.7884 43.6542 61.2488 43.7666 60.8762 43.4538C60.7339 43.3341 60.6165 43.0975 60.5962 42.8804C60.5872 42.7841 60.5973 42.6917 60.6329 42.6149Z" fill="#FDC6D4"/>
<path d="M64.9242 88.4437C63.0591 87.6332 60.9197 87.563 58.9129 87.494C56.5703 87.4133 54.2141 87.5753 51.8777 87.3476C50.7075 87.2335 49.543 87.0681 48.3881 86.8521C48.0223 86.7837 46.926 88.1531 46.9531 88.6775C46.991 89.3878 56.2361 90.3191 56.8853 90.8579C57.592 91.4447 59.0038 91.0995 59.8308 91.0427C60.6657 90.986 61.5005 90.9264 62.3371 90.888C63.0309 90.8563 63.7833 90.7744 64.4686 90.9409C65.1263 90.0101 65.0664 89.0449 64.9242 88.4437Z" fill="#F59D0E"/>
<path d="M65.6096 88.7827C65.3861 88.6569 65.1569 88.5445 64.9238 88.4432C65.066 89.0449 65.1259 90.0097 64.4683 90.9404C64.5208 90.9532 64.5727 90.9671 64.6241 90.9822C65.2235 91.1659 65.8834 91.6012 66.2943 90.868C66.7025 90.1399 66.3186 89.1819 65.6096 88.7827Z" fill="#FBD89F"/>
<path d="M22.5148 97.6777C22.5791 98.83 22.7846 99.9361 23.3621 101.061C25.1639 104.568 28.6666 107.055 32.5807 107.736C36.0297 108.336 39.5205 107.977 42.5541 106.166C43.8733 105.38 49.0474 101.295 50.4456 100.635C53.3154 99.2809 58.6103 94.9132 54.5048 91.7953C53.6451 91.1429 53.8681 89.4529 53.1738 88.6234C52.0978 87.3381 49.8478 86.9863 48.2898 86.6595C43.4222 85.6402 38.4017 84.8336 33.4224 85.451C31.9852 85.6291 30.5689 85.9403 29.2028 86.4212C27.7069 86.9479 26.1552 87.7812 24.9511 88.8144C22.3172 91.0772 22.337 94.5141 22.5148 97.6777Z" fill="#F59D0E"/>
<path d="M53.0985 88.8583C54.5735 89.5753 56.1885 90.3496 57.2232 91.6567C59.3609 94.3577 57.1599 97.937 54.7394 99.5341C53.9999 100.022 53.1645 100.451 52.3358 100.771C51.1002 101.248 49.9074 101.642 48.7451 102.277C47.2509 103.094 45.8245 104.029 44.433 105.005C44.433 105.005 46.5713 97.0041 38.4585 93.0094C38.4585 93.0094 43.7009 90.4337 40.9174 85.8551C40.9174 85.8551 51.4242 88.0445 53.0985 88.8583Z" fill="#F59D0E"/>
<path d="M48.2456 102.556C51.125 101.228 52.6237 101.544 53.1363 101.582C55.3366 101.748 57.7148 101.85 59.7125 100.749C60.8014 100.149 61.6662 99.0079 61.962 97.8027C62.522 95.522 61.3004 93.3877 59.5279 91.9988C58.561 91.2406 57.4568 90.6166 56.3595 90.0616C55.1136 89.4309 52.0976 88.2446 49.7115 87.3523C49.5631 87.2966 51.7138 88.4673 51.6014 88.5775C51.3756 88.7996 51.3514 89.2138 51.6014 89.432C53.2136 90.8404 51.4084 93.174 50.5899 94.4827C49.7646 95.8026 49.0358 97.2221 48.4736 98.6705C48.2506 99.2439 48.0723 99.8679 48.0915 100.488C48.1202 101.404 47.1956 103.04 48.2456 102.556Z" fill="#F59D0E"/>
<path d="M60.0198 101.167C60.1282 101.195 60.2388 101.219 60.3489 101.239C60.564 101.281 60.7948 101.324 61.0054 101.24C61.2199 101.155 61.1239 100.869 61.0827 100.712C61.0155 100.457 60.9512 100.201 60.8592 99.953C60.8112 99.8238 60.757 99.6969 60.6977 99.5722C60.6537 99.4809 60.6108 99.3601 60.5143 99.3117C60.4353 99.2722 60.3523 99.3139 60.2823 99.3512C60.096 99.4497 59.9267 99.575 59.7788 99.7242C59.7223 99.7815 59.6636 99.8378 59.6094 99.8973C59.4604 100.06 59.0224 100.5 59.0314 100.574C59.0624 100.821 59.3831 100.944 59.5823 101.025C59.7246 101.082 59.8708 101.129 60.0198 101.167Z" fill="#F59D0E"/>
<path d="M62.0329 93.6017C62.1413 93.6301 62.2497 93.6624 62.3558 93.6974C62.5635 93.7659 62.786 93.8399 62.9276 94.0147C63.0721 94.1929 62.8463 94.3955 62.7323 94.5124C62.5466 94.7022 62.3637 94.8937 62.1599 95.0657C62.0538 95.1554 61.9437 95.24 61.8297 95.319C61.7467 95.3775 61.6485 95.4615 61.5401 95.4571C61.4521 95.4532 61.4002 95.3769 61.3578 95.3101C61.2444 95.1342 61.1597 94.9433 61.1049 94.7417C61.084 94.6649 61.0609 94.5864 61.0434 94.5091C60.9943 94.2947 60.8317 93.7002 60.8763 93.6401C61.0265 93.4397 61.3669 93.4876 61.5814 93.5132C61.7338 93.5321 61.8839 93.5633 62.0329 93.6017Z" fill="#F59D0E"/>
<path d="M56.4178 96.4437C56.4731 96.4014 56.485 96.3129 56.5002 96.2511C56.5347 96.1136 56.6154 95.9444 56.4556 95.8514C56.3721 95.803 56.2682 95.8141 56.1807 95.8419C56.0977 95.8681 55.9736 96.0418 55.7624 95.8703C55.7246 95.8397 55.7788 95.9889 55.7743 96.0262C55.7658 96.0423 55.6851 96.0919 55.7083 96.0902C55.9803 96.0718 56.0238 96.3847 56.1779 96.4504C56.2626 96.4865 56.341 96.5027 56.4178 96.4437ZM56.2389 96.2945L56.2298 96.2895L56.2428 96.2906V96.2962L56.2389 96.2945Z" fill="black"/>
<path d="M55.4903 96.7497C55.4079 96.5765 55.3921 96.4056 55.4909 96.2492C55.5654 96.1301 55.7071 96.0711 55.8764 96.0538L55.8849 96.0521C55.9843 96.0722 56.0842 96.0889 56.183 96.1089C56.2518 96.1228 56.2693 96.0416 56.2005 96.0277C56.1022 96.0076 56.0034 95.9909 55.9052 95.9714C55.5852 95.8345 55.671 95.4576 55.763 95.2617C55.7861 95.2132 55.6879 95.1698 55.6648 95.2188C55.5643 95.4331 55.492 95.7961 55.7562 95.9859C55.6027 96.0176 55.4802 96.0822 55.4 96.1958C55.2781 96.3689 55.2973 96.576 55.3898 96.7714C55.4147 96.8237 55.5152 96.802 55.4903 96.7497Z" fill="black"/>
<path d="M29.7293 105.337C30.2786 103.885 28.9899 102.971 27.831 102.403C25.9061 101.46 22.8917 95.3792 22.5039 97.4667C22.3137 98.4915 21.1576 98.4932 20.3402 98.3791C19.2423 98.2254 18.1489 97.8931 17.2102 97.3014C16.4611 96.8288 15.9954 96.2175 15.6189 95.4343C15.4778 95.1409 15.2356 94.6321 14.876 94.5531C14.692 94.5125 14.4526 94.6305 14.32 94.7529C14.0948 94.9617 13.9305 95.0112 13.6291 95.0168C13.3062 95.0229 13.1476 95.2244 12.9528 95.4555C12.7761 95.6648 12.434 95.5334 12.2557 95.7488C12.092 95.9475 12.1315 96.2782 12.1162 96.5142C11.9847 98.521 13.9164 100.095 15.4857 100.973C16.6287 101.613 17.7425 102.304 18.9155 102.889C19.7091 103.286 20.5068 103.673 21.3117 104.046C24.1065 105.341 26.9876 106.455 29.9783 107.226C31.8247 107.703 33.74 108.027 35.6553 108.005C36.1752 107.998 29.4968 105.951 29.7293 105.337Z" fill="#F59D0E"/>
<path d="M35.1947 94.3132C35.7439 92.8614 34.4552 91.9473 33.2963 91.3795C31.372 90.4359 35.6943 85.2405 34.8718 85.3106C29.7417 85.7487 24.1426 87.5039 22.6755 86.2776C21.9975 85.7103 21.4607 85.1937 21.0836 84.4099C20.9425 84.1166 20.7009 83.6078 20.3413 83.5287C20.1573 83.4886 19.918 83.6067 19.7859 83.7286C19.5601 83.9373 19.3964 83.9869 19.095 83.9924C18.7721 83.9986 18.6134 84.2001 18.4187 84.4305C18.242 84.6404 17.8999 84.5085 17.7216 84.7245C17.5579 84.9226 17.5974 85.2539 17.5816 85.4899C17.45 87.4967 19.3823 89.071 20.951 89.9488C22.0935 90.5885 23.2078 91.2793 24.3808 91.8649C25.1745 92.2613 25.9721 92.6487 26.7771 93.0217C29.5718 94.317 32.453 95.431 35.4436 96.2025C37.2906 96.679 39.2054 97.003 41.1207 96.9807C41.6406 96.9746 34.9621 94.9277 35.1947 94.3132Z" fill="#F59D0E"/>
<path d="M56.0599 98.7138C55.9887 98.3342 55.9786 97.9384 55.8307 97.576C55.82 97.5504 55.7963 97.5326 55.7669 97.541C55.7421 97.5476 55.7206 97.5777 55.7313 97.6039C55.8792 97.9657 55.8888 98.362 55.9605 98.7417C55.9718 98.8062 56.0717 98.7784 56.0599 98.7138Z" fill="black"/>
<path d="M55.5898 98.8029C55.6129 98.4071 55.5836 98.0074 55.6468 97.6145C55.6513 97.5872 55.6394 97.5599 55.6101 97.5521C55.5847 97.5454 55.5508 97.561 55.5469 97.5883C55.4825 97.9902 55.5102 98.3982 55.4865 98.8035C55.482 98.8697 55.5858 98.8686 55.5898 98.8029Z" fill="black"/>
<path d="M54.905 98.6302C55.0478 98.2499 55.2296 97.8798 55.4542 97.5396C55.4904 97.4845 55.4012 97.4339 55.3645 97.4884C55.1347 97.8369 54.9507 98.2154 54.8051 98.6046C54.7955 98.6307 54.8169 98.6602 54.8423 98.6669C54.8711 98.6741 54.8954 98.6563 54.905 98.6302Z" fill="black"/>
<path d="M57.3652 93.8051C57.114 94.1013 56.9085 94.442 56.5992 94.6858C56.5772 94.7031 56.5478 94.7069 56.5258 94.6858C56.5077 94.6674 56.5038 94.6312 56.5258 94.6134C56.8352 94.3696 57.0406 94.0294 57.2918 93.7327C57.3347 93.6821 57.4076 93.755 57.3652 93.8051Z" fill="black"/>
<path d="M57.0001 93.5004C56.8234 93.8561 56.5988 94.1906 56.4588 94.563C56.4486 94.5892 56.4249 94.607 56.3956 94.5992C56.3701 94.5925 56.3487 94.563 56.3583 94.5369C56.5022 94.155 56.7297 93.8132 56.9104 93.4486C56.9403 93.3896 57.0295 93.4408 57.0001 93.5004Z" fill="black"/>
<path d="M56.318 93.3196C56.2531 93.7203 56.2271 94.13 56.2531 94.5359C56.2576 94.6015 56.1537 94.6026 56.1498 94.537C56.1227 94.1228 56.1515 93.7036 56.2181 93.294C56.2226 93.2667 56.2559 93.2511 56.2813 93.2578C56.3101 93.2644 56.3225 93.2923 56.318 93.3196Z" fill="black"/>
<path d="M11.5979 91.9523C12.2161 89.179 12.2104 85.7811 9.48507 84.1962C7.16898 82.8502 4.3838 84.1294 3.0042 86.1001C2.26754 87.151 1.75217 88.3651 1.36719 89.631C3.06065 88.8673 7.10858 87.7884 11.5979 91.9523Z" fill="#FBD89F"/>
<path d="M30.2387 101.795C30.0733 101.6 29.8892 101.454 29.6905 101.351C27.7555 100.353 24.4256 103.46 22.9652 104.144C18.8812 106.055 12.4968 107.062 9.99786 102.268C8.31343 99.0368 10.4449 96.0631 11.3357 92.978C11.4305 92.6496 11.5191 92.3061 11.5976 91.9526C7.10825 87.7887 3.06031 88.8675 1.36629 89.6318C0.93615 91.0475 0.670841 92.5271 0.445611 93.9171C0.0120851 96.5952 -0.000898078 99.3585 1.05131 101.908C4.5229 110.315 16.0898 112.5 23.6855 108.686C25.2683 107.891 32.29 104.221 30.2387 101.795Z" fill="#F59D0E"/>
<path d="M59.8557 104.066C59.1721 103.912 58.5404 103.511 57.9381 103.18C57.2065 102.778 56.4857 102.358 55.7643 101.94C55.0496 101.526 52.5038 99.6954 51.6052 99.9097C50.781 100.107 42.2228 97.9686 41.8678 98.5882C41.6059 99.0452 40.7964 107.107 41.1379 106.96C50.4688 102.935 53.1699 104.838 54.0048 105.082C54.9616 105.361 55.924 105.626 56.869 105.943C57.4115 106.126 57.9669 106.294 58.5291 106.399C59.5175 105.63 59.7941 104.697 59.8557 104.066Z" fill="#F59D0E"/>
<path d="M53.5308 91.8595C51.9581 90.3448 49.7126 89.9195 47.6183 89.615C44.9133 89.2209 42.1547 89.0545 39.4271 89.3116C36.7458 89.5644 33.6326 90.2146 31.4814 91.9096C29.2691 93.6525 27.8195 96.9937 29.5773 99.5471C30.555 100.968 32.3326 101.038 33.8968 100.86C37.7206 100.424 41.3051 98.7767 45.1662 98.5713C47.1735 98.4649 49.1176 99.0995 51.1131 99.011C51.7589 98.9815 51.7165 97.94 51.7092 97.5108C51.6934 96.6385 51.5285 95.7584 51.7899 94.9045C51.9711 94.3128 52.3239 93.7917 52.7348 93.3308C53.0013 93.0341 54.0123 92.3238 53.5308 91.8595Z" fill="#FBD89F"/>
<path d="M58.604 95.2421C58.6017 95.2393 58.5504 95.1759 58.5047 95.0779C58.4595 94.9793 58.4177 94.8446 58.4454 94.6993C58.4595 94.627 58.4922 94.5529 58.5481 94.4839C58.6046 94.4154 58.6836 94.352 58.7903 94.298L58.8529 94.4165C58.7598 94.4644 58.6966 94.5162 58.6537 94.568C58.6113 94.6197 58.5888 94.6721 58.5786 94.7244C58.5577 94.829 58.5888 94.9382 58.6277 95.0222C58.6469 95.064 58.6678 95.099 58.6842 95.123C58.6921 95.1347 58.6988 95.1441 58.7033 95.1502L58.7084 95.1569L58.7095 95.1586L58.6921 95.1725L58.7095 95.1586L58.6921 95.1725L58.7095 95.1586L58.604 95.2421Z" fill="black"/>
<path d="M58.2175 98.7796C58.2153 98.7768 58.1639 98.7133 58.1182 98.6154C58.073 98.5174 58.0312 98.3821 58.0595 98.2368C58.0736 98.1645 58.1058 98.0904 58.1622 98.0214C58.2187 97.9529 58.2977 97.8895 58.4044 97.8349L58.4671 97.9535C58.3739 98.0014 58.3107 98.0531 58.2678 98.1049C58.2254 98.1567 58.2029 98.209 58.1927 98.2613C58.1718 98.3654 58.2023 98.4751 58.2418 98.5586C58.261 98.6004 58.2819 98.6354 58.2983 98.6594C58.3062 98.6716 58.3129 98.6805 58.3175 98.6866L58.3225 98.6933L58.3237 98.695V98.6955L58.3062 98.7095L58.3237 98.6955L58.3062 98.7095L58.3237 98.6955L58.2175 98.7796Z" fill="black"/>
<path d="M68.7262 102.44C68.9757 102.568 69.206 102.731 69.4577 102.855C70.3237 103.284 71.2946 103.557 72.252 103.683C72.9192 103.771 73.6034 103.773 74.261 103.615C74.8825 103.465 75.4509 103.169 75.9962 102.845C76.9304 102.291 77.7089 101.578 78.3608 100.718C78.686 100.289 79.0049 99.85 79.2934 99.3963C79.5576 98.9811 79.8071 98.5452 80.1508 98.1873C80.3264 98.0047 80.529 97.841 80.7469 97.6991C80.774 98.0247 80.8649 98.3448 81.0297 98.6404C81.2115 98.9677 81.4655 99.2961 81.8042 99.4765C82.1215 99.6452 82.4997 99.6385 82.835 99.521C83.1708 99.4036 83.5146 99.1854 83.6755 98.8592C83.8522 98.5012 83.7788 98.0631 83.6095 97.7158C83.2245 96.9258 82.3049 96.7177 81.5107 96.9771C81.3639 97.0255 81.2222 97.0823 81.0851 97.1463C81.1229 96.9002 81.2013 96.6592 81.3182 96.4332C81.942 95.2308 83.3729 94.4548 84.6893 94.2472C84.8937 94.2149 84.8677 93.8976 84.6622 93.9299C83.8578 94.0562 83.0732 94.3696 82.402 94.8244C81.7489 95.2664 81.1415 95.8743 80.8835 96.6297C80.8062 96.8568 80.7588 97.0912 80.743 97.3261C80.2169 97.6401 79.7715 98.0754 79.43 98.5881C78.8407 99.4737 78.2846 100.387 77.5644 101.179C76.8525 101.962 75.9358 102.615 74.9468 103.015C74.4789 103.203 73.9996 103.346 73.4905 103.348C73.0022 103.349 72.515 103.28 72.0397 103.17C71.8376 103.124 68.5422 102.346 68.7262 102.44ZM81.0602 97.5159C81.124 97.4825 81.1884 97.4508 81.2533 97.4207C81.6191 97.2543 82.0357 97.1246 82.4415 97.202C82.8858 97.2871 83.2487 97.5822 83.387 98.0141C83.5146 98.4133 83.4559 98.7885 83.0929 99.0367C82.8147 99.2266 82.3851 99.3835 82.0515 99.2405C81.6998 99.0896 81.4328 98.7456 81.2708 98.4122C81.1325 98.1283 81.0647 97.8226 81.0602 97.5159Z" fill="#565D70"/>
<path d="M68.7261 102.44C71.7675 104.202 75.6822 103.199 77.4688 100.2C79.256 97.2006 78.2388 93.3407 75.1974 91.5782C72.1553 89.8164 68.2412 90.8189 66.454 93.8189C64.6668 96.8177 65.684 100.678 68.7261 102.44Z" fill="#565D70"/>
<path d="M73.0505 99.3988C72.9839 99.8614 72.8964 100.322 72.7931 100.773C72.7519 100.784 72.7106 100.797 72.6694 100.808C72.7637 100.358 72.8433 99.9026 72.9037 99.445C72.9522 99.4299 73.0014 99.4144 73.0505 99.3988Z" fill="#9099B9"/>
<path d="M69.1929 91.3316C69.2059 91.3254 69.2188 91.3193 69.2318 91.3132C72.3777 92.2924 73.2962 95.0329 73.1861 97.9392C73.1325 97.9565 73.0783 97.9738 73.0247 97.9905C73.1133 95.1292 72.2361 92.4421 69.1929 91.3316Z" fill="#9099B9"/>
<path d="M72.0215 103.309C72.0108 103.309 72.0001 103.309 71.9888 103.309C72.2287 102.585 72.4511 101.802 72.6289 100.992C72.669 100.981 72.7091 100.969 72.7491 100.957C72.5493 101.787 72.297 102.585 72.0215 103.309Z" fill="#9099B9"/>
<path d="M73.1782 98.1111C73.159 98.4801 73.124 98.8514 73.0749 99.2216C73.0252 99.2377 72.9755 99.2533 72.9253 99.2689C72.9699 98.8998 73.0015 98.5308 73.0179 98.1639C73.0715 98.1461 73.1251 98.1289 73.1782 98.1111Z" fill="#9099B9"/>
<path d="M73.3249 103.162L73.3057 103.167C73.589 102.345 73.8555 101.436 74.0587 100.492C74.101 100.475 74.1428 100.457 74.1846 100.439C73.9559 101.412 73.6534 102.341 73.3249 103.162Z" fill="#9099B9"/>
<path d="M70.5278 90.8708C70.5448 90.8669 70.5617 90.8635 70.5786 90.8596C73.7358 91.8071 74.6864 94.5042 74.6051 97.3866C74.5509 97.4111 74.4967 97.435 74.4425 97.4584C74.5074 94.6099 73.5986 91.9507 70.5278 90.8708Z" fill="#9099B9"/>
<path d="M74.4373 97.6188C74.4909 97.5943 74.5451 97.5698 74.5993 97.5447C74.584 97.9205 74.5513 98.2985 74.5045 98.6753C74.4537 98.6976 74.4029 98.7193 74.3521 98.7416C74.395 98.3669 74.4237 97.9918 74.4373 97.6188Z" fill="#9099B9"/>
<path d="M74.331 98.9081C74.3818 98.8858 74.4321 98.8635 74.4829 98.8407C74.4179 99.3189 74.3305 99.7948 74.2255 100.262C74.1826 100.28 74.1397 100.298 74.0962 100.315C74.1916 99.8516 74.2718 99.3807 74.331 98.9081Z" fill="#9099B9"/>
<path d="M71.6187 101.045C71.5775 101.053 71.5363 101.059 71.4951 101.065C71.5837 100.628 71.6577 100.186 71.713 99.7416C71.7616 99.7327 71.8107 99.7238 71.8592 99.7138C71.7971 100.161 71.7158 100.608 71.6187 101.045Z" fill="#9099B9"/>
<path d="M68.2891 91.853C68.3049 91.8424 68.3207 91.8318 68.3359 91.8207C71.2058 92.8695 72.0718 95.483 71.9843 98.2625C71.9301 98.2742 71.8764 98.2853 71.8223 98.2953C71.886 95.5682 71.0557 93.0137 68.2891 91.853Z" fill="#9099B9"/>
<path d="M70.9914 103.236C70.9739 103.234 70.957 103.231 70.9395 103.228C71.1342 102.598 71.312 101.932 71.4571 101.247C71.4966 101.241 71.5367 101.235 71.5762 101.229C71.4136 101.928 71.2127 102.605 70.9914 103.236Z" fill="#9099B9"/>
<path d="M71.8823 99.5324C71.8327 99.5424 71.7836 99.5519 71.7339 99.5608C71.7751 99.1973 71.8033 98.8332 71.8169 98.4725C71.8705 98.4619 71.9235 98.4514 71.9772 98.4397C71.9608 98.8032 71.9281 99.1678 71.8823 99.5324Z" fill="#9099B9"/>
<path d="M73.0503 99.3988C73.0012 99.4149 72.9521 99.43 72.903 99.4456C72.5558 99.553 72.207 99.6432 71.8592 99.7128C71.8107 99.7228 71.7622 99.7317 71.713 99.7406C69.3795 100.17 67.1046 99.6588 65.5788 97.2601L65.5776 97.2406C67.1932 99.5101 69.4382 99.9811 71.7345 99.5602C71.7836 99.5513 71.8333 99.5419 71.883 99.5318C72.2295 99.4623 72.5784 99.3738 72.925 99.268C72.9747 99.253 73.0249 99.2368 73.0746 99.2207C73.5036 99.0837 73.9309 98.9217 74.352 98.7408C74.4028 98.7186 74.4536 98.6968 74.5044 98.6746C75.8931 98.0606 77.2123 97.2456 78.3243 96.4451C78.3249 96.4551 78.326 96.4652 78.3271 96.4746C77.2433 97.3302 75.9055 98.1958 74.4835 98.8405C74.4333 98.8633 74.3825 98.8861 74.3317 98.9078C73.91 99.0937 73.481 99.2591 73.0503 99.3988Z" fill="#9099B9"/>
<path d="M71.5764 101.228C71.5368 101.235 71.4973 101.241 71.4573 101.247C69.4274 101.558 67.4635 101.125 66.0207 99.3232C66.0032 99.2787 65.9857 99.2336 65.9688 99.189C67.4838 100.965 69.4612 101.379 71.4951 101.064C71.5363 101.058 71.5775 101.052 71.6187 101.044C71.9681 100.985 72.3187 100.906 72.6686 100.808C72.7098 100.796 72.7511 100.784 72.7923 100.773C73.2297 100.645 73.6655 100.491 74.0957 100.315C74.1386 100.297 74.182 100.28 74.2249 100.262C75.6966 99.6455 77.101 98.791 78.2791 97.9482C78.2768 97.9616 78.2751 97.9749 78.2729 97.9888C77.1219 98.889 75.6932 99.7958 74.1843 100.439C74.1425 100.457 74.1007 100.474 74.0584 100.492C73.6266 100.671 73.1885 100.828 72.7488 100.957C72.7087 100.969 72.6686 100.98 72.6286 100.992C72.278 101.09 71.9269 101.17 71.5764 101.228Z" fill="#9099B9"/>
<path d="M73.1773 98.1112C73.1242 98.129 73.0706 98.1463 73.017 98.1635C72.6709 98.2732 72.3238 98.3667 71.9772 98.4402C71.9235 98.4513 71.8705 98.4625 71.8169 98.473C69.4765 98.9256 67.1864 98.4435 65.6431 96.0744L65.6459 96.0544C67.2733 98.2893 69.525 98.7341 71.8225 98.296C71.8761 98.286 71.9303 98.2749 71.9845 98.2632C72.3311 98.1914 72.6783 98.0995 73.0243 97.9915C73.0779 97.9748 73.1315 97.9581 73.1857 97.9403C73.608 97.8023 74.028 97.6392 74.4417 97.4594C74.4959 97.4354 74.5507 97.4115 74.6043 97.3876C75.8733 96.8187 77.0813 96.085 78.1227 95.3519C78.1261 95.3647 78.1295 95.3775 78.1335 95.3903C77.1146 96.1713 75.8936 96.9484 74.5987 97.5457C74.545 97.5707 74.4908 97.5952 74.4366 97.6197C74.0223 97.8034 73.6012 97.9698 73.1773 98.1112Z" fill="#9099B9"/>
<path d="M114.643 77.5131C111.51 75.5948 107.393 76.5445 105.448 79.634C103.503 82.7235 104.466 86.7827 107.599 88.701C110.732 90.6187 114.848 89.669 116.793 86.5795C118.739 83.4906 117.776 79.4313 114.643 77.5131Z" fill="#6C67B7"/>
<path d="M110.046 80.582C110.128 80.1004 110.232 79.6217 110.351 79.1524C110.395 79.1413 110.438 79.1296 110.482 79.1185C110.372 79.5855 110.277 80.0598 110.202 80.5363C110.15 80.5519 110.098 80.5664 110.046 80.582Z" fill="#8AA3D9"/>
<path d="M113.868 89.1097C113.855 89.1159 113.841 89.1214 113.827 89.1281C110.566 88.0259 109.676 85.139 109.867 82.1046C109.923 82.0879 109.98 82.0712 110.037 82.0556C109.87 85.0427 110.717 87.8728 113.868 89.1097Z" fill="#8AA3D9"/>
<path d="M111.222 76.5226C111.234 76.5232 111.245 76.5232 111.256 76.5237C110.987 77.2736 110.734 78.0869 110.527 78.9285C110.485 78.9391 110.443 78.9503 110.401 78.9614C110.631 78.0986 110.916 77.2719 111.222 76.5226Z" fill="#8AA3D9"/>
<path d="M109.879 81.9247C109.908 81.5395 109.955 81.1526 110.016 80.7668C110.068 80.7512 110.121 80.7357 110.173 80.7212C110.117 81.1053 110.074 81.4905 110.048 81.874C109.992 81.8907 109.935 81.9074 109.879 81.9247Z" fill="#8AA3D9"/>
<path d="M109.856 76.6422L109.876 76.6383C109.558 77.49 109.257 78.433 109.02 79.4144C108.975 79.4317 108.931 79.4489 108.887 79.4667C109.152 78.4558 109.492 77.4922 109.856 76.6422Z" fill="#8AA3D9"/>
<path d="M112.461 89.5576C112.444 89.5609 112.426 89.5648 112.408 89.5681C109.133 88.4988 108.21 85.6564 108.37 82.6465C108.427 82.6226 108.484 82.5986 108.542 82.5753C108.399 85.5501 109.28 88.3518 112.461 89.5576Z" fill="#8AA3D9"/>
<path d="M108.55 82.4088C108.493 82.4327 108.436 82.4572 108.379 82.4817C108.405 82.0898 108.449 81.6957 108.508 81.3027C108.561 81.2804 108.615 81.2592 108.669 81.237C108.614 81.6278 108.574 82.0191 108.55 82.4088Z" fill="#8AA3D9"/>
<path d="M108.694 81.0624C108.64 81.0841 108.587 81.1064 108.534 81.1292C108.614 80.631 108.718 80.1361 108.84 79.6507C108.885 79.6329 108.931 79.615 108.976 79.5978C108.864 80.0799 108.769 80.5703 108.694 81.0624Z" fill="#8AA3D9"/>
<path d="M111.585 78.8981C111.628 78.892 111.671 78.8864 111.714 78.8803C111.61 79.3345 111.521 79.7954 111.452 80.258C111.401 80.2658 111.35 80.2742 111.298 80.2836C111.375 79.8177 111.472 79.3534 111.585 78.8981Z" fill="#8AA3D9"/>
<path d="M114.825 88.5872C114.809 88.5984 114.792 88.6089 114.775 88.6195C111.804 87.4516 110.966 84.6983 111.13 81.7964C111.187 81.7858 111.243 81.7753 111.3 81.7664C111.163 84.6148 111.964 87.3052 114.825 88.5872Z" fill="#8AA3D9"/>
<path d="M112.296 76.6242C112.314 76.627 112.332 76.6309 112.35 76.6342C112.13 77.2872 111.927 77.9791 111.758 78.6911C111.716 78.6961 111.674 78.7023 111.633 78.7078C111.821 77.9808 112.048 77.2783 112.296 76.6242Z" fill="#8AA3D9"/>
<path d="M111.269 80.4722C111.321 80.4633 111.372 80.4544 111.424 80.446C111.372 80.8251 111.333 81.2042 111.31 81.5816C111.253 81.5911 111.197 81.6011 111.142 81.6117C111.168 81.2326 111.212 80.8519 111.269 80.4722Z" fill="#8AA3D9"/>
<path d="M110.046 80.5826C110.097 80.567 110.149 80.552 110.201 80.5375C110.567 80.434 110.934 80.3488 111.299 80.2848C111.351 80.2753 111.401 80.2675 111.453 80.2592C113.902 79.8689 116.266 80.4607 117.799 83.0053L117.799 83.0259C116.17 80.6138 113.836 80.0649 111.425 80.4468C111.373 80.4551 111.321 80.4635 111.269 80.4729C110.905 80.537 110.539 80.6205 110.174 80.7223C110.121 80.7368 110.069 80.7524 110.016 80.768C109.564 80.9005 109.114 81.0586 108.669 81.2373C108.616 81.259 108.561 81.2807 108.508 81.3029C107.041 81.9097 105.641 82.728 104.459 83.5369C104.458 83.5263 104.458 83.5157 104.457 83.5057C105.611 82.639 107.031 81.7678 108.534 81.1304C108.588 81.1075 108.641 81.0853 108.695 81.0636C109.14 80.8799 109.592 80.7173 110.046 80.5826Z" fill="#8AA3D9"/>
<path d="M111.633 78.7075C111.675 78.7014 111.716 78.6958 111.758 78.6908C113.886 78.4175 115.928 78.919 117.389 80.8379C117.406 80.8852 117.423 80.9325 117.44 80.9793C115.902 79.0849 113.847 78.6034 111.714 78.8806C111.671 78.8867 111.627 78.8923 111.584 78.8984C111.218 78.9513 110.849 79.0259 110.481 79.1189C110.437 79.13 110.394 79.1411 110.35 79.1528C109.89 79.2753 109.431 79.425 108.976 79.5982C108.931 79.6154 108.885 79.6332 108.84 79.6511C107.286 80.2578 105.797 81.1157 104.543 81.9668C104.546 81.9529 104.548 81.9384 104.551 81.9245C105.777 81.0127 107.293 80.1008 108.887 79.4668C108.931 79.449 108.975 79.4317 109.019 79.4145C109.475 79.238 109.937 79.0849 110.4 78.9613C110.442 78.9502 110.484 78.9391 110.526 78.9285C110.896 78.8344 111.266 78.7598 111.633 78.7075Z" fill="#8AA3D9"/>
<path d="M109.879 81.9249C109.935 81.9077 109.991 81.8904 110.047 81.8743C110.412 81.7679 110.777 81.6794 111.141 81.6115C111.197 81.6009 111.253 81.5909 111.31 81.5815C113.767 81.1673 116.147 81.7284 117.699 84.2435L117.696 84.2641C116.052 81.8876 113.712 81.3666 111.299 81.7657C111.243 81.7752 111.187 81.7852 111.13 81.7958C110.766 81.862 110.4 81.9494 110.036 82.0535C109.98 82.0697 109.923 82.0858 109.866 82.1025C109.421 82.2367 108.978 82.3959 108.541 82.5735C108.483 82.5968 108.426 82.6208 108.369 82.6447C107.028 83.2075 105.747 83.9434 104.639 84.6838C104.636 84.6705 104.632 84.6571 104.629 84.6432C105.714 83.8527 107.01 83.0711 108.378 82.4799C108.435 82.4554 108.492 82.431 108.549 82.407C108.988 82.2255 109.432 82.0624 109.879 81.9249Z" fill="#8AA3D9"/>
<path d="M97.2467 88.3815C97.8394 91.2194 100.653 93.0464 103.531 92.4614C106.409 91.8768 108.262 89.1018 107.669 86.2639C107.076 83.426 104.262 81.5991 101.384 82.1841C98.506 82.7686 96.654 85.5436 97.2467 88.3815Z" fill="#F59D0E"/>
<path d="M101.567 89.3209C101.24 89.5385 100.902 89.7417 100.561 89.931C100.531 89.9126 100.5 89.8943 100.47 89.8753C100.804 89.6822 101.134 89.4762 101.455 89.2574C101.492 89.2786 101.529 89.2997 101.567 89.3209Z" fill="#FBD89F"/>
<path d="M104.471 82.4664C104.482 82.4708 104.493 82.4758 104.504 82.4797C105.646 84.9441 104.441 87.0339 102.556 88.5892C102.515 88.5664 102.475 88.5424 102.435 88.5196C104.278 86.9765 105.473 84.9413 104.471 82.4664Z" fill="#FBD89F"/>
<path d="M98.5415 90.8755C98.5359 90.8689 98.5296 90.8622 98.5234 90.8555C99.1111 90.5978 99.7264 90.2966 100.333 89.9526C100.363 89.9709 100.392 89.9888 100.422 90.0066C99.7896 90.3489 99.1489 90.6395 98.5415 90.8755Z" fill="#FBD89F"/>
<path d="M102.446 88.6798C102.203 88.8741 101.951 89.06 101.692 89.2365C101.654 89.2153 101.616 89.1936 101.579 89.1719C101.835 88.9932 102.084 88.8062 102.324 88.6114C102.364 88.6347 102.404 88.6576 102.446 88.6798Z" fill="#FBD89F"/>
<path d="M99.3607 91.5888L99.3472 91.5794C100.021 91.2938 100.739 90.9481 101.444 90.5456C101.479 90.5618 101.513 90.5774 101.548 90.5929C100.81 90.9965 100.058 91.3305 99.3607 91.5888Z" fill="#FBD89F"/>
<path d="M105.505 83.0225C105.517 83.0303 105.529 83.0386 105.54 83.047C106.709 85.5008 105.548 87.5855 103.696 89.1447C103.65 89.1253 103.605 89.1058 103.56 89.0857C105.382 87.536 106.542 85.498 105.505 83.0225Z" fill="#FBD89F"/>
<path d="M103.457 89.1728C103.502 89.1923 103.548 89.2118 103.594 89.2307C103.35 89.4311 103.095 89.6221 102.832 89.8041C102.789 89.7857 102.747 89.7668 102.705 89.7479C102.964 89.5642 103.216 89.3727 103.457 89.1728Z" fill="#FBD89F"/>
<path d="M102.589 89.8286C102.632 89.847 102.674 89.8654 102.717 89.8832C102.381 90.1103 102.033 90.3224 101.682 90.5194C101.646 90.5033 101.611 90.4872 101.576 90.4705C101.92 90.2706 102.26 90.0563 102.589 89.8286Z" fill="#FBD89F"/>
<path d="M99.7356 89.3667C99.7079 89.3455 99.6814 89.3238 99.6543 89.3027C99.9772 89.1128 100.297 88.9108 100.606 88.6964C100.639 88.7209 100.671 88.746 100.705 88.7699C100.389 88.9826 100.064 89.1819 99.7356 89.3667Z" fill="#FBD89F"/>
<path d="M103.64 82.2063C103.656 82.2096 103.671 82.2135 103.686 82.2169C104.63 84.5521 103.475 86.5389 101.684 88.0363C101.647 88.0096 101.609 87.9834 101.573 87.9561C103.319 86.4726 104.457 84.541 103.64 82.2063Z" fill="#FBD89F"/>
<path d="M98.012 90.2075C98.0041 90.1958 97.9962 90.1835 97.9883 90.1713C98.4918 89.9386 99.0089 89.6747 99.5192 89.3814C99.5451 89.4025 99.5711 89.4231 99.5976 89.4437C99.0681 89.7343 98.5313 89.9898 98.012 90.2075Z" fill="#FBD89F"/>
<path d="M100.831 88.6836C100.798 88.6591 100.764 88.6341 100.731 88.6096C100.982 88.4314 101.226 88.2461 101.46 88.0523C101.496 88.0791 101.533 88.1058 101.57 88.1319C101.333 88.3246 101.085 88.5083 100.831 88.6836Z" fill="#FBD89F"/>
<path d="M101.567 89.3206C101.529 89.2994 101.492 89.2782 101.455 89.2571C101.194 89.1051 100.943 88.9431 100.705 88.77C100.672 88.7461 100.639 88.721 100.606 88.6965C99.0342 87.5136 98.0848 85.8408 98.7373 83.5718L98.7492 83.5601C98.2282 85.8119 99.1861 87.4435 100.731 88.6091C100.764 88.6342 100.798 88.6587 100.832 88.6832C101.069 88.8563 101.319 89.0188 101.579 89.1714C101.616 89.1931 101.654 89.2148 101.692 89.2359C102.017 89.4213 102.357 89.5911 102.706 89.747C102.748 89.7659 102.79 89.7848 102.833 89.8032C103.993 90.307 105.24 90.6566 106.362 90.8876C106.356 90.8937 106.351 90.8998 106.345 90.9054C105.204 90.7223 103.915 90.3899 102.717 89.8822C102.675 89.8644 102.632 89.8461 102.59 89.8277C102.238 89.6746 101.894 89.5059 101.567 89.3206Z" fill="#FBD89F"/>
<path d="M99.5965 89.4432C99.5705 89.4226 99.544 89.402 99.518 89.3809C98.1903 88.3171 97.3656 86.8775 97.6896 84.9921C97.7077 84.9565 97.7263 84.9208 97.7449 84.8858C97.4774 86.8013 98.3213 88.2375 99.6535 89.3018C99.6806 89.323 99.7077 89.3447 99.7348 89.3659C99.9668 89.5457 100.212 89.7154 100.469 89.8741C100.5 89.893 100.53 89.9114 100.561 89.9298C100.885 90.1252 101.224 90.305 101.575 90.4692C101.61 90.4859 101.646 90.502 101.681 90.5182C102.889 91.0715 104.208 91.4506 105.394 91.6983C105.385 91.7044 105.375 91.7111 105.366 91.7172C104.159 91.5179 102.793 91.1533 101.547 90.5922C101.513 90.5766 101.478 90.561 101.444 90.5449C101.091 90.3818 100.747 90.2025 100.421 90.006C100.392 89.9882 100.362 89.9704 100.333 89.952C100.075 89.7934 99.8285 89.6236 99.5965 89.4432Z" fill="#FBD89F"/>
<path d="M102.445 88.6797C102.404 88.6575 102.364 88.6347 102.323 88.6113C102.061 88.4615 101.809 88.3023 101.569 88.1314C101.533 88.1053 101.496 88.0785 101.459 88.0518C99.8691 86.8773 98.8931 85.2123 99.5174 82.9488L99.5315 82.9394C99.0387 85.1794 100.016 86.7999 101.573 87.9566C101.609 87.9839 101.647 88.0101 101.684 88.0368C101.922 88.2077 102.173 88.3686 102.435 88.5189C102.475 88.5423 102.516 88.5656 102.557 88.5885C102.879 88.7688 103.215 88.9341 103.56 89.0861C103.605 89.1062 103.65 89.1256 103.696 89.1451C104.76 89.601 105.895 89.9284 106.936 90.1544C106.93 90.1638 106.925 90.1727 106.918 90.1822C105.861 89.9968 104.692 89.6862 103.594 89.2297C103.548 89.2108 103.503 89.1913 103.458 89.1719C103.11 89.0232 102.771 88.8596 102.445 88.6797Z" fill="#FBD89F"/>
<path d="M96.2144 92.3122C95.2841 90.881 93.83 89.6964 92.1518 89.2443C91.3113 89.0178 90.4312 88.9966 89.5856 89.2121C89.1916 89.3123 88.8095 89.4542 88.4171 89.5605C88.0197 89.6685 87.5947 89.7476 87.1849 89.668C87.1679 89.6646 87.151 89.6607 87.1341 89.6568C87.3209 89.4843 87.4846 89.2917 87.6026 89.0746C87.7081 88.8803 87.7516 88.6532 87.672 88.4422C87.58 88.1984 87.3243 88.0019 87.0737 87.9406C86.4866 87.797 86.1411 88.4461 86.2044 88.9382C86.2439 89.2477 86.4369 89.5143 86.7062 89.6724C86.731 89.6869 86.7559 89.7003 86.7813 89.7131C86.7395 89.7459 86.6972 89.7782 86.6548 89.8099C86.1959 90.1528 85.6811 90.4512 85.1431 90.6561C84.6001 90.8632 83.9453 90.8247 83.378 90.6644C82.7209 90.4785 82.0881 90.1005 81.7235 89.5171C81.6043 89.3267 81.5264 89.1163 81.4881 88.8987C81.7387 88.853 81.9826 88.7767 82.2117 88.6626C82.4601 88.539 82.6842 88.3603 82.8699 88.1572C83.0449 87.9662 83.2047 87.7124 83.1736 87.4446C83.1392 87.149 82.8248 86.918 82.5397 86.8902C82.1942 86.8562 81.8962 87.1095 81.6975 87.3595C81.3853 87.7525 81.2453 88.259 81.2877 88.7523C80.7254 88.8235 80.1372 88.7361 79.6032 88.5791C78.9761 88.3943 78.3794 88.0965 77.8595 87.704C77.3938 87.3522 76.9722 86.9046 76.7514 86.3619C76.708 86.2556 76.5403 86.3207 76.5838 86.427C76.8514 87.085 77.3904 87.6088 77.973 88.0052C78.6222 88.4461 79.3729 88.7539 80.1497 88.8886C80.529 88.9543 80.9253 88.9744 81.3102 88.9265C81.334 89.0618 81.3712 89.1942 81.4231 89.3223C81.6811 89.958 82.2648 90.4128 82.8863 90.6795C83.514 90.9489 84.2467 91.0552 84.9196 90.9094C85.1251 90.8648 85.3204 90.7813 85.51 90.6939C85.7815 90.5687 86.0446 90.4239 86.2986 90.267C86.525 90.1272 86.7615 89.9719 86.9771 89.7943C87.2577 89.8862 87.5603 89.8929 87.8572 89.8567C88.2805 89.8049 88.6904 89.6702 89.0945 89.5422C89.4925 89.4164 89.8893 89.3067 90.3059 89.2616C92.0677 89.0723 93.7753 89.9346 95.0053 91.1237C95.4078 91.5133 95.7651 91.9503 96.0688 92.4179C96.1326 92.5137 96.2771 92.4079 96.2144 92.3122ZM81.7517 87.5905C81.9176 87.3377 82.1965 87.0349 82.5335 87.0678C82.8028 87.0939 83.0398 87.3394 82.9873 87.6088C82.9377 87.8655 82.7113 88.0859 82.5171 88.2473C82.3032 88.4249 82.0644 88.5507 81.7991 88.6381C81.6896 88.6743 81.5784 88.7027 81.4655 88.7244C81.435 88.3297 81.5315 87.9256 81.7517 87.5905ZM86.4268 89.0885C86.3359 88.8519 86.3647 88.563 86.5024 88.3492C86.6322 88.1483 86.8552 88.0464 87.0889 88.1293C87.3017 88.2045 87.5061 88.3938 87.532 88.6237C87.5563 88.8385 87.4259 89.0467 87.2995 89.2093C87.1911 89.3484 87.0652 89.4731 86.9308 89.5889C86.7062 89.4904 86.5165 89.3217 86.4268 89.0885Z" fill="#8AA3D9"/>
<path d="M8.94998 64.3294C5.01833 64.7219 2.15412 68.1832 2.55265 72.0604C2.95118 75.9376 6.46059 78.7621 10.3922 78.3691C14.3239 77.9761 17.1881 74.5148 16.7896 70.6376C16.3916 66.7609 12.8816 63.9364 8.94998 64.3294Z" fill="#8E97FD"/>
<path d="M7.08279 69.9008C6.83216 69.4393 6.60298 68.9662 6.39355 68.4908C6.42291 68.4529 6.45226 68.4156 6.48161 68.3777C6.69781 68.8454 6.93208 69.3091 7.1844 69.7622C7.14997 69.8084 7.1161 69.854 7.08279 69.9008Z" fill="#A9B0FF"/>
<path d="M15.9834 74.6723C15.9755 74.6862 15.9676 74.7002 15.9602 74.7146C12.4604 75.8831 9.7904 74.006 7.93945 71.3073C7.97614 71.2561 8.01397 71.206 8.05122 71.1559C9.89201 73.7995 12.4887 75.6554 15.9834 74.6723Z" fill="#A9B0FF"/>
<path d="M5.38867 65.6956C5.39883 65.6889 5.40843 65.6817 5.41859 65.6744C5.68729 66.485 6.01186 67.3383 6.39515 68.1861C6.36636 68.2223 6.33814 68.2591 6.30991 68.2952C5.93227 67.4146 5.62576 66.5289 5.38867 65.6956Z" fill="#A9B0FF"/>
<path d="M7.83216 71.147C7.60129 70.8008 7.38452 70.4429 7.18018 70.076C7.21461 70.0293 7.24848 69.9819 7.28348 69.9357C7.49065 70.2981 7.70967 70.6527 7.94167 70.9951C7.90498 71.0457 7.86829 71.0964 7.83216 71.147Z" fill="#A9B0FF"/>
<path d="M4.30908 66.678L4.32376 66.6613C4.61899 67.5892 4.98873 68.584 5.43806 69.5699C5.41153 69.6133 5.38556 69.6561 5.36016 69.6996C4.91422 68.6714 4.56367 67.6343 4.30908 66.678Z" fill="#A9B0FF"/>
<path d="M15.0863 75.9607C15.0739 75.9751 15.0609 75.9896 15.0479 76.0041C11.5594 77.2087 8.88936 75.3918 7.02881 72.7337C7.06155 72.6763 7.09429 72.6196 7.12759 72.5622C8.98024 75.1791 11.5859 76.9894 15.0863 75.9607Z" fill="#A9B0FF"/>
<path d="M7.02492 72.4151C6.99274 72.4724 6.96 72.5297 6.92783 72.5876C6.68961 72.238 6.46551 71.8756 6.25439 71.5038C6.28544 71.4503 6.31649 71.3975 6.3481 71.344C6.56091 71.7114 6.78671 72.0694 7.02492 72.4151Z" fill="#A9B0FF"/>
<path d="M6.25468 71.179C6.22363 71.2319 6.19315 71.2853 6.16323 71.3393C5.90131 70.865 5.66084 70.3774 5.44238 69.887C5.46948 69.843 5.49601 69.7979 5.5231 69.7539C5.74777 70.2355 5.99106 70.7136 6.25468 71.179Z" fill="#A9B0FF"/>
<path d="M7.27246 67.4783C7.3052 67.4449 7.33794 67.4126 7.37068 67.3797C7.58406 67.8323 7.81437 68.2804 8.06218 68.718C8.02436 68.758 7.98597 68.7976 7.94872 68.8388C7.70429 68.394 7.4785 67.9375 7.27246 67.4783Z" fill="#A9B0FF"/>
<path d="M16.45 73.6111C16.4432 73.6312 16.4359 73.6507 16.4291 73.6707C13.1319 74.5964 10.5951 72.7995 8.80908 70.2305C8.85029 70.1848 8.8915 70.1397 8.93327 70.0952C10.7069 72.6019 13.1709 74.3688 16.45 73.6111Z" fill="#A9B0FF"/>
<path d="M6.36768 65.0886C6.38517 65.0792 6.40267 65.0708 6.42017 65.0619C6.66685 65.7583 6.95305 66.477 7.28158 67.1895C7.2494 67.2207 7.21779 67.2524 7.18675 67.2841C6.86386 66.5471 6.59121 65.804 6.36768 65.0886Z" fill="#A9B0FF"/>
<path d="M8.04883 69.0174C8.08665 68.9762 8.12503 68.9356 8.16342 68.895C8.37002 69.2507 8.58904 69.598 8.81935 69.9326C8.77814 69.9771 8.73694 70.0216 8.69629 70.0667C8.46768 69.7283 8.25204 69.377 8.04883 69.0174Z" fill="#A9B0FF"/>
<path d="M7.08284 69.9C7.11615 69.8532 7.15002 69.8076 7.18445 69.7619C7.42605 69.438 7.6812 69.129 7.9482 68.839C7.98546 68.7983 8.02328 68.7583 8.06166 68.7182C9.88213 66.8066 12.2812 65.784 15.2702 66.9558L15.2843 66.9725C12.301 65.976 9.95608 67.0159 8.16327 68.8946C8.12489 68.9353 8.0865 68.9759 8.04868 69.0171C7.78168 69.3066 7.52653 69.6139 7.28436 69.9356C7.24937 69.9818 7.21493 70.0291 7.18106 70.0759C6.88527 70.48 6.60811 70.9048 6.34901 71.3429C6.31796 71.3963 6.28635 71.4492 6.25531 71.5026C5.41253 72.9639 4.76732 74.5616 4.29992 76.0106C4.29258 76.0017 4.28525 75.9939 4.27734 75.9855C4.68265 74.5053 5.31035 72.8498 6.16329 71.3384C6.19378 71.285 6.22426 71.2315 6.25474 71.1781C6.51045 70.7367 6.78649 70.3069 7.08284 69.9Z" fill="#A9B0FF"/>
<path d="M7.18695 67.2845C7.218 67.2527 7.24961 67.221 7.28179 67.1898C8.90751 65.5844 10.973 64.6932 13.4861 65.3801C13.5323 65.409 13.5775 65.438 13.6232 65.4675C11.0616 64.8513 8.99783 65.7681 7.37041 67.3796C7.33767 67.4125 7.30493 67.4448 7.27219 67.4782C6.99616 67.7593 6.73254 68.0605 6.48191 68.3772C6.45199 68.4145 6.4232 68.4524 6.39385 68.4902C6.08451 68.8905 5.7938 69.3146 5.52285 69.7544C5.49575 69.7984 5.46922 69.8429 5.44213 69.8875C4.52596 71.4049 3.82995 73.0939 3.33151 74.6242C3.32417 74.6108 3.31683 74.5974 3.31006 74.5835C3.74641 73.0187 4.42831 71.2669 5.36027 69.7004C5.38624 69.657 5.41221 69.6136 5.43817 69.5707C5.708 69.1265 5.99871 68.699 6.30918 68.2954C6.3374 68.2592 6.36619 68.2224 6.39441 68.1863C6.64617 67.8678 6.90979 67.5661 7.18695 67.2845Z" fill="#A9B0FF"/>
<path d="M7.8327 71.1477C7.86883 71.0965 7.90552 71.0458 7.94221 70.9957C8.18099 70.6706 8.43219 70.36 8.69637 70.0672C8.73701 70.0221 8.77765 69.9776 8.81942 69.933C10.6309 67.9958 13.0232 66.937 16.0087 68.071L16.0195 68.0904C13.0486 67.133 10.7155 68.2007 8.93289 70.0961C8.89111 70.1407 8.84991 70.1858 8.8087 70.2314C8.54395 70.5225 8.29163 70.832 8.05172 71.1555C8.01446 71.2056 7.97721 71.2557 7.93995 71.3069C7.6515 71.7077 7.38111 72.1285 7.12766 72.5616C7.09435 72.619 7.06161 72.6757 7.02887 72.7331C6.26399 74.0752 5.66451 75.527 5.21574 76.8697C5.20388 76.8603 5.19259 76.8514 5.18018 76.8419C5.57645 75.4708 6.15843 73.9717 6.92783 72.5867C6.96 72.5288 6.99218 72.4714 7.02492 72.4141C7.27555 71.9771 7.54425 71.5524 7.8327 71.1477Z" fill="#A9B0FF"/>
<path d="M23.5674 61.5126C23.5606 61.3394 23.2874 61.3389 23.2942 61.5126C23.3196 62.1383 23.1119 62.7784 22.8607 63.3457C22.5677 64.007 22.1669 64.6438 21.6284 65.1382C21.4167 65.3325 21.1706 65.5039 20.9042 65.6147C20.9228 65.5869 20.9403 65.5579 20.9567 65.529C21.1012 65.2723 21.1362 64.9845 21.095 64.6973C21.008 64.0905 20.4701 63.7114 19.8729 63.6981C19.371 63.6869 18.7924 63.9218 18.5943 64.4056C18.3414 65.0229 19.0289 65.6019 19.5201 65.8374C19.7018 65.9242 19.8813 65.9776 20.0574 66.0016C19.9999 66.0344 19.9417 66.065 19.8836 66.0934C19.3101 66.374 18.6615 66.5115 18.0315 66.6011C17.6787 66.6512 17.3157 66.6841 16.9573 66.6846C16.7812 66.6846 16.7812 66.9541 16.9573 66.9541C17.4913 66.9535 18.0298 66.8861 18.5537 66.7859C19.1808 66.6663 19.8311 66.4837 20.3668 66.1296C20.43 66.0879 20.4915 66.0433 20.5502 65.9955C21.5127 65.8424 22.3239 64.8927 22.7918 64.0794C23.0374 63.6524 23.2361 63.1959 23.3789 62.7255C23.4985 62.3364 23.5838 61.9212 23.5674 61.5126ZM19.9784 65.7138C19.6397 65.6386 19.3281 65.4449 19.0882 65.2011C18.9923 65.1037 18.9014 64.9784 18.8579 64.8621C18.8404 64.8159 18.8246 64.7396 18.8223 64.7184C18.8201 64.6923 18.8201 64.6656 18.8207 64.6394C18.8223 64.5954 18.8201 64.6166 18.8291 64.5737C18.8483 64.4802 18.898 64.3934 18.9522 64.3299C19.0318 64.2369 19.1023 64.1874 19.2068 64.1278C19.4156 64.0109 19.6612 63.9603 19.905 63.9681C20.141 63.9758 20.3837 64.0582 20.5587 64.2208C20.7602 64.4078 20.8472 64.6823 20.8415 64.9539C20.8347 65.2729 20.6665 65.5323 20.4323 65.7383C20.2838 65.7544 20.132 65.7477 19.9784 65.7138Z" fill="#F59D0E"/>
<path d="M88.4192 7.35327H88.3346C88.3346 7.8153 88.1449 8.2328 87.8378 8.53563C87.5307 8.83846 87.1074 9.0255 86.6388 9.0255C86.1703 9.0255 85.747 8.83846 85.4399 8.53563C85.1328 8.2328 84.9431 7.8153 84.9431 7.35327C84.9431 6.89123 85.1328 6.47373 85.4399 6.1709C85.747 5.86807 86.1703 5.68103 86.6388 5.68103C87.1074 5.68103 87.5307 5.86807 87.8378 6.1709C88.1449 6.47373 88.3346 6.89123 88.3346 7.35327H88.4192H88.5039C88.5039 6.33734 87.669 5.51459 86.6394 5.51459C85.6092 5.51459 84.7749 6.3379 84.7749 7.35327C84.7749 8.36863 85.6098 9.19194 86.6394 9.19194C87.6696 9.19194 88.5039 8.36863 88.5039 7.35327H88.4192Z" fill="#F59D0E"/>
<path d="M103.901 52.5744H103.816C103.816 53.0281 103.63 53.4384 103.329 53.7357C103.027 54.0329 102.611 54.2166 102.151 54.2166C101.691 54.2166 101.275 54.0329 100.973 53.7357C100.672 53.4384 100.486 53.0281 100.486 52.5744C100.486 52.1208 100.672 51.7105 100.973 51.4132C101.275 51.116 101.691 50.9323 102.151 50.9323C102.611 50.9323 103.027 51.116 103.329 51.4132C103.63 51.7105 103.816 52.1208 103.816 52.5744H103.901H103.986C103.986 51.5752 103.164 50.7653 102.151 50.7653C101.138 50.7653 100.316 51.5752 100.316 52.5744C100.316 53.5737 101.138 54.3836 102.151 54.3836C103.164 54.3836 103.986 53.5737 103.986 52.5744H103.901Z" fill="#F59D0E"/>
<path d="M106.304 65.1419H106.219C106.219 65.7403 105.973 66.2814 105.575 66.6738C105.178 67.0663 104.629 67.3084 104.022 67.3084C103.415 67.3084 102.867 67.0663 102.469 66.6738C102.071 66.2814 101.825 65.7403 101.825 65.1419C101.825 64.5434 102.071 64.0018 102.469 63.6099C102.867 63.2174 103.415 62.9753 104.022 62.9753C104.629 62.9753 105.178 63.2174 105.575 63.6099C105.973 64.0023 106.219 64.5434 106.219 65.1419H106.304H106.388C106.388 63.8532 105.329 62.8083 104.022 62.8083C102.715 62.8083 101.656 63.8532 101.656 65.1419C101.656 66.4305 102.715 67.4754 104.022 67.4754C105.329 67.4754 106.388 66.4305 106.388 65.1419H106.304Z" fill="#F59D0E"/>
<path d="M63.3688 20.5394C63.3011 20.4816 63.2441 20.4331 63.2085 20.393C63.5207 19.9099 63.7222 19.3738 63.8447 18.8366C63.9745 18.2688 64.0186 17.7004 64.0186 17.1877C64.0186 16.0749 63.6483 15.285 63.6483 15.285L63.6488 15.2867C63.6595 15.3307 63.8492 16.144 63.8492 17.1877C63.8492 17.6837 63.8063 18.2315 63.6827 18.7737C63.5585 19.3159 63.3542 19.8514 63.0296 20.3285L62.9805 20.4008L63.029 20.4738C63.0335 20.4804 63.1176 20.6057 63.2847 20.7304C63.4512 20.8551 63.7007 20.9787 64.0304 20.9781C64.1388 20.9781 64.2562 20.9647 64.3815 20.9341C64.381 20.9341 63.8724 20.9686 63.3688 20.5394Z" fill="#333242"/>
<path d="M69.6903 20.3608C69.6903 20.9971 68.8639 21.5131 67.8444 21.5131C66.825 21.5131 65.9985 20.9971 65.9985 20.3608C65.9985 19.7245 66.825 19.2085 67.8444 19.2085C68.8639 19.2085 69.6903 19.724 69.6903 20.3608Z" fill="#F67E31"/>
<path d="M61.8778 20.3608C61.8778 20.9971 61.0514 21.5131 60.0319 21.5131C59.0124 21.5131 58.186 20.9971 58.186 20.3608C58.186 19.7245 59.0124 19.2085 60.0319 19.2085C61.0514 19.2085 61.8778 19.724 61.8778 20.3608Z" fill="#F67E31"/>
<path d="M125.931 36.3108H125.846C125.846 37.3935 125.402 38.3727 124.683 39.0824C123.963 39.7916 122.97 40.2303 121.872 40.2303C120.774 40.2303 119.781 39.7916 119.061 39.0824C118.342 38.3727 117.897 37.3935 117.897 36.3108C117.897 35.2281 118.342 34.2489 119.061 33.5391C119.781 32.8299 120.774 32.3913 121.872 32.3913C122.97 32.3913 123.963 32.8299 124.683 33.5391C125.402 34.2489 125.846 35.2281 125.846 36.3108H125.931H126.016C126.016 34.054 124.16 32.2243 121.872 32.2243C119.583 32.2243 117.728 34.054 117.728 36.3108C117.728 38.5675 119.583 40.3973 121.872 40.3973C124.16 40.3973 126.016 38.5675 126.016 36.3108H125.931Z" fill="#F59D0E"/>
<path d="M121.751 34.9904C121.751 35.6206 121.237 36.1315 120.604 36.1315C119.971 36.1315 119.458 35.6206 119.458 34.9904" stroke="#5B5C6C" stroke-width="0.2"/>
<path d="M124.308 34.9904C124.308 35.6206 123.795 36.1315 123.162 36.1315C122.529 36.1315 122.015 35.6206 122.015 34.9904" stroke="#5B5C6C" stroke-width="0.2"/>
<path d="M125.023 36.1319C124.466 37.2749 123.289 38.063 121.927 38.063C120.565 38.063 119.389 37.2749 118.832 36.1319" stroke="#5B5C6C" stroke-width="0.2"/>
<path d="M43.511 52.9475H43.4466C43.4466 53.77 43.1087 54.5138 42.5624 55.053C42.0156 55.5918 41.2613 55.925 40.4273 55.925C39.5932 55.925 38.8389 55.5918 38.2922 55.053C37.7459 54.5138 37.4079 53.77 37.4079 52.9475C37.4079 52.125 37.7459 51.3811 38.2922 50.8419C38.8389 50.3032 39.5932 49.9699 40.4273 49.9699C41.2613 49.9699 42.0156 50.3032 42.5624 50.8419C43.1087 51.3811 43.4466 52.125 43.4466 52.9475H43.511H43.5753C43.5753 51.2331 42.1657 49.8431 40.4273 49.8431C38.6888 49.8431 37.2793 51.2331 37.2793 52.9475C37.2793 54.6618 38.6888 56.0519 40.4273 56.0519C42.1657 56.0519 43.5753 54.6618 43.5753 52.9475H43.511Z" fill="#F59D0E"/>
<path d="M40.3351 51.9444C40.3351 52.4231 39.9453 52.8113 39.4644 52.8113C38.9835 52.8113 38.5936 52.4231 38.5936 51.9444" stroke="#5B5C6C" stroke-width="0.2"/>
<path d="M42.2773 51.9444C42.2773 52.4231 41.8875 52.8113 41.4066 52.8113C40.9257 52.8113 40.5358 52.4231 40.5358 51.9444" stroke="#5B5C6C" stroke-width="0.2"/>
<path d="M42.821 52.8113C42.3979 53.6797 41.5039 54.2784 40.4694 54.2784C39.4348 54.2784 38.5408 53.6797 38.1177 52.8113" stroke="#5B5C6C" stroke-width="0.2"/>
<path d="M43.5952 37.5682C44.1324 38.0984 44.4645 38.8296 44.4645 39.6381C44.4645 40.4466 44.1324 41.1778 43.5952 41.708C43.0575 42.2379 42.3156 42.5656 41.4952 42.5656C40.6747 42.5656 39.9329 42.2379 39.3951 41.708C38.8579 41.1778 38.5258 40.4466 38.5258 39.6381C38.5258 38.8296 38.8579 38.0984 39.3951 37.5682C39.9329 37.0383 40.6747 36.7106 41.4952 36.7106C42.3156 36.7106 43.0575 37.0383 43.5952 37.5682ZM44.6928 39.6881H44.6931V39.6381V39.5881H44.6928C44.6657 37.8685 43.2436 36.4837 41.4952 36.4837C39.7298 36.4837 38.2972 37.8954 38.2972 39.6381C38.2972 41.3807 39.7298 42.7925 41.4952 42.7925C43.2436 42.7925 44.6657 41.4077 44.6928 39.6881Z" fill="#9099B9" stroke="#9099B9" stroke-width="0.1"/>
<path d="M41.403 38.6357C41.403 39.1145 41.0131 39.5026 40.5322 39.5026C40.0513 39.5026 39.6615 39.1145 39.6615 38.6357" stroke="#5B5C6C" stroke-width="0.2"/>
<path d="M43.3457 38.6357C43.3457 39.1145 42.9558 39.5026 42.4749 39.5026C41.994 39.5026 41.6042 39.1145 41.6042 38.6357" stroke="#5B5C6C" stroke-width="0.2"/>
<path d="M43.8889 39.5023C43.4658 40.3707 42.5717 40.9694 41.5372 40.9694C40.5027 40.9694 39.6087 40.3707 39.1855 39.5023" stroke="#5B5C6C" stroke-width="0.2"/>
<path d="M52.8092 28.2925H52.7661C52.7661 28.8428 52.54 29.3405 52.1745 29.7013C51.8087 30.0618 51.304 30.2847 50.7459 30.2847C50.1879 30.2847 49.6832 30.0618 49.3174 29.7013C48.9518 29.3405 48.7257 28.8428 48.7257 28.2925C48.7257 27.7422 48.9518 27.2445 49.3174 26.8837C49.6832 26.5232 50.1879 26.3003 50.7459 26.3003C51.304 26.3003 51.8087 26.5232 52.1745 26.8837C52.54 27.2445 52.7661 27.7422 52.7661 28.2925H52.8092H52.8522C52.8522 27.1454 51.9091 26.2154 50.7459 26.2154C49.5828 26.2154 48.6396 27.1454 48.6396 28.2925C48.6396 29.4396 49.5828 30.3696 50.7459 30.3696C51.9091 30.3696 52.8522 29.4396 52.8522 28.2925H52.8092Z" fill="#F59D0E"/>
<path d="M50.6843 27.6213C50.6843 27.9416 50.4235 28.2013 50.1017 28.2013C49.7799 28.2013 49.5191 27.9416 49.5191 27.6213" stroke="#5B5C6C" stroke-width="0.1"/>
<path d="M51.9843 27.6213C51.9843 27.9416 51.7235 28.2013 51.4017 28.2013C51.0799 28.2013 50.8191 27.9416 50.8191 27.6213" stroke="#5B5C6C" stroke-width="0.1"/>
<path d="M52.3476 28.2014C52.0645 28.7824 51.4663 29.1829 50.7742 29.1829C50.082 29.1829 49.4838 28.7824 49.2007 28.2014" stroke="#5B5C6C" stroke-width="0.1"/>
</svg>
