<svg width="22" height="22" viewBox="0 0 22 22" fill="none" xmlns="http://www.w3.org/2000/svg">
<path d="M20.4161 7.50594L12.8239 0.819133C11.7394 -0.265457 9.97353 -0.265456 8.93376 0.774315L1.252 7.55076C0.508026 8.29473 0.0957031 9.28969 0.0957031 10.3474V19.302C0.0957031 20.7899 1.30578 22 2.79373 22H18.9281C20.4071 22 21.6172 20.7899 21.6172 19.302V10.3474C21.6172 9.28969 21.2049 8.29473 20.4161 7.50594ZM19.8245 19.302C19.8245 19.8039 19.4211 20.2073 18.9281 20.2073H13.2452V14.4348C13.2452 13.9149 12.8329 13.5026 12.313 13.5026H9.39987C8.88894 13.5026 8.46766 13.9149 8.46766 14.4348V20.2073H2.79373C2.29177 20.2073 1.88841 19.8039 1.88841 19.302V10.3474C1.88841 9.78268 2.12146 9.21798 2.48001 8.85047L10.1618 2.08299C10.35 1.89476 10.592 1.79616 10.843 1.79616C11.1119 1.79616 11.3808 1.90372 11.5959 2.11885L19.1881 8.81462C19.6004 9.22694 19.8245 9.77372 19.8245 10.3474V19.302Z" fill="#98A1BD"/>
</svg>
