<svg width="40" height="41" viewBox="0 0 40 41" fill="none" xmlns="http://www.w3.org/2000/svg">
<circle cx="20" cy="20.6609" r="19.5" stroke="#A1A4B2"/>
<path d="M17.5064 14.8829C16.3918 14.2515 15 15.0422 15 16.305V25.0137C15 26.2822 16.3918 27.0728 17.5064 26.4357L25.1641 22.0842C26.2786 21.4528 26.2786 19.8715 25.1641 19.2344M17.5064 14.8829L17.2593 15.3176L17.2596 15.3178C16.4652 14.868 15.5 15.4404 15.5 16.305V25.0137C15.5 25.8857 16.466 26.4545 17.2582 26.0017L17.2593 26.001L24.917 21.6495L24.9176 21.6492C25.6924 21.2103 25.6962 20.115 24.9165 19.6688L24.917 19.6691L25.1641 19.2344M17.5064 14.8829L25.1641 19.2344M17.5064 14.8829L17.2599 15.3179L24.9159 19.6685L25.1641 19.2344" fill="#A1A4B2" stroke="#A1A4B2"/>
</svg>
